<?xml version="1.0" encoding="utf-8"?>
<!-- Generator: Adobe Illustrator 21.1.0, SVG Export Plug-In . SVG Version: 6.00 Build 0)  -->
<svg version="1.1" id="Calque_1" xmlns:amcharts="http://amcharts.com/ammap"
	 xmlns="http://www.w3.org/2000/svg" xmlns:xlink="http://www.w3.org/1999/xlink" x="0px" y="0px" viewBox="0 0 1100 700"
	 style="enable-background:new 0 0 1100 700;" xml:space="preserve">
<style type="text/css">
	.st0{fill:#5B5B5B;stroke:#FFFFFF;stroke-width:0.5;}
</style>
<defs>
	
	
		<amcharts:ammap  bottomLatitude="-55.55" leftLongitude="-169.6" projection="mercator" rightLongitude="190.25" topLatitude="83.68">
		</amcharts:ammap>
</defs>
<g>
	<path id="AE" class="st0" d="M665.7,418.2l0.5-0.1l0.1,0.8l2.2-0.5l2.3,0.1l1.7,0.1l1.9-2.1l2.1-2l1.8-1.9l0.5,1.1l0.4,2.4l-1.4,0
		l-0.2,2l0.5,0.4l-1.3,0.6l0,1.2l-0.8,1.3l-0.1,1.2l-0.6,0.6l-8.4-1.5l-1.1-3.1L665.7,418.2z"/>
	<path id="AF" class="st0" d="M692.7,381.4l2.9,1.3l2.1-0.5l0.6-1.5l2.2-0.5l1.6-1.1l0.6-2.8l2.4-0.7l0.4-1.2l1.3,0.9l0.8,0.1l1.6,0
		l2.1,0.7l0.8,0.4l2-1.1l1,0.7l0.9-1.6l1.7,0.1l0.4-0.5l0.3-1.4l1.2-1.2l1.5,0.8l-0.3,1.1l0.8,0.2l-0.3,2.9l1.1,1.2l1-0.7l1.2-0.3
		l1.7-1.6l1.9,0.3h2.9l0.5,1l-1.6,0.4l-1.4,0.6l-3.2,0.4l-3,0.7l-1.6,1.5l0.7,1.5l0.3,1.7l-1.4,1.4l0.1,1.3l-0.8,1.2l-2.7-0.1
		l1.1,2.2l-1.8,0.9l-1.2,2l0.1,2l-1.1,0.9l-1-0.3l-2.1,0.4l-0.3,0.9h-2.1l-1.6,1.8l-0.1,2.8l-3.7,1.3l-2-0.3l-0.6,0.7l-1.7-0.4
		l-2.8,0.5l-4.7-1.6l2.5-2.9l-0.2-2.1l-2.1-0.6l-0.2-2.1l-0.9-2.6l1.2-1.8l-1.2-0.5l0.8-2.5L692.7,381.4z"/>
	<path id="AL" class="st0" d="M578.8,359.2l-0.3,1.3l0.4,1.6l1.2,0.9l-0.1,1l-0.9,0.5l-0.2,1.2l-1.3,1.8l-0.5-0.2l-0.1-0.8l-1.6-1.2
		l-0.2-1.8l0.2-2.5l0.4-1.2l-0.5-0.6l-0.2-1.2l1.2-1.9l0.2,0.7l0.8-0.3l0.6,1l0.7,0.4L578.8,359.2z"/>
	<path id="AM" class="st0" d="M643.3,362l3.9-0.6l0.6,1l1.1,0.6l-0.6,0.9l1.5,1.3l-0.8,1.2l1.2,1l1.3,0.6l0.1,2.5l-1,0.1l-1.1-2.1
		l0-0.6l-1.2,0l-0.8-1l-0.6,0.1l-1.1-1.1l-2.1-0.9l0.3-1.8L643.3,362z"/>
	<path id="AO" class="st0" d="M566.9,504.3l0.7,2.1l0.8,1.7l0.6,0.9l1.1,1.5l1.8-0.2l0.9-0.4l1.5,0.4l0.4-0.7l0.7-1.6l1.7-0.1
		l0.2-0.5l1.4,0l-0.2,1l3.4,0l0,1.8l0.6,1.1l-0.4,1.7l0.2,1.7l0.9,1l-0.2,3.4l0.7-0.3l1.2,0.1l1.7-0.4l1.3,0.2l0.3,0.9l-0.3,1.4
		l0.5,1.3l-0.4,1.1l0.2,1l-5.8,0l-0.1,9.2l1.9,2.4l1.8,1.8l-5.2,1.2l-6.8-0.4l-1.9-1.4l-11.4,0.1l-0.4,0.2l-1.7-1.3l-1.8-0.1
		l-1.7,0.5l-1.3,0.6l-0.3-1.8l0.4-2.5l1-2.6l0.2-1.2l0.9-2.6l0.7-1.2l1.6-1.9l0.9-1.3l0.3-2.1l-0.2-1.6l-0.8-1l-0.8-1.7l-0.7-1.7
		l0.2-0.6l0.9-1.1l-0.8-2.7l-0.6-1.9l-1.4-1.8l0.3-0.5l1.2-0.4l0.8,0l1-0.3L566.9,504.3z M555.9,503.8l-0.7,0.3l-0.8-2.1l1.1-1.2
		l0.8-0.5l1,1l-1,0.6l-0.5,0.7L555.9,503.8z"/>
	<path id="AR" class="st0" d="M337.4,673.4l-2.7,0.2l-1.4-1.7l-1.7-0.1h-3v-10.6l1.1,2.2l1.4,3.5l3.6,2.9l3.9,1.2L337.4,673.4z
		 M338.9,551l1.6,2.2l1.1-2.4l3.2,0.1l0.5,0.6l5.1,4.9l2.3,0.5l3.4,2.3l2.9,1.2l0.4,1.4l-2.8,4.7l2.8,0.8l3.1,0.5l2.2-0.5l2.5-2.4
		l0.5-2.7l1.4-0.6l1.4,1.8l-0.1,2.5l-2.4,1.7l-1.9,1.3l-3.2,3.1l-3.7,4.4l-0.7,2.6l-0.8,3.4l0,3.3l-0.6,0.7l-0.2,2.2l-0.2,1.8
		l3.6,2.9l-0.4,2.4l1.8,1.5l-0.1,1.7l-2.7,4.5l-4.2,1.9l-5.6,0.8l-3.1-0.4l0.6,2.2l-0.6,2.7l0.5,1.8l-1.7,1.3l-2.9,0.5l-2.7-1.3
		l-1.1,1l0.4,3.7l1.9,1.1l1.5-1.2l0.8,2l-2.6,1.2l-2.2,2.4l-0.4,3.9l-0.7,2.1l-2.6,0l-2.2,2l-0.8,3l2.8,3l2.7,0.8l-1,3.7l-3.3,2.4
		l-1.8,5l-2.6,1.7l-1.1,2.1l0.9,4.6l1.9,2.6l-1.2-0.2l-2.6-0.7l-6.8-0.6l-1.2-2.6l0-3.3l-1.9,0.3l-1-1.6l-0.2-4.6l2.1-1.9l0.9-2.7
		l-0.3-2.1l1.5-3.5l1-5.3l-0.3-2.3l1.2-0.8l-0.3-1.5l-1.3-0.8l0.9-1.6l-1.3-1.5l-0.6-4.4l1.1-0.8l-0.5-4.5l0.7-3.8l0.8-3.2l1.7-1.3
		l-0.9-3.5l0-3.2l2.1-2.3l-0.1-2.9l1.6-3.3l0-3.1l-0.7-0.6l-1.3-5.7l1.7-3.3l-0.3-3.1l1-2.9l1.8-3l2-2l-0.8-1.2l0.6-1l-0.1-5.1
		l3-1.5l1-3.2L333,553l2.3-2.7L338.9,551z"/>
	<path id="AT" class="st0" d="M568.7,334.4l-0.2,1.7l-1.6,0l0.5,0.9l-0.9,2.6l-0.5,0.7l-2.5,0.1l-1.4,0.9l-2.3-0.3l-4-1.1l-0.6-1.4
		l-2.8,0.7l-0.3,0.8l-1.7-0.6l-1.4-0.1l-1.3-0.7l0.4-1l-0.1-0.7l0.8-0.2l1.4,1.1l0.4-1.1l2.5,0.2l2-0.7l1.3,0.1l0.9,0.8l0.3-0.7
		l-0.4-2.7l1-0.5l1-1.9l2.1,1.4l1.6-1.7l1-0.3l2.2,1.3l1.3-0.2l1.3,0.8l-0.2,0.5L568.7,334.4z"/>
	<path id="AU" class="st0" d="M928.8,612.7l2.7,1.3l1.5-0.5l2.2-0.7l1.7,0.2l0.2,4.4l-1,1.3l-0.3,3.1l-1-1l-2,2.7l-0.6-0.2l-1.7-0.1
		l-1.7-3.3l-0.4-2.5l-1.6-3.2l0.1-1.7L928.8,612.7z M923.6,526.6l1,2.2l1.8-1.1l0.9,1.2l1.3,1.1l-0.3,1.3l0.6,2.5l0.4,1.5l0.7,0.4
		l0.8,2.5l-0.3,1.5l0.9,2l3,1.5l2,1.4l1.9,1.3l-0.4,0.7l1.6,1.9l1.1,3.2l1.1-0.7l1.1,1.3l0.7-0.5l0.5,3.2l2,1.9l1.3,1.2l2.2,2.5
		l0.8,2.5l0.1,1.8l-0.2,1.9l1.3,2.7l-0.2,2.8l-0.5,1.5l-0.8,2.9l0.1,1.9l-0.5,2.3l-1.2,3l-2.1,1.6l-1,2.6l-0.9,1.7l-0.8,2.9
		l-1.1,1.7l-0.7,2.6l-0.4,2.4l0.1,1.1l-1.6,1.2l-3.1,0.1l-2.6,1.5l-1.3,1.4l-1.7,1.5l-2.3-1.6l-1.7-0.6l0.4-1.8l-1.5,0.7l-2.5,2.6
		l-2.4-1l-1.6-0.6l-1.6-0.2l-2.7-1l-1.8-2.2l-0.5-2.7l-0.7-1.8l-1.4-1.4l-2.7-0.4l0.9-1.7l-0.7-2.5l-1.4,2.3l-2.5,0.6l1.5-1.9l0.4-2
		l1.1-1.7l-0.2-2.5l-2.3,2.8l-1.8,1.2l-1.1,2.7l-2.2-1.4l0.1-1.8l-1.8-2.4l-1.5-1.2l0.5-0.8l-3.6-2l-2-0.1l-2.7-1.6l-5,0.3l-3.6,1.2
		l-3.2,1.1l-2.7-0.2l-3,1.7l-2.4,0.8l-0.5,1.8l-1,1.4l-2.4,0.1l-1.8,0.3l-2.5-0.6l-2,0.4l-1.9,0.2l-1.7,1.8l-0.8-0.2l-1.4,1
		l-1.3,1.1l-2-0.1h-1.9l-3-2.2l-1.5-0.6l0.1-1.9l1.4-0.5l0.5-0.8l-0.1-1.2l0.3-2.3l-0.3-2l-1.5-3.3l-0.5-1.8l0.1-1.8l-1.1-2.1
		l-0.1-0.9l-1.2-1.3l-0.3-2.5l-1.6-2.5l-0.4-1.3l1.2,1.3l-1-2.9l1.4,0.9l0.8,1.2l0-1.6l-1.4-2.4l-0.3-1L839,558l0.3-1.8l0.6-0.8
		l0.4-1.5l-0.3-1.8l1.2-2.2l0.2,2.3l1.2-2.1l2.3-1l1.4-1.3l2.1-1.1l1.3-0.2l0.8,0.4l2.2-1.1l1.7-0.3l0.4-0.7l0.7-0.3l1.5,0.1l3-0.9
		l1.5-1.3l0.7-1.6l1.6-1.5l0.1-1.2l0.1-1.6l2-2.5l1.2,2.5l1.2-0.6l-1-1.4l0.9-1.4l1.2,0.6l0.3-2.2l1.5-1.4l0.7-1.1l1.4-0.5l0-0.8
		l1.2,0.3l0-0.7l1.2-0.4l1.4-0.4l2.1,1.3l1.6,1.7l1.8,0l1.8,0.3l-0.6-1.6l1.3-2.3l1.3-0.8l-0.4-0.7l1.2-1.6l1.7-1l1.4,0.3l2.4-0.5
		l0-1.5l-2-0.9l1.5-0.4l1.9,0.7l1.5,1.2l2.4,0.7l0.8-0.3l1.7,0.9l1.6-0.8l1,0.2l0.7-0.5l1.3,1.4l-0.8,1.5l-1.1,1.2l-1,0.1l0.3,1.1
		l-0.8,1.4l-1,1.4l0.2,0.8l2.2,1.6l2.2,0.9l1.4,1l2,1.7h0.8l1.5,0.8l0.4,0.9l2.7,1l1.8-1l0.5-1.6l0.6-1.3l0.3-1.6l0.8-2.3l-0.4-1.4
		l0.2-0.8l-0.3-1.6l0.4-2.2l0.5-0.6l-0.4-1l0.7-1.5l0.5-1.6l0.1-0.8l1-1.1l0.8,1.4l0.2,1.8l0.7,0.3l0.1,1.2l1,1.5l0.2,1.6
		L923.6,526.6z"/>
	<path id="AZ" class="st0" d="M647.3,367l0.8,1l1.2,0l0,0.6l1.1,2.1l-1.9-0.5l-1.4-1.7l-0.4-1.4L647.3,367z M653.9,361.6l1.2,0.2
		l0.5-1l1.7-1.5l1.5,2l1.4,2.6l1.3,0.2l0.9,1l-2.3,0.3l-0.5,2.8l-0.5,1.3l-1,0.8l0.1,1.8l-0.7,0.2l-1.8-1.9l1-1.8l-0.8-1.1l-1,0.3
		l-3.3,2.7l-0.1-2.5l-1.3-0.6l-1.2-1l0.8-1.2l-1.5-1.3l0.6-0.9l-1.1-0.6l-0.6-1l0.7-0.6l2.1,1.1l1.5,0.2l0.4-0.4l-1.4-2l0.7-0.5
		l0.8,0.1L653.9,361.6z"/>
	<path id="BA" class="st0" d="M574.4,347.6l1,0l-0.7,1.7l1.4,1.5l-0.4,1.8l-0.7,0.2l-0.5,0.4l-0.9,0.9l-0.4,2.1l-2.5-1.4l-1.1-1.6
		l-1.1-0.8l-1.3-1.5l-0.6-1.2l-1.4-1.8l0.6-1.6l1,0.9l0.6-0.8l1.3-0.1l2.4,0.7l1.9-0.1L574.4,347.6z"/>
	<path id="BD" class="st0" d="M780.9,424.9l-0.1,2.1l-1-0.5l0.2,2.4l-0.8-1.6l-0.2-1.5l-0.5-1.4l-1.2-1.8l-2.6-0.1l0.3,1.2l-0.9,1.7
		l-1.2-0.6l-0.4,0.5l-0.8-0.3l-1.1-0.3l-0.4-2.5l-1-2.3l0.5-1.8l-1.7-0.8l0.6-1.1l1.8-1.1l-2-1.6l1-2.1l2.2,1.3l1.3,0.2l0.2,2.1
		l2.7,0.4l2.6,0l1.6,0.5l-1.3,2.6l-1.3,0.2l-0.9,1.7l1.5,1.6l0.5-1.9l0.8,0L780.9,424.9z"/>
	<path id="BE" class="st0" d="M530.4,320.4l2.1,0.4l2.6-0.9l1.8,2l1.5,1l-0.3,3l-0.7,0.2l-0.3,2.4l-2.5-2l-1.4,0.3l-2-2.1l-1.3-1.8
		l-1.3-0.1l-0.4-1.6L530.4,320.4z"/>
	<path id="BF" class="st0" d="M513.2,460.9l-1.9-0.7l-1.3,0.1l-1,0.7l-1.3-0.6l-0.5-0.9l-1.3-0.6l-0.2-1.6l0.8-1.2l-0.1-1l2.2-2.4
		l0.4-2l0.8-0.7l1.4,0.4l1.2-0.6l0.4-0.7l2.2-1.3l0.5-0.9l2.6-1.2l1.5-0.4l0.7,0.5l1.8,0l-0.2,1.4l0.4,1.3l1.6,1.9l0.1,1.4l3.2,0.6
		l-0.1,2l-0.6,0.9l-1.4,0.3l-0.6,1.2l-1,0.3l-2.5-0.1l-1.3-0.2l-0.9,0.5l-1.2-0.2l-4.9,0.1l-0.1,1.6L513.2,460.9z"/>
	<path id="BG" class="st0" d="M584.6,350.1l0.8,1.6l1.1-0.3l2.2,0.6l4.1,0.2l1.4-1l3.3-0.9l2,1.4l1.7,0.4l-1.5,1.6l-1,2.7l0.9,2.2
		l-2.4-0.5l-2.9,1.2l0,1.9l-2.5,0.4l-2-1.3l-2.2,1l-2.1-0.1l-0.2-2.5l-1.4-1.2l0.5-0.5l-0.3-0.4l0.5-1.2l1.1-1.2l-1.4-1.7l-0.2-1.4
		L584.6,350.1z"/>
	<path id="BI" class="st0" d="M603.3,500.5l-0.2-3.4l-0.7-1.3l1.7,0.2l0.9-1.6l1.5,0.2l0.2,1.1l0.6,0.6l0,0.9l-0.7,0.6l-1.1,1.5
		l-1,1L603.3,500.5z"/>
	<path id="BJ" class="st0" d="M528.6,470.4l-2.3,0.3l-0.7-1.9l0.1-6.5l-0.6-0.6l-0.1-1.4l-1-1l-0.8-0.8l0.4-1.5l1-0.3l0.6-1.2
		l1.4-0.3l0.6-0.9l0.9-0.8l1,0l2.1,1.6l-0.1,1l0.6,1.7l-0.5,1.1l0.3,0.8l-1.4,1.8l-0.9,0.9l-0.5,1.8l0.1,1.8L528.6,470.4z"/>
	<path id="BN" class="st0" d="M841.3,475.3l1.1-1l2.4-1.5l-0.1,1.4l-0.2,1.8l-1.3-0.1l-0.6,0.9L841.3,475.3z"/>
	<path id="BO" class="st0" d="M344.9,550.9l-3.2-0.1l-1.1,2.4l-1.6-2.2l-3.7-0.7l-2.3,2.7l-2,0.4l-1.1-4.2l-1.5-3.3l0.9-2.9
		l-1.5-1.2l-0.4-2.1l-1.4-2l1.8-3.1l-1.2-2.4l0.6-1l-0.5-1.1l1.1-1.4l0.1-2.4l0.1-2l0.6-1l-2.4-4.6l2.1,0.2l1.4-0.1l0.6-0.9l2.5-1.1
		l1.5-1.1l3.7-0.5l-0.3,2.1l0.3,1.1l-0.2,1.9l3.1,2.5l3.1,0.5l1.1,1.1l1.9,0.6l1.2,0.8l1.8,0l1.6,0.9l0.1,1.7l0.5,0.8l0,1.2l-0.8,0
		l1.1,3.4l5.4,0.1l-0.4,1.7l0.3,1.2l1.5,0.8l0.7,1.8l-0.5,2.3l-0.8,1.3l0.3,1.7l-0.9,0.6l0-0.9l-2.6-1.5l-2.6,0l-4.9,0.9l-1.3,2.6
		l-0.1,1.6l-1.1,3.6L344.9,550.9z"/>
	<path id="BR" class="st0" d="M359.5,576.3l3.7-4.4l3.2-3.1l1.9-1.3l2.4-1.7l0.1-2.5l-1.4-1.8l-1.4,0.6l0.6-1.8l0.4-1.8v-1.7l-1-0.5
		l-1.1,0.5l-1-0.1l-0.3-1.2l-0.3-2.8l-0.5-0.9l-1.9-0.8l-1.1,0.6l-3-0.6l0.2-4.1l-0.8-1.7l0.9-0.6l-0.3-1.7l0.8-1.3l0.5-2.3
		l-0.7-1.8l-1.5-0.8l-0.3-1.2l0.4-1.7l-5.4-0.1l-1.1-3.4l0.8,0l0-1.2l-0.5-0.8l-0.1-1.7l-1.6-0.9l-1.8,0l-1.2-0.8l-1.9-0.6l-1.1-1.1
		l-3.1-0.5l-3.1-2.5l0.2-1.9l-0.3-1.1l0.3-2.1l-3.7,0.5l-1.5,1.1l-2.5,1.1l-0.6,0.9l-1.4,0.1l-2.1-0.2l-1.6,0.5l-1.3-0.3l0.2-4.3
		l-2.3,1.7l-2.5-0.1l-1.1-1.5l-1.9-0.2l0.6-1.2l-1.6-1.7l-1.2-2.5l0.7-0.5v-1.2l1.7-0.8l-0.3-1.5l0.7-1l0.2-1.3l3.2-1.9l2.3-0.5
		l0.4-0.4l2.5,0.1l1.3-7.6l0.1-1.2l-0.4-1.6l-1.2-1l0-2l1.6-0.5l0.6,0.3l0.1-1.1l-1.6-0.3l0-1.7l5.5,0.1l0.9-1l0.8,0.9l0.5,1.6
		l0.5-0.3l1.6,1.5l2.2-0.2l0.5-0.9l2.1-0.6l1.2-0.4l0.3-1.2l2-0.8l-0.2-0.6l-2.4-0.2l-0.4-1.8l0.1-1.9l-1.2-0.7l0.5-0.3l2.1,0.4
		l2.2,0.7l0.8-0.7l2-0.4l3.1-1l1-1.1l-0.4-0.8l1.5-0.1l0.7,0.6l-0.4,1.2l1,0.4l0.6,1.3l-0.8,1l-0.5,2.4l0.7,1.4l0.2,1.3l1.7,1.3
		l1.4,0.1l0.3-0.5l0.9-0.1l1.3-0.5l0.9-0.7l1.6,0.2l0.7-0.1l1.5,0.2l0.2-0.6l-0.5-0.5l0.3-0.8l1.1,0.2l1.3-0.3l1.6,0.6l1.2,0.6
		l0.9-0.8l0.6,0.1l0.4,0.8l1.3-0.2l1.1-1.1l0.9-2.1l1.7-2.6l1-0.1l0.7,1.5l1.6,4.9l1.5,0.5l0.1,1.9l-2.1,2.3l0.9,0.8l5,0.4l0.1,2.8
		l2.1-1.8l3.5,1l4.6,1.7l1.4,1.6l-0.5,1.5l3.3-0.9l5.5,1.5l4.2-0.1l4.1,2.3l3.6,3.1l2.2,0.8l2.4,0.1l1,0.9l1,3.6l0.5,1.7l-1.1,4.7
		l-1.4,1.8l-3.9,3.9l-1.8,3.2l-2.1,2.5l-0.7,0.1l-0.8,2.1l0.2,5.4l-0.8,4.5l-0.3,1.9l-0.9,1.2l-0.5,3.9l-2.8,3.9l-0.5,3.1l-2.3,1.3
		l-0.7,1.8l-3,0l-4.4,1.2l-2,1.3l-3.1,0.9l-3.3,2.4l-2.4,3.1l-0.4,2.3l0.5,1.7l-0.5,3.2l-0.6,1.5l-2,1.8l-3.1,5.7l-2.5,2.6l-1.9,1.5
		l-1.3,3.2l-1.9,1.9l-0.8-1.9l1.2-1.6l-1.6-2.2l-2.2-1.8l-2.9-2.1l-1,0.1l-2.8-2.5L359.5,576.3z"/>
	<path id="BS" class="st0" d="M303.7,419.7l-0.7,0.1l-0.7-1.8l-1.1-0.9l0.6-2l0.8,0.1l1,2.5L303.7,419.7z M302.9,411l-3.1,0.5
		l-0.2-1.1l1.3-0.2l1.9,0.1L302.9,411z M305.2,411l-0.5,2.2l-0.5-0.4l0-1.6L303,410l0-0.4L305.2,411z"/>
	<path id="BT" class="st0" d="M778.2,407.3l1.1,1l-0.2,1.9l-2.3,0.1l-2.4-0.2l-1.8,0.5l-2.5-1.2l0-0.6l1.8-2.3l1.5-0.8l2,0.7
		l1.5,0.1L778.2,407.3z"/>
	<path id="BW" class="st0" d="M593,540.5l0.6,0.5l0.9,1.7l3.2,3.2l1.2,0.3l0,1l0.8,1.9l2.2,0.5l1.8,1.4l-4,2.2l-2.5,2.3l-0.9,2
		l-0.8,1.1l-1.5,0.2l-0.5,1.5l-0.3,1l-1.8,0.7L589,562l-1.3-0.9l-1.2-0.4l-1.4,0.7l-0.7,1.5l-1.3,0.9l-1.4,1.4l-2,0.3l-0.6-1.1
		l0.3-1.9l-1.7-2.9l-0.8-0.5v-8.9l2.8-0.1l0.1-10.6l2.1-0.1l4.3-1l1.1,1.2l1.8-1.2l0.9,0l1.6-0.7l0.5,0.2L593,540.5z"/>
	<path id="BY" class="st0" d="M586.9,308.6l2.7,0l3-1.8l0.7-2.7l2.3-1.6l-0.3-2.2l1.7-0.8l3-1.9l3,1.3l0.4,1.2l1.5-0.6l2.7,1.2
		l0.3,2.3l-0.6,1.3l1.8,3.1l1.1,0.9l-0.2,0.9l1.9,0.8l0.8,1.2l-1.1,1l-2.3-0.2l-0.5,0.4l0.7,1.5l0.7,2.9l-2.4,0.3l-0.9,1l-0.2,2.3
		l-1.1-0.4l-2.5,0.2l-0.7-1l-1,0.8l-1-0.6l-2.2-0.1l-3.1-1.1l-2.8-0.4l-2.2,0.1l-1.5,1.2l-1.3,0.2l0-2l-0.9-2.1l1.7-0.9l0-1.9
		l-0.8-1.8L586.9,308.6z"/>
	<path id="BZ" class="st0" d="M271.1,437.5l0-0.4l0.3-0.1l0.5,0.3l1-1.8l0.5,0l0,0.4l0.5,0l0,0.8l-0.5,1.3l0.2,0.5l-0.3,1l0.2,0.3
		l-0.3,1.5l-0.5,0.8l-0.5,0.1l-0.6,1h-0.8l0.2-3.3L271.1,437.5z"/>
	<path id="CA" class="st0" d="M244.8,120.8l-0.2-5.9l3.6,0.6l1.6,1l3.4,4.9l-0.8,5l-4.1,2.8l-2.3-3.1L244.8,120.8z M258,133.4
		l0.3-1.5l-2-2.4l-5.7-0.2l0.8,3.7l5.3,0.8L258,133.4z M294.3,180.4l3.1,5.1l0.8,0.6l3.1-1.3l3,0.2l3,0.3l-0.2-2.6l-4.8-5.4
		l-6.4-1.1l-1.4,0.7L294.3,180.4z M228.9,117.7l-2.7,4.2l6.2,0.5l4.6,4.4l4.6,1.5l-1.1-5.7l-2.1-6.7l-7.6-5.3l-5.5-2l0.2,5.7
		L228.9,117.7z M254.8,107.4l5.1-0.1l-2.2,4l0,5.3l3,5.8l5.8,1.8l5-1l5.2-10.7l3.9-4.4l-3.4-5l-2.2-10.7l-4.6-3.2l-4.7-3.7l-3.6-9.6
		l-6.5,0.9l1.2,4.2l-2.9,1.2l-1.9,5.3l-1.9,7.5l1.8,7.3L254.8,107.4z M191,160.8l3.9,1.9l12.7-1.3l-5.8,4.8l0.4,3.4l4.3-0.2l7.1-4.6
		l9.5-1.7l1.7-5.2l-0.5-5.6l-2.9-0.5l-2.5,1.9l-1.1-4.1l-0.9-5.7l-2.9-1.4l-2.6,4.4l4,11.1l-4.9-0.9l-5-6.8l-7.9-4l-2.6,3.3
		L191,160.8z M213.6,118.7l-3.6-2.9l-1.5-0.7l-2.9,4.3l-0.1,2l4.7,0L213.6,118.7z M212.1,131.1l0.9-4l-3.9-2.1l-4.1,1.4l-2.3,4.3
		l4.2,4.2L212.1,131.1z M241.2,164.3l4.6-1.1l1.3-8.2L247,149l-2.1-5.6l-0.2,1.6l-3.9-0.7l-4.2,4.1l-3-0.4l0.2,8.9l4.6-0.9l-0.1,6.5
		L241.2,164.3z M237.9,209.9l-5.1-3.9l-4.7-4.2l-0.9-6.2l-1.8-8.9l-3.1-3.8l-2.8-1.6l-2.5,1.4l2,9.6l-1.4,3.7l-2.3-9l-2.6-3.1
		l-3.2,4.8l-3.9-4.8l-6.2,2.9l1.4-4.5l-2.9-1.9l-7.5,5.8l-1.9,3.7l-2.4,6.8l4.9,2.3l4.3-0.1l-6.5,3.5l1.5,3.1l4,0.2l6-0.7l5.4,2
		l-3.7,1.4l-3.9-0.4l-4.3,1.4l-1.9,0.9l3.4,6.4l2.5-0.9l3.8,2.1l1.5,3.6l5-0.7l7.1-1.2l5.3-2.6l3.3-0.5l4.8,2.1l5.1,1.2l0.9-2.9
		l-1.8-3.1l4.6-0.6L237.9,209.9z M245.7,209l-2,3.5l-2.5,2.5l3.8,3.5l2.3-0.9l3.8,2.4l1.7-2.7l-1.7-3l-0.8-1.5l-1.7-1.5L245.7,209z
		 M228.1,179.5l-2.1-2.2l-3.8,0.4l-0.9,1.4l4.4,6.8L228.1,179.5z M256.8,192.7l3-6.9l3.3-1.9l4.2-8.7l-5.4-2.5l-5.8-0.4l-2.8,2.8
		l-1.5,4.2l0,4.8l1.8,8.2L256.8,192.7z M273.9,169.7l5.8-0.2l8-1.6l3.6,1.3l4.2-2.3l1.8-2.8l-0.6-4.5l-3-4.2l-4.6-0.8l-5.7,1
		l-4.5,2.4l-4.1-0.9l-3.8-0.5l-1.8-2.7l-3.2-2.6l0.6-4.4l-2.4-4l-5.5,0l-3.1-4l-5.8-0.8l-1.1,5.1l3.2,3.7l5.8,1.4l2.8,5.1l0.3,5.6
		l1,6l7.5,3.4L273.9,169.7z M184.9,151.4l5.2-5.1l2.6-0.6l2.2-4.2l0.4-9.8l-3.9,1.9l-4.3-0.2l-5.8,8.2l-4.8,9l3.8,2.5L184.9,151.4z
		 M257.1,167.6l1.5-4.1l-1-3.5l-2.4-3.9l-4,3l-1.5,4.9l3.4,2.8L257.1,167.6z M248.8,179l-0.7-2.9l-5,1.3l-3.3-2.1l-3.3,4.8l3.1,6.3
		l-5.7-1.2l-0.1,3l7,7.1l1.9,3.4l2.7,0.7l4.6-3.4l0.5-8.2l-4.2-4.1L248.8,179z M174.8,332.8l-1.2-2.3l-2.8-1.8l-1.4-2l-0.9-1.5
		l-2.6-0.5l-1.7-0.7l-2.9-1l-0.2,1l1.1,2.4l2.9,0.8l0.5,1.2l2.5,1.5l0.8,1.5l4.6,1.9L174.8,332.8z M296.5,255.1l-2-2.1l-2.1,0.5
		l-0.2-3.1l-3.2-2l-3.1-2.3l-1.6-1.8l-1.4,1l-0.5-3l-2-0.6l-1,6.1l-0.4,5.1l-2.4,3.1l3.8-0.6l1,3.6l4-3.2l2.8-3.4l1.6,2.9l4.4,1.5
		L296.5,255.1z M175.9,202.6l7.4-4.2v-3.9l3.5-6.4l6.9-6.7l3.5-2.5l-3-4.2l-2.7-2.9l-7.2-0.6l-4-2.2l-9.5,1.6l2.7,6.2l-2.4,6.4
		l-1.9,6.9l-1.2,3.9l6.5,4.7L175.9,202.6z M310.2,229.9l0.3-1l0-3.2l-2.2-2.1l-2.6,1.1l-1.2,4.2l0.7,3.6l3.1-0.4L310.2,229.9z
		 M334,237.4l4.4,6.6l3.5,2.9l4.9-7.9l0.9-4.9l-4.4-0.5l-4-6.7l-4.5-1.6l-6.6-5l5.1-3.6l-2.6-7.5l-2.4-3.4l-6.8-3.4l-2.9-5.6l-5.2,2
		L313,195l-3.9-4.3l-6.2-4.7l-2.6,3.7l-5.6,2.7l0.4-6.1l-4.8-10.1l-7.1,4.1l-2.6,7.7l-2.2-5.9l2.1-6.4l-7.2,2.6l-2.9,4l-2.1,8.4
		l0.9,9.1l4,0l-2.9,3.9l2.3,3l4.5,1.2l5.9,2.4l10.2,1.8l5.1-1l1.5-2.4l2.2,2.8l2.5,0.5l3,5l-1.8,2l5.7,2.6l4.3,3.7l1.1,2.6l0.8,3.2
		l-3.6,6.9l-1,3.4l0.9,2.4l-5.8,0.9l-5.3,0.1l-1.9,4.9l2.4,2.2l8.1-1l0-1.9l4.1,3.1l4.2,3.3l-1,1.8l3.4,3l6,3.5l7.6,2.4l-0.5-2.1
		l-2.9-3.7l-4-5.4l7,5l3.5,1.7l1-4.4l-1.8-6.3l-1.2-1.7l-3.8-3l-3-3.9l0.4-3.9L334,237.4z M268.2,75.9l2.3,7.3l5,5.9l9.8-1.1l6.3,2
		l-4.4,6.1l-2.2-1.8l-7.7-0.7l1.2,8.3l4,6l-0.8,5.2l-5,3.5l-2.3,5.5l4.6,2.7l3.8,8.6l-7.5-5.7l-1.7,0.9l1.4,9.4l-5.2,2.8l0.4,5.9
		l5.3,0.6l4.2,1.4l8.2-1.8l7.3,3.3l7.5-7.2l-0.1-3l-4.8,0.5l-0.4-2.8l3.9-3.8l1.3-5.2l4.3-3.8l2.7-4.8l-2.3-7.1l1.9-2.7l-3.9-1.9
		l8.5-1.6l1.8-3.2l5.8-2.6l4.8-13.5l4.6-4.9l6.6-11.1l-6.1,0.1l2.5-4.3l6.8-4l6.8-8.9l0.1-5.7l-5.1-6l-6-2.9l-7.5-1.8l-6.1-1.5
		l-6.1-1.5l-8.1,4l-1.5-2.5l-8.6,1l-5,2.6l-3.7,3.6l-2.1,11.7l-3.1-6l-3.5-1.1l-4.1,8l-5.5,3.3l-3.3,0.7l-4.2,3.8l0.6,6.7
		L268.2,75.9z M342.6,340.9l-1-2l-1.1,1.3l0.7,1.4l3.6,1.7l1-0.3l1.4-1.7l-2.6,0.1L342.6,340.9z M285.6,263l0.6,1.6l2,0.1l3.3-3.3
		l0.1-1.2l-3.9-0.1L285.6,263z M347.7,329.4l-2.9-1.8l-3.7-1.1l-1,0.4l2.6,2l3.6,1.3l1.4-0.1L347.7,329.4z M372.6,334.2l-0.4-2.2
		l-2,0.7l0.9-3.1l-2.8-1.3l-1.3,1l-2.5-1.2l1-1.5l-1.9-0.9l-1.8,1.5l1.9-3.8l1.5-2.8l0.5-1.2l-1.3-0.2l-2.4,1.5l-1.7,2.5l-2.9,6.9
		l-2.4,2.6l1.2,1.1l-1.8,1.5l0.4,1.2l5.4,0.1l3-0.2l2.7,1l-2,1.9l1.7,0.1l3.2-3.6l0.8,0.5l-0.6,3.4l1.8,0.8l1.3-0.1l1.2-3.6
		L372.6,334.2z M351.4,339l-2.8,4.6l-4.6,0.6l-3.6-2l-0.9-3.1l-0.9-4.5l2.6-2.8l-2.5-2.1l-4.2,0.4l-5.9,3.5l-4.5,5.5l-2.4,0.7
		l3.2-3.8l4-5.6l3.6-1.9l2.4-3.1l2.9-0.3l4.2,0l6,0.9l4.7-0.7l3.5-3.6l4.6-1.6l2-1.6l2-1.7l-0.2-5.2l-1.1-1.8l-2.2-0.6l-1.1-4
		l-1.8-1.5l-4.5-1.3l-2.5-2.8l-3.7-2.8l1.1-3.2l-3.1-6.3l-3.6-6.9l-2.2-5l-1.9,2.6l-2.7,6l-4.1,3l-2-3.2l-2.6-0.9l-0.9-7l0.1-4.8
		l-5-0.4l-0.9-2.3l-3.5-3.4l-2.6-2l-2.3,1.6l-2.9-0.6l-4.8-1.6l-2,1.4l0.9,9.2l1.2,5.1l-3.3,5.8l3.4,4l1.9,4.4l0.2,3.4l-1.5,3.5
		l-3.2,3.5l-4.5,2.3l2,2.5l1.5,7.4l-1.5,4.7L297,321l-4.2-4.3l-2-5.2l-0.9-4.8l0.5-4.2l-3.1-0.5l-4.6-0.3l-3-2.1l-3.5-1.4l-2-2.4
		l-2.8-1.9l-5.2-2.2l-3.9,1l-1.3-4l-1.3-5l-4.1-0.9l0.1-6.4l1.1-4.5l3-6.6l3.4-4.9l3.3-0.8l0.2-4l2.2-2.7l4-0.4l3.2-4.4l0.8-2.9
		l2.7-5.7l0.8-3.5l2.9,2.1l3.9-1.1l5.5-5l0.4-3.5l-2-4l2.1-4.1l-0.2-3.9l-3.8-3.9l-4.1-1.2l-4-0.6l-0.1,8.7l-2,6.6l-2.9,5.3
		l-2.7-4.9l0.8-5.6l-3.4-5l-3.8,6.1l0-8l-5.2-1.6l2.5-4l-3.8-9.6l-2.8-3.9l-3.7-1.4l-3.3,6.4l-0.2,9.3l3.3,3.3l3,4.9l-1.3,7.7
		l-2.3-0.2l-1.8,5.9l0-7l-4.3-2.6l-2.5,1.3l0.3,4.7l-4.1-0.2l-4.4,1.2l-4.9-3.4l-3.1,0.6l-2.8-4.1l-2.3-1.8l-2.2,0.8l-3.4,0.4
		l-1.8,2.6l2.9,3.2l-3.1,3.7l-3-4.4l-2.4,1.3l-7.6,0.9l-5.1-1.6l3.9-3.7l-3.8-3.9l-2.8,0.5l-3.9-1.3l-6.6-2.9l-4.3-3.4l-3.4-0.5
		l-1.1,2.4l-3.4,1.3l-0.4-6.1l-3.7,5.5l-4.7-7.3l-1.9-0.9l-0.6,3.9l-2.1,1.9l-1.9-3.4l-4.6,2.1l-4.2,3.6l-4.2-1l-3.4,2.5l-2.5,3.3
		l-2.9-0.7l-4.4-3.8l-5.2-1.9l0,27.6l0,35.4l2.8,0.2l2.7,1.6l2,2.4l2.5,3.6l2.7-3l2.8-1.8l1.5,2.9l1.9,2.2l2.6,2.4l1.8,3.8l2.9,5.9
		l4.8,3.2l0.1,3.1l-1.6,2.4l0.1,2.5l3.4,3.5l0.5,3.8l3.6,2l-0.4,2.8l1.6,4l5.1,1.8l2,1.9l5.4,4.2l0.4,0h8h8.3h2.8h8.6h8.3h8.4h8.4
		h9.5h9.6h5.8l0-1.6l0.9,0l0.5,2.4l0.9,0.7l2,0.3l2.9,0.7l2.7,1.3l2.3-0.5l3.4,1.1l1.1-1.7l1.6-0.7l0.6-1l0.6-0.5l2.6,0.9l1.9,0.1
		l0.7,0.6l0.9,2.4l3.1,0.6l-0.5,1.2l1.1,1.2l-0.5,1.6l1.2,0.5l-0.6,1.4l0.8,0.1l0.5-0.6l0.6,0.9l2.1,0.5l2.1,0l2.3,0.4l2.5,0.8
		l0.9,1.3l1.8,3l-0.9,1.3l-2.3-0.5l-1.4-2.4l0.4,2.5l-1.3,2.2l0.1,1.8l-0.2,1.1l-1.8,1.3l-1.3,2.1l-0.6,1.3l1.5,0.2l2.1-1.2l1.2-1.1
		l0.8-0.2l1.5,0.4l0.8-0.6l1.4-0.5l2.4-0.5l0,0l0,0l-0.2-1.1l-0.1,0l-0.9,0.2l-1.1-0.4l0.8-1.3l0.9-0.5l2-0.6l2.4-0.5l1.2,0.7
		l0.8-0.9l0.9-0.5l0.6,0.3l0,0.1l2.9-2.7l1.3-0.7l4.3,0h5.2l0.3-1l0.9-0.2l1.2-0.6l1-1.8l0.9-3.1l2.1-3.1l0.9,1.1l1.9-0.7l1.2,1.2
		v5.5l1.8,2.2l3.1-0.5l4.5-0.1l-4.9,3.3l0.1,3.3l2.1,0.3l3.1-2.8l2.8-1.6l6.2-2.4l3.5-2.6l-1.8-1.5L351.4,339z M297.7,267.9l1.1-3.1
		l-0.7-1.2l-1.1-0.1l-1.1,1.8l-0.1,0.4l0.7,1.8L297.7,267.9z M155.1,304.3L155.1,304.3l1.6-2.4L155.1,304.3z M151.7,307.6L149,308
		l-1.3-0.6l-0.2,1.5l0.5,2.1l1.4,1.5l1,2.1l1.7,2.1l1.1,0l-2.4-3.7L151.7,307.6z"/>
	<path id="CD" class="st0" d="M607.5,478.1l-0.2,3.3l1.1,0.4l-0.9,1l-1.1,0.7l-1.1,1.5l-0.6,1.3l-0.2,2.2l-0.6,1.1l0,2.1l-0.8,0.8
		l-0.1,1.7l-0.4,0.2l-0.3,1.5l0.7,1.3l0.2,3.4l0.5,2.6l-0.3,1.5l0.6,1.6l1.6,1.6l1.5,3.6l-1.1-0.3l-3.8,0.5l-0.8,0.3l-0.8,1.8
		l0.6,1.2l-0.5,3.4l-0.4,2.8l0.8,0.5l2,1.1l0.8-0.5l0.2,3.1l-2.2,0l-1.2-1.6l-1-1.2l-2.2-0.4l-0.6-1.5l-1.7,0.9l-2.2-0.4l-0.9-1.3
		l-1.8-0.3l-1.3,0.1l-0.2-0.9l-1-0.1l-1.3-0.2l-1.7,0.4l-1.2-0.1l-0.7,0.3l0.2-3.4l-0.9-1l-0.2-1.7l0.4-1.7l-0.6-1.1l0-1.8l-3.4,0
		l0.2-1l-1.4,0l-0.2,0.5l-1.7,0.1l-0.7,1.6l-0.4,0.7l-1.5-0.4l-0.9,0.4l-1.9,0.2L569,509l-0.6-0.9l-0.8-1.7l-0.7-2.1l-8.3,0l-1,0.3
		l-0.8,0l-1.2,0.4l-0.4-0.9l0.7-0.3l0.1-1.2l0.5-0.7l1-0.6l0.7,0.3l1-1.1l1.5,0l0.2,0.8l1,0.5l1.6-1.8l1.6-1.4l0.7-0.9l-0.1-2.3
		l1.2-2.7l1.3-1.4l1.9-1.3l0.3-0.9l0.1-1l0.5-1l-0.1-1.6l0.3-2.5l0.5-1.7l0.8-1.5l0.2-1.7l0.2-1.9l1.1-1.4l1.5-0.9l2.3,0.9l1.8,1
		l2,0.3l2.1,0.5l0.8-1.7l0.4-0.2l1.3,0.3l3.1-1.4l1.1,0.6l0.9-0.1l0.4-0.7l1-0.2l2.1,0.3l1.8,0.1l0.9-0.3l1.7,2.3l1.3,0.3l0.8-0.5
		l1.3,0.2l1.6-0.6l0.7,1.2L607.5,478.1z"/>
	<path id="CF" class="st0" d="M563.9,467.2l2.3-0.2l0.5-0.7l0.5,0.1l0.7,0.6l3.5-1.1l1.2-1.1l1.5-1l-0.3-1l0.8-0.3l2.7,0.2l2.6-1.3
		l2-3.1l1.4-1.1l1.8-0.5l0.3,1.2l1.6,1.8v1.1l-0.5,1.2l0.2,0.9l1,0.8l2.1,1.2l1.5,1.1l0,0.9l1.9,1.5l1.2,1.2l0.7,1.7l2.1,1.1
		l0.5,0.9l-0.9,0.3l-1.8-0.1l-2.1-0.3l-1,0.2l-0.4,0.7l-0.9,0.1l-1.1-0.6l-3.1,1.4l-1.3-0.3l-0.4,0.2l-0.8,1.7l-2.1-0.5l-2-0.3
		l-1.8-1l-2.3-0.9l-1.5,0.9l-1.1,1.4l-0.2,1.9L571,478l-1.9-0.5l-1.7,1.5l-1.5,2.6l-0.3-0.8l-0.1-1.3l-1.3-0.9l-1-1.4l-0.2-1
		l-1.3-1.5l0.2-0.8l-0.3-1.2l0.2-2.2l0.7-0.5L563.9,467.2z"/>
	<path id="CG" class="st0" d="M557.5,501.2l-1-1l-0.8,0.5l-1.1,1.2l-2.3-2.9l2.1-1.5l-1-1.9l1-0.7l1.9-0.3l0.2-1.2l1.5,1.3l2.5,0.1
		l0.9-1.3l0.4-1.9l-0.3-2.2l-1.3-1.6l1.2-3.2l-0.7-0.5l-2.1,0.2l-0.8-1.4l0.2-1.2l3.5,0.1l2.3,0.7l2.2,0.7l0.2-1.5l1.5-2.6l1.7-1.5
		l1.9,0.5l1.8,0.2l-0.2,1.7l-0.8,1.5l-0.5,1.7l-0.3,2.5l0.1,1.6l-0.5,1l-0.1,1l-0.3,0.9l-1.9,1.3l-1.3,1.4l-1.2,2.7l0.1,2.3
		l-0.7,0.9l-1.6,1.4l-1.6,1.8l-1-0.5l-0.2-0.8l-1.5,0l-1,1.1L557.5,501.2z"/>
	<path id="CH" class="st0" d="M548,336.9l0.1,0.7l-0.4,1l1.3,0.7l1.4,0.1l-0.2,1.7l-1.2,0.7l-2.1-0.5l-0.6,1.6l-1.3,0.1l-0.5-0.6
		l-1.6,1.4l-1.3,0.2l-1.2-0.9l-1-1.8L538,342l0-1.8l2.1-2.3l-0.1-1.1l1.3,0.4l0.8-0.7l2.4,0l0.6-0.9L548,336.9z"/>
	<path id="CI" class="st0" d="M513.1,474l-1.3,0l-2-0.5l-1.8,0l-3.3,0.5l-1.9,0.8l-2.8,1l-0.5-0.1l0.2-2.3l0.3-0.4l-0.1-1.1
		l-1.2-1.2l-0.9-0.2l-0.8-0.8l0.6-1.2l-0.3-1.4l0.1-0.8h0.5l0.2-1.2l-0.2-0.5l0.3-0.4l1-0.3l-0.7-2.3l-0.6-1.2l0.2-1l0.6-0.2
		l0.4-0.3l0.8,0.4l2.2,0l0.5-0.8l0.5,0.1l0.8-0.3l0.4,1.2l0.6-0.4l1.2-0.4l1.3,0.6l0.5,0.9l1.3,0.6l1-0.7l1.3-0.1l1.9,0.7l0.7,4
		l-1.2,2.4l-0.7,3.2l1.2,2.4L513.1,474z"/>
	<path id="CL" class="st0" d="M328.6,661.3v10.6h3l1.7,0.1l-0.9,2l-2.4,1.5l-1.4-0.2l-1.7-0.4l-2-1.5l-2.9-0.7l-3.5-2.7l-2.9-2.6
		l-3.9-5.2l2.3,1l3.9,3.1l3.7,1.7l1.5-2.2l0.9-3.2l2.6-1.9L328.6,661.3z M329.8,549.2l1.1,4.2l2-0.4l0.3,0.8l-1,3.2l-3,1.5l0.1,5.1
		l-0.6,1l0.8,1.2l-2,2l-1.8,3l-1,2.9l0.3,3.1l-1.7,3.3l1.3,5.7l0.7,0.6l0,3.1l-1.6,3.3l0.1,2.9l-2.1,2.3l0,3.2l0.9,3.5l-1.7,1.3
		l-0.8,3.2l-0.7,3.8l0.5,4.5l-1.1,0.8l0.6,4.4l1.3,1.5l-0.9,1.6l1.3,0.8l0.3,1.5l-1.2,0.8l0.3,2.3l-1,5.3l-1.5,3.5l0.3,2.1l-0.9,2.7
		l-2.1,1.9l0.2,4.6l1,1.6l1.9-0.3l0,3.3l1.2,2.6l6.8,0.6l2.6,0.7l-2.5,0l-1.4,1.1l-2.5,1.7l-0.5,4.4l-1.2,0.1l-3.2-1.5l-3.2-3.2l0,0
		l-3.5-2.6l-0.9-2.9l0.8-2.6l-1.4-2.9l-0.4-7.3l1.2-4l3-3.2l-4.3-1.2l2.7-3.6l1-6.6l3.1,1.4l1.5-8l-1.9-1l-0.9,4.8l-1.8-0.5l0.9-5.4
		l1-6.8l1.3-2.5l-0.8-3.5l-0.2-4l1.2-0.1l1.7-5.6l1.9-5.4l1.2-5l-0.6-4.9l0.8-2.7l-0.3-4l1.6-3.9l0.5-6l0.9-6.4l0.9-6.8l-0.2-4.9
		l-0.6-4.2l1.4-0.8l0.8-1.5l1.4,2l0.4,2.1l1.5,1.2l-0.9,2.9L329.8,549.2z"/>
	<path id="CM" class="st0" d="M557.7,481.6l-0.4-0.1l-1.7,0.4l-1.7-0.4l-1.3,0.2l-4.6-0.1l0.4-2.2l-1.1-1.8l-1.3-0.5l-0.6-1.2
		l-0.7-0.4l0-0.8l0.7-2l1.3-2.7l0.8,0l1.7-1.6l1.1,0l1.6,1.1l1.9-0.9l0.3-1.2l0.6-1.1l0.4-1.4l1.5-1.2l0.6-2l0.6-0.6l0.4-1.5
		l0.7-1.8l2.4-2.2l0.2-0.9l0.3-0.5l-1.1-1.1l0.1-0.9l0.8-0.2l1.1,1.8l0.2,1.9l-0.1,1.9l1.5,2.6l-1.6,0l-0.8,0.2l-1.3-0.3l-0.6,1.3
		l1.7,1.6l1.2,0.5l0.4,1.2l0.9,1.9l-0.4,0.8l-1.4,2.8l-0.7,0.5l-0.2,2.2l0.3,1.2l-0.2,0.8l1.3,1.5l0.2,1l1,1.4l1.3,0.9l0.1,1.3
		l0.3,0.8l-0.2,1.5l-2.2-0.7l-2.3-0.7L557.7,481.6z"/>
	<path id="CN" class="st0" d="M830.5,434.9l-2.4,1.4l-2.3-0.9l-0.1-2.5l1.4-1.3l3.1-0.8l1.6,0.1l0.6,1.1l-1.2,1.3L830.5,434.9z
		 M879,327.4l4.9,1.4l3.3,3l1.1,4h4.3l2.4-1.6l4.6-1.2l-1.5,3.8l-1.1,1.5l-1,4.5l-1.9,3.9l-3.4-0.7l-2.4,1.4l0.7,3.4l-0.4,4.5
		l-1.4,0.1l0,1.9l-1.8-2.2l-1.1,2.1l-4.3,1.6l0.4,2l-2.4-0.1l-1.3-1.2l-1.9,2.6l-3.1,2l-2.3,2.4l-3.9,1.1l-2.1,1.7l-3,1l1.5-1.7
		l-0.6-1.4l2.2-2.5l-1.5-1.9l-2.4,1.3l-3.2,2.5l-1.7,2.3l-2.8,0.2l-1.4,1.7l1.5,2.4l2.3,0.6l0.1,1.6l2.2,1l3.1-2.5l2.5,1.4l1.8,0.1
		l0.5,1.8l-4,1l-1.3,1.9l-2.7,1.7l-1.4,2.4l3,1.9l1.1,3.3l1.7,3l1.9,2.5l0,2.4l-1.8,0.9l0.7,1.7l1.7,1l-0.4,2.6l-0.7,2.5l-1.6,0.3
		l-2,3.4l-2.3,4.1l-2.6,3.7l-3.9,2.8l-3.9,2.5l-3.2,0.4l-1.7,1.3l-1-1l-1.6,1.5l-3.9,1.5l-3,0.5l-1,3.1l-1.5,0.2l-0.7-2.2l0.7-1.2
		l-3.8-1l-1.3,0.5l-2.8-0.8l-1.3-1.2l0.4-1.7l-2.6-0.5l-1.3-1.1l-2.4,1.6l-2.7,0.4l-2.2,0l-1.5,0.7l-1.5,0.4l0.4,3.4l-1.5-0.1
		l-0.2-0.7l-0.1-1.2l-2.1,0.9l-1.2-0.5l-2.1-1.1l0.8-2.5l-1.8-0.6l-0.7-2.8l-3,0.5l0.3-3.6l2.7-2.6l0.1-2.6l-0.1-2.4l-1.2-0.8
		l-0.9-1.9l-1.6,0.2l-3-0.5l1-1.3l-1.3-2l-2,1.4l-2.4-0.8l-3.2,2l-2.5,2.4l-2.3,0.4l-1.2-0.9l-1.5-0.1l-2-0.7l-1.5,0.8l-1.8,2.3
		l-0.2-2.5l-1.7,0.7l-3.3-0.3l-3.2-0.7l-2.3-1.4l-2.2-0.6l-0.9-1.5l-1.6-0.5l-2.8-2.1l-2.2-1l-1.2,0.8l-3.9-2.3l-2.8-2.1l-0.8-3.6
		l2,0.4l0.1-1.7l-1.1-1.7l0.3-2.7l-3-4l-4.6-1.4l-0.8-2.7l-2.1-1.6l-0.5-1l-0.4-2l0.1-1.4l-1.7-0.8l-0.9,0.4l-0.7-3.3l0.8-0.8
		l-0.4-0.9l2.7-1.7l1.9-0.7l3,0.5l1.1-2.4l3.6-0.4l1-1.5l4.4-2l0.4-0.9l-0.2-2.2l1.9-1l-2.5-6.8l5.5-1.6l1.4-0.9l2-7.3l5.6,1.4
		l1.6-1.9l0.1-4.2l2.3-0.4l2.1-2.8l1.1-0.4l0.7,3l2.4,2.2l4,1.6l1.9,3.3l-1.1,4.7l1,1.7l3.3,0.7l3.8,0.5l3.4,2.5l1.7,0.4l1.3,3.6
		l1.7,2.3l3.1-0.1l5.8,0.9l3.7-0.5l2.8,0.6l4.2,2.3h3.4l1.2,1.2l3.3-2l4.5-1.3l4.2-0.1l3.3-1.3l2-2l2-1.3l-0.5-1.3l-0.9-1.5l1.5-2.5
		l1.6,0.4l2.9,0.8l2.8-2.1l4.3-1.5l2-2.7l2-1.2l4.1-0.5l2.2,0.5l0.3-1.5l-2.5-2.9l-2.2-1.3l-2.2,1.5l-2.8-0.6l-1.6,0.5l-0.7-1.7
		l2-4.2l1.4-3.2l3.4,1.6l4-2.7l0-1.9l2.5-4.7l1.6-1.5l0-2.5L858,314l2.3-2.3l3.5-0.8l3.7-0.1l4.2,1.4l2.5,1.7l1.7,4.6l1,1.9l1,2.7
		L879,327.4z"/>
	<path id="CO" class="st0" d="M309.7,488.3l-1.2-0.7l-1.4-0.9l-0.8,0.4l-2.4-0.4l-0.7-1.2l-0.5,0.1l-2.8-1.6l-0.4-0.9l1.1-0.2
		l-0.1-1.4l0.7-1l1.4-0.2l1.2-1.8l1.1-1.5l-1-0.7l0.5-1.6l-0.6-2.6l0.6-0.7l-0.4-2.4l-1.1-1.5l0.4-1.4l0.9,0.2l0.5-0.8l-0.6-1.6
		l0.3-0.4l1.4,0.1l2.1-2l1.1-0.3l0-0.9l0.5-2.4l1.6-1.3l1.8-0.1l0.2-0.6l2.2,0.2l2.2-1.4l1.1-0.6l1.4-1.4l1,0.2l0.7,0.8l-0.5,1
		l-1.8,0.5l-0.7,1.4l-1.1,0.8l-0.8,1.1l-0.4,2l-0.8,1.7l1.4,0.2l0.4,1.3l0.6,0.6l0.2,1.1l-0.3,1l0.1,0.6l0.7,0.2l0.7,1l3.6-0.3
		l1.6,0.4l2,2.4l1.1-0.3l2,0.1l1.6-0.3l1,0.5l-0.5,1.5l-0.6,0.9l-0.2,2l0.6,1.9l0.8,0.8l0.1,0.6l-1.4,1.4l1,0.6l0.8,1l0.8,2.8
		l-0.5,0.3l-0.5-1.6l-0.8-0.9l-0.9,1l-5.5-0.1l0,1.7l1.6,0.3l-0.1,1.1l-0.6-0.3l-1.6,0.5l0,2l1.2,1l0.4,1.6l-0.1,1.2l-1.3,7.6
		l-1.4-1.5l-0.8-0.1l1.8-2.8l-2.1-1.3l-1.7,0.2l-1-0.5l-1.6,0.7l-2.1-0.4l-1.6-2.9l-1.3-0.7l-0.9-1.3l-1.9-1.3L309.7,488.3z"/>
	<path id="CR" class="st0" d="M288.5,464.9l-1.5-0.6l-0.6-0.6l0.3-0.5l-0.1-0.6l-0.8-0.7l-1.1-0.6l-1-0.4l-0.2-0.8l-0.7-0.5l0.2,0.8
		l-0.6,0.7l-0.6-0.8l-0.9-0.3l-0.4-0.6l0-0.9l0.4-0.9l-0.8-0.4l0.6-0.5l0.4-0.4l1.8,0.8l0.6-0.4l0.9,0.2l0.5,0.6l0.8,0.2l0.7-0.6
		l0.7,1.5l1.1,1.1l1.3,1.2l-1.1,0.2l0,1.1l0.6,0.4l-0.4,0.3l0.1,0.5l-0.2,0.6L288.5,464.9z"/>
	<path id="CU" class="st0" d="M290.4,421.5l2.4,0.2l2.2,0l2.6,1l1.1,1.1l2.6-0.3l1,0.7l2.4,1.9l1.7,1.4l0.9,0l1.7,0.6l-0.2,0.8
		l2.1,0.1l2.1,1.2l-0.3,0.7l-1.9,0.4l-1.9,0.1l-1.9-0.2l-4,0.3l1.9-1.7l-1.1-0.8l-1.8-0.2l-1-0.9l-0.7-1.7l-1.6,0.1l-2.6-0.8
		l-0.8-0.6l-3.6-0.5l-1-0.6l1.1-0.8L289,423l-2,1.6l-1.2,0l-0.4,0.7l-1.4,0.3l-1.2-0.3l1.5-0.9l0.6-1.1l1.3-0.7l1.4-0.6l2.1-0.3
		L290.4,421.5z"/>
	<path id="CY" class="st0" d="M616.1,382.8l1.9-1.5l-2.5,1l-2-0.1l-0.4,0.8l-0.2,0l-1.3,0.1l0.6,1.4l1.4,0.4l2.9-1.4l-0.1-0.3
		L616.1,382.8z"/>
	<path id="CZ" class="st0" d="M568.6,332.4l-1.3-0.8l-1.3,0.2l-2.2-1.3l-1,0.3l-1.6,1.7l-2.1-1.4l-1.6-1.8l-1.4-1l-0.3-1.8l-0.5-1.3
		l2-0.9l1-1.1l2-0.9l0.7-0.8l0.7,0.5l1.2-0.5l1.3,1.4l2.1,0.4l-0.2,1.2l1.5,0.9l0.4-1.1l1.9,0.5l0.3,1.4l2.1,0.3l1.3,2.1l-0.8,0
		l-0.4,0.8l-0.6,0.2l-0.2,1l-0.5,0.2l-0.1,0.4l-1,0.4l-1.2-0.1L568.6,332.4z"/>
	<path id="DE" class="st0" d="M548.9,303.4l0,1.9l2.8,1.1l0,1.7l2.9-0.9l1.6-1.3l3.2,1.9l1.3,1.5l0.7,2.4l-0.8,1.2l1,1.6l0.7,2.4
		l-0.2,1.6l1.1,2.9l-1.2,0.5l-0.7-0.5l-0.7,0.8l-2,0.9l-1,1.1l-2,0.9l0.5,1.3l0.3,1.8l1.4,1l1.6,1.8l-1,1.9l-1,0.5l0.4,2.7l-0.3,0.7
		l-0.9-0.8l-1.3-0.1l-2,0.7l-2.5-0.2l-0.4,1.1l-1.4-1.1l-0.8,0.2l-3-1.3l-0.6,0.9l-2.4,0l0.4-3l1.4-2.9l-4-0.8l-1.3-1.1l0.2-1.9
		l-0.6-1l0.3-3l-0.5-4.7h1.7l0.7-1.7l0.7-4.2l-0.5-1.6l0.6-1l2.3-0.3l0.5,1l1.9-2.3l-0.6-1.8l-0.1-2.8l2.1,0.6L548.9,303.4z"/>
	<path id="DJ" class="st0" d="M641.9,452.2l0.7,0.9l-0.1,1.2l-1.6,0.7l1.2,0.8l-1,1.5l-0.6-0.5l-0.7,0.2l-1.6,0l0-0.9l-0.2-0.8
		l0.9-1.3l1-1.3l1.2,0.2L641.9,452.2z"/>
	<path id="DK" class="st0" d="M556.7,300.4l-1.7,4l-2.9-2.8l-0.4-2l4.1-1.7L556.7,300.4z M551.7,296.1L551,298l-0.8-0.5l-2,3.6
		l0.8,2.4l-1.8,0.7l-2.1-0.6l-1.1-2.7l-0.1-5.1l0.5-1.4l0.8-1.5l2.5-0.3l1-1.4l2.3-1.5l-0.1,2.7l-0.8,1.7l0.3,1.4L551.7,296.1z"/>
	<path id="DO" class="st0" d="M320,431.9l0.4-0.5l2.2,0l1.7,0.8l0.7-0.1l0.5,1l1.5-0.1l-0.1,0.9l1.2,0.1l1.4,1.1l-1,1.2l-1.3-0.6
		l-1.3,0.1l-0.9-0.1l-0.5,0.5l-1.1,0.2l-0.4-0.7l-0.9,0.4l-1.1,2l-0.7-0.5l-0.1-0.8l0.1-0.8l-0.7-0.9l0.7-0.5l0.2-1.1L320,431.9z"/>
	<path id="DZ" class="st0" d="M554.7,420.6l-9.6,5.8l-8.1,5.9l-4,1.3l-3.1,0.3l0-1.9l-1.3-0.5l-1.8-0.9l-0.7-1.4l-9.5-6.5l-9.5-6.7
		l-10.6-7.5l0.1-0.6v-0.2l0-3.8l4.5-2.4l2.8-0.5l2.3-0.9l1.1-1.6l3.3-1.3l0.1-2.4l1.6-0.3l1.3-1.2l3.7-0.6l0.5-1.3l-0.7-0.7l-1-3.5
		l-0.2-2l-1.1-2.2l2.7-1.9l3-0.6l1.8-1.4l2.7-1l4.8-0.6l4.6-0.3l1.4,0.5l2.6-1.4l3,0l1.1,0.8l1.9-0.2l-0.6,1.8l0.4,3.3l-0.7,2.8
		l-1.7,1.9l0.2,2.5l2.3,2l0,0.8l1.7,1.3l1.2,5.9l0.9,2.8l0.2,1.5l-0.5,2.6l0.2,1.4l-0.4,1.7l0.2,2l-1.1,1.3l1.7,2.3l0.1,1.3l1,1.7
		l1.3-0.6l2.2,1.4L554.7,420.6z"/>
	<path id="EC" class="st0" d="M295.9,497.4l1.5-2.1l-0.6-1.2l-1.1,1.3l-1.7-1.2l0.6-0.8l-0.5-2.5l1-0.4l0.5-1.7l1.1-1.8l-0.2-1.1
		l1.5-0.6l1.9-1.1l2.8,1.6l0.5-0.1l0.7,1.2l2.4,0.4l0.8-0.4l1.4,0.9l1.2,0.7l0.4,2.1l-0.9,1.8l-3.1,2.9l-3.4,1.1l-1.7,2.4l-0.5,1.9
		l-1.6,1.1l-1.2-1.4l-1.1-0.3l-1.2,0.2l-0.1-1l0.8-0.7L295.9,497.4z"/>
	<path id="EE" class="st0" d="M589.2,289.2l0.3-3.1l-1,0.7l-1.8-1.9l-0.2-3.1l3.5-1.5l3.5-0.8l3,0.9l2.9-0.2l0.4,1l-2,3.1l0.8,5
		l-1.2,1.7l-2.3,0l-2.4-1.9l-1.2-0.6L589.2,289.2z"/>
	<path id="EG" class="st0" d="M619,401.8l-0.8,1.3l-0.6,2.4l-0.8,1.6l-0.7,0.6l-0.9-1l-1.3-1.4l-2-4.6l-0.3,0.3l1.2,3.4l1.7,3.2
		l2.1,4.9l1,1.7l0.9,1.7l2.5,3.4l-0.6,0.5l0.1,2l3.3,2.7l0.5,0.6h-11.1h-10.9h-11.3v-11.2v-11.2l-0.8-2.6l0.7-2l-0.4-1.4l1-1.6
		l3.7,0l2.7,0.9l2.8,1l1.3,0.5l2.2-1l1.2-0.9l2.5-0.3l2,0.4l0.8,1.6l0.7-1.1l2.2,0.8l2.2,0.2l1.4-0.8L619,401.8z"/>
	<path id="EH" class="st0" d="M484.4,407.6l3.6,0l8.8,0l0,0l0,0l-8.8,0L484.4,407.6l-0.1,0.1l0,0l-1.8,3.2l-1.9,1.1l-1,1.9l-0.1,1.6
		l-0.8,1.8l-0.9,0.5l-1.6,1.9l-1,2.1l0.2,1l-0.9,1.6l-1.1,0.8l-0.1,1.4l-0.1,1.3l0.6-1l11,0l-0.5-4.3l0.7-1.6l2.6-0.3l-0.1-7.9
		l9.2,0.2v-4.7l0.1-0.6v-0.2L484.4,407.6z"/>
	<path id="ER" class="st0" d="M639.8,452.7l-1-0.9l-1.1-1.7l-1.2-0.9l-0.7-1l-2.4-1.1l-1.9,0l-0.7-0.6l-1.6,0.7l-1.7-1.3l-0.9,2.1
		l-3.3-0.6l-0.3-1.1l1.2-4.2l0.3-1.9l0.9-0.9l2.1-0.5l1.4-1.7l1.6,3.4l0.8,2.7l1.5,1.4l3.8,2.7l1.6,1.6l1.5,1.7l0.9,1l1.4,0.9
		l-0.8,0.7L639.8,452.7z"/>
	<path id="ES" class="st0" d="M495.7,359.1l0.1-2.7l-1.1-1.7l4-2.8l3.4,0.7l3.8,0l3,0.7l2.3-0.2l4.5,0.1l1.1,1.5l5.2,1.7l1-0.8
		l3.2,1.7l3.2-0.5l0.2,2.2l-2.7,2.5l-3.6,0.8l-0.2,1.2l-1.7,2l-1.1,3l1.1,2.1l-1.6,1.6l-0.6,2.3l-2.1,0.7l-2,2.7l-3.6,0.1l-2.7-0.1
		l-1.8,1.2l-1.1,1.3l-1.4-0.3l-1-1.2l-0.8-2l-2.6-0.5l-0.2-1.2l1-1.3l0.4-1l-1-1.1l0.8-2.4l-1.1-2.2l1.2-0.3l0.1-1.7l0.5-0.5l0-2.9
		l1.3-1l-0.8-1.9l-1.6-0.1l-0.5,0.5l-1.6,0l-0.7-1.8l-1.1,0.5L495.7,359.1z"/>
	<path id="ET" class="st0" d="M627.4,445.8l1.7,1.3l1.6-0.7l0.7,0.6l1.9,0l2.4,1.1l0.7,1l1.2,0.9l1.1,1.7l1,0.9l-1,1.3l-0.9,1.3
		l0.2,0.8l0,0.9l1.6,0l0.7-0.2l0.6,0.5l-0.6,1l1,1.6l1,1.4l1.1,1l9.2,3.3l2.4,0l-7.9,8.4l-3.7,0.1l-2.5,2l-1.8,0l-0.8,0.9h-1.9
		l-1.1-0.9l-2.6,1.2l-0.8,1.2l-1.9-0.2l-0.6-0.3l-0.7,0.1l-0.9,0l-3.5-2.4h-2l-1-0.9V473l-1.5-0.5l-1.6-3l-1.3-0.7l-0.5-1.1
		l-1.4-1.4l-1.7-0.2l1-1.6l1.5-0.1l0.4-0.9l0-2.5l0.8-3l1.3-0.8l0.3-1.2l1.2-2.2l1.7-1.4l1.1-2.8l0.5-2.5l3.3,0.6L627.4,445.8z"/>
	<path id="FK" class="st0" d="M349.5,657.7l3.4-2.7l2.4,1.1l1.7-1.8l2.2,2l-0.8,1.6l-3.8,1.4l-1.3-1.6l-2.4,2L349.5,657.7z"/>
	<path id="FI" class="st0" d="M601.2,217.6l-0.4,5.4l4.3,5l-2.6,5.5l3.3,8l-1.9,5.8l2.5,4.9l-1.2,4.1l4.2,4.3l-1.1,3.1l-2.6,3.4
		l-6,7.4l-5.1,0.5l-4.9,2.1l-4.6,1.2l-1.6-3.1l-2.7-1.9l0.6-5.7l-1.4-5.4l1.3-3.6l2.5-3.9l6.4-7l1.9-1.4l-0.3-2.8l-3.9-3.2l-0.9-2.7
		l-0.1-11.1l-4.4-5.1l-3.7-3.8l1.7-2.1l3.1,4.1l3.7-0.4l3,1.9l2.7-3.4l1.4-5.9l4.4-2.8l3.6,3.3L601.2,217.6z"/>
	<path id="FJ" class="st0" d="M1026.4,533.1l-0.3,1.4l-0.2,0.2l-1.8,0.7l-1.8,0.6l-0.4-1.1l1.4-0.6l0.9-0.2l1.6-0.9L1026.4,533.1z
		 M1020.5,537.4l-1.3-0.4l-1.1,1l0.3,1.3l1.5,0.4l1.7-0.4l0.5-1.5l-1-0.8L1020.5,537.4z"/>
	<path id="FR" class="st0" d="M547.9,358.1L547,361l-1.3-0.8l-0.7-2.5l0.6-1.4l1.8-1.5L547.9,358.1z M531.1,324.7l2,2.1l1.4-0.3
		l2.5,2l0.6,0.4l0.8-0.1l1.3,1.1l4,0.8l-1.4,2.9l-0.4,3l-0.8,0.7l-1.3-0.4l0.1,1l-2,2.3l0,1.8l1.3-0.6l1,1.8l-0.1,1.1l0.8,1.5
		l-1,1.2l0.7,3l1.5,0.5l-0.3,1.7l-2.5,2.2l-5.5-1l-4.1,1.2l-0.3,2.3l-3.2,0.5l-3.1-1.7l-1,0.8l-5.2-1.7l-1.1-1.5l1.5-2.3l0.5-7.9
		l-2.9-4.3l-2.1-2.1l-4.3-1.6l-0.3-3.1l3.6-0.9l4.7,1.1l-0.9-4.8l2.6,1.9l6.5-3.4l0.8-3.6l2.5-0.9l0.4,1.6l1.3,0.1L531.1,324.7z"/>
	<path id="GA" class="st0" d="M552.2,499l-2.9-2.8l-1.9-2.3l-1.7-2.9l0.1-0.9l0.6-0.9l0.7-2l0.6-2.1l1-0.2l4.1,0l0-3.4l1.3-0.2
		l1.7,0.4l1.7-0.4l0.4,0.1l-0.2,1.2l0.8,1.4l2.1-0.2l0.7,0.5l-1.2,3.2l1.3,1.6l0.3,2.2l-0.4,1.9l-0.9,1.3l-2.5-0.1l-1.5-1.3
		l-0.2,1.2l-1.9,0.3l-1,0.7l1,1.9L552.2,499z"/>
	<path id="GB" class="st0" d="M505.2,305.5l-1.5,3.3l-2.1-1l-1.7,0.1l0.6-2.6l-0.6-2.6l2.4-0.2L505.2,305.5z M512.7,284.8l-3,5.7
		l2.9-0.7l3.1,0l-0.7,4.2l-2.5,4.5l2.9,0.3l0.2,0.5l2.5,5.8l1.9,0.8l1.7,5.4l0.8,1.8l3.4,0.9l-0.3,2.9l-1.4,1.3l1.1,2.3l-2.5,2.3
		l-3.8,0l-4.8,1.2l-1.3-0.9l-1.9,2.1l-2.6-0.5l-2,1.7l-1.5-0.9l4.1-4.6l2.5-1h0l-4.4-0.8l-0.8-1.8l2.9-1.4l-1.5-2.5l0.5-3.1l4.2,0.4
		l0,0l0.4-2.7l-1.9-3l0-0.1l-3.4-0.9l-0.7-1.3l1-2.2l-0.9-1.4l-1.5,2.3l-0.2-4.8l-1.4-2.6l1-5.4l2.2-4.3l2.2,0.4L512.7,284.8z"/>
	<path id="GE" class="st0" d="M637.6,360.4l0.4-1.6l-0.7-2.6l-1.6-1.4l-1.5-0.4l-1-1.2l0.3-0.5l2.4,0.7l4.1,0.6l3.8,1.8l0.5,0.7
		l1.7-0.6l2.6,0.8l0.8,1.5l1.8,0.9l-0.7,0.5l1.4,2l-0.4,0.4l-1.5-0.2l-2.1-1.1l-0.7,0.6l-3.9,0.6l-2.7-1.8L637.6,360.4z"/>
	<path id="GF" class="st0" d="M373.7,480.9l-1.1,1.1l-1.3,0.2l-0.4-0.8l-0.6-0.1l-0.9,0.8l-1.2-0.6l0.7-1.2l0.2-1.3l0.5-1.2
		l-1.1-1.6l-0.2-1.9l1.5-2.4l1,0.3l2.1,0.7l3,2.4l0.5,1.1l-1.7,2.5L373.7,480.9z"/>
	<path id="GH" class="st0" d="M524.1,471.4l-4.4,1.6l-1.6,1l-2.5,0.8l-2.5-0.8l0.1-1.1l-1.2-2.4l0.7-3.2l1.2-2.4l-0.7-4l-0.4-2.1
		l0.1-1.6l4.9-0.1l1.2,0.2l0.9-0.5l1.3,0.2l-0.2,0.9l1.2,1.5v2l0.3,2.2l0.7,1l-0.6,2.5l0.2,1.4l0.8,1.8L524.1,471.4z"/>
	<path id="GL" class="st0" d="M390,48.4l9.4-13.6l9.8,1.1l3.6-9l9.9-2.4l22.4,3.1l17.5,18.6l-5.2,8.3l-10.7,0.9l-15.1,2l1.4,3.6
		l9.9-2.2l8.4,6.9l5.5-6.1l2.3,7.2l-3.1,11l7.1-6.9l13.6-7.6l8.4,3.8l1.6,8.1l-11.4,12.7l-1.6,3.9l-9,2.9l6.5,0.8l-3.3,11.5
		l-2.3,9.6l0.1,15.3l3.4,8.3l-4.4,0.5l-4.6,3.9l5.2,6.3l0.7,9.6l-3,1l3.6,9.1l-6.2,0.8l3.2,4.1l-0.9,3.5l-4,1.5l-3.9,0l3.5,6.5
		l0,4.1l-5.6-3.8l-1.4,2.5l3.8,2.3l3.7,5.5l1.1,6.9l-5,1.6l-2.2-3.3l-3.5-5l1,5.9l-3.2,4.4l7.4,0.3l3.9,0.4l-7.5,7l-7.6,6.1
		l-8.2,2.6l-3.1,0l-2.9,2.9l-3.9,7.6l-6,4.9l-1.9,0.3l-3.7,1.7l-4,1.6l-2.4,4.1l0,4.6l-1.4,4.2l-4.6,5l1.1,4.7l-1.3,4.9l-1.4,5.6
		l-4,0.3l-4.1-4.6l-5.6,0l-2.7-3.2l-1.9-5.8l-4.9-7.7l-1.4-4.1l-0.4-5.9l-3.9-6.3l1-5.2l-1.9-2.5l2.8-8.7l4.2-2.8l1.1-3.3l0.6-6.3
		l-3.2,2.9l-1.5,1.2l-2.5,1.1l-3.4-2.6l-0.2-5.6l1.1-4.5l2.6-0.1l5.7,2.2l-4.8-5.4l-2.5-3l-2.8,1.2l-2.3-2.2l3.1-8.5L366,184
		l-2.2-6.7l-3.4-10.9l-3.6-4.2l0-4.6l-7.5-6.7l-5.9-0.9l-7.5,0.5l-6.8,0.9l-3.3-3.8l-4.9-7.7l7.4-4l5.6-0.7l-12-3.4l-6.3-5.4
		l0.4-5.3l10.6-6.9l10.3-7.2l1.1-5.6l-7.6-5.8l2.4-6.6l9.7-12.3l4.1-2l-1.2-8.6l6.6-5.2l8.6-3.2l8.6-0.2l3.1,6.3l7.4-11.3l6.7,7.8
		l3.9,1.6l5.8,6.4l-6.7-10.8L390,48.4z"/>
	<path id="GM" class="st0" d="M473.9,451l0.4-1.3l3-0.1l0.6-0.7l0.9,0l1.1,0.7l0.9,0l0.9-0.5l0.6,0.8l-1.2,0.6l-1.2,0l-1.2-0.6
		l-1,0.7l-0.5,0l-0.7,0.4L473.9,451z"/>
	<path id="GN" class="st0" d="M497.4,466.4l-0.8-0.1l-0.6,1.1l-0.8,0l-0.5-0.6l0.2-1.1l-1.2-1.7l-0.7,0.3l-0.6,0.1l-0.8,0.2l0-1
		l-0.4-0.7l0.1-0.8l-0.6-1.2l-0.8-1h-2.2l-0.6,0.5l-0.8,0.1l-0.5,0.6l-0.3,0.8l-1.5,1.2l-1.2-1.7l-1.1-1.1l-0.7-0.4l-0.7-0.6
		l-0.3-1.2l-0.4-0.6l-0.8-0.5l1.2-1.4l0.9,0l0.7-0.5h0.6l0.4-0.4l-0.2-0.9l0.3-0.3l0-1l1.4,0l2,0.7l0.6-0.1l0.2-0.3l1.5,0.2l0.4-0.2
		l0.2,1l0.4,0l0.7-0.4l0.5,0.1l0.8,0.7l1.2,0.2l0.8-0.6l0.9-0.4l0.7-0.4l0.6,0.1l0.6,0.6l0.3,0.8l1.1,1.2l-0.6,0.7l-0.1,0.9l0.6-0.3
		l0.4,0.3l-0.1,0.8l0.9,0.8l-0.6,0.2l-0.2,1l0.6,1.2l0.7,2.3l-1,0.3l-0.3,0.4l0.2,0.5l-0.2,1.2H497.4z"/>
	<path id="GQ" class="st0" d="M547.7,485.1l-0.5-0.4l1-3.1l4.6,0.1l0,3.4l-4.1,0L547.7,485.1z"/>
	<path id="GR" class="st0" d="M587.5,381.2l1.5,1.2l2.2-0.2l2.1,0.2l-0.1,0.6l1.5-0.4l-0.3,1l-4,0.3l0-0.6l-3.4-0.7L587.5,381.2z
		 M595.7,360.3l-0.9,2.3l-0.7,0.4l-1.7-0.1l-1.5-0.4l-3.4,1l1.9,2.1l-1.4,0.6h-1.6l-1.5-1.9l-0.5,0.8l0.6,2.2l1.4,1.7l-1.1,0.8
		l1.6,1.6l1.4,1l0,2l-1.4-1.1l-1.2,0.2l0.8,1.8l-0.9,0.2l-1-0.7l1.2,4h-0.6l-0.5-1.2l-0.6,0l-0.3,1.3l-0.5-0.3l0.1-0.7l-0.6-1h-0.6
		l0.1,0.8l-0.2,0.3l-0.6-0.5l-0.4-1l0.5-0.6l-0.4-0.7l-0.4-0.4l-0.4-0.1l-0.5-0.9l0.6-0.5l0.4-0.5l0.6,0.1l0.2-0.4l0.6-0.2l0.7,0.5
		l0.5,0.2l0.4-0.6l-0.9-0.1l-0.6-0.2l-1.2,0.3l-1.2,0l-1.1-1.6l-0.2-0.2l0.2-0.6l-1.4-1.1l-0.2-1l1.3-1.8l0.2-1.2l0.9-0.5l0.1-1
		l1.8-0.3l1.1-0.8l1.5,0.1l0.5-0.6l0.5-0.1l2.1,0.1l2.2-1l2,1.3l2.5-0.4l0-1.9L595.7,360.3z"/>
	<path id="GT" class="st0" d="M268.5,449.3l-1.4-0.5l-1.8,0l-1.3-0.6l-1.5-1.2l0.1-0.8l0.3-0.7l-0.4-0.5l1.3-2.4l3.6,0l0.1-1
		l-0.5-0.2l-0.3-0.6l-1-0.7l-1-1h1.3v-1.6h2.6l2.6,0l0,2.3l-0.2,3.3h0.8l0.9,0.5l0.2-0.4l0.8,0.4l-1.3,1.1l-1.3,0.8l-0.2,0.6
		l0.2,0.6l-0.6,0.7l-0.7,0.2l0.1,0.3l-0.5,0.3l-1,0.7L268.5,449.3z"/>
	<path id="GW" class="st0" d="M478.7,457l-1.5-1.2l-1.2-0.2l-0.6-0.8l0-0.4l-0.8-0.6l-0.2-0.6l1.5-0.5l0.9,0.1l0.8-0.3l5.2,0.1l0,1
		l-0.3,0.3l0.2,0.9l-0.4,0.4h-0.6l-0.7,0.5l-0.9,0L478.7,457z"/>
	<path id="GY" class="st0" d="M353.5,464.5l1.8,1l1.7,1.8l0.1,1.5l1.1,0.1l1.5,1.4l1.1,1l-0.4,2.5l-1.7,0.7l0.1,0.6l-0.5,1.5l1.2,2
		l0.9,0l0.4,1.6l1.7,2.4l-0.7,0.1l-1.6-0.2l-0.9,0.7l-1.3,0.5l-0.9,0.1l-0.3,0.5l-1.4-0.1l-1.7-1.3l-0.2-1.3l-0.7-1.4l0.5-2.4l0.8-1
		l-0.6-1.3l-1-0.4l0.4-1.2l-0.7-0.6l-1.5,0.1l-1.9-2.1l0.8-0.8l-0.1-1.3l1.7-0.5l0.7-0.5l-1-1l0.2-1L353.5,464.5z"/>
	<path id="HN" class="st0" d="M276.3,451.4l-0.5-0.9l-0.9-0.2l0.2-1.2l-0.4-0.3l-0.6-0.2l-1.2,0.3l-0.1-0.4l-0.9-0.5l-0.6-0.6
		l-0.8-0.2l0.6-0.7l-0.2-0.6l0.2-0.6l1.3-0.8l1.3-1.1l0.3,0.1l0.6-0.5l0.8,0l0.3,0.2l0.4-0.1l1.3,0.3l1.3-0.1l0.9-0.3l0.3-0.3
		l0.9,0.1l0.7,0.2l0.7-0.1l0.6-0.2l1.3,0.4l0.4,0.1l0.9,0.5l0.8,0.7l1,0.4l0.7,0.8l-1-0.1l-0.4,0.4l-1,0.4h-0.7l-0.6,0.4l-0.6-0.1
		l-0.5-0.4l-0.3,0.1l-0.4,0.7l-0.3,0l0,0.6l-1,0.8l-0.5,0.3l-0.3,0.4l-0.8-0.6l-0.6,0.8l-0.6,0l-0.7,0.1l0.1,1.4l-0.4,0l-0.4,0.7
		L276.3,451.4z"/>
	<path id="HR" class="st0" d="M573.9,343.5l0.7,1.6l0.9,1.1l-1.1,1.5l-1.3-0.9l-1.9,0.1l-2.4-0.7l-1.3,0.1l-0.6,0.8l-1-0.9l-0.6,1.6
		l1.4,1.8l0.6,1.2l1.3,1.5l1.1,0.8l1.1,1.6l2.5,1.4l-0.3,0.6l-2.6-1.4l-1.6-1.4l-2.6-1.1l-2.4-2.9l0.6-0.3l-1.3-1.6l-0.1-1.3
		l-1.8-0.6l-0.9,1.7l-0.8-1.3l0.1-1.4l0.1-0.1l1.9,0.1l0.5-0.7l1,0.6l1.1,0.1l0-1.1l1-0.4l0.3-1.6l2.2-1.1l0.9,0.5l2.1,1.7l2.3,0.8
		L573.9,343.5z"/>
	<path id="HT" class="st0" d="M315.9,431.3l1.7,0.1l2.4,0.5l0.2,1.6l-0.2,1.1l-0.7,0.5l0.7,0.9l-0.1,0.8l-1.9-0.5l-1.3,0.2l-1.7-0.2
		l-1.3,0.5l-1.5-0.9l0.2-1l2.6,0.4l2.1,0.2l1-0.7l-1.3-1.3l0-1.1l-1.8-0.5L315.9,431.3z"/>
	<path id="HU" class="st0" d="M566.5,339.6l0.9-2.6l-0.5-0.9l1.6,0l0.2-1.7l1.4,1.1l1,0.5l2.4-0.5l0.2-0.8l1.1-0.1l1.4-0.6l0.3,0.3
		l1.3-0.5l0.7-1l0.9-0.2l3,1.3l0.6-0.4l1.5,1.1l0.2,1.1l-1.7,0.9l-1.3,2.8l-1.7,2.8l-2.2,0.8l-1.8-0.2l-2.2,1l-1,0.6l-2.3-0.8
		l-2.1-1.7l-0.9-0.5l-0.5-1.4L566.5,339.6z"/>
	<path id="ID" class="st0" d="M859.5,516.6l-1.2,0l-3.7-2l2.6-0.6l1.5,0.9l1,0.9L859.5,516.6z M870,516.3l-2.4,0.6l-0.3-0.3l0.2-1
		l1.2-1.7l2.8-1.1l0.3,0.6l0,0.9L870,516.3z M851.7,510.5l1,0.8l1.7-0.2l0.7,1.2l-3.2,0.6l-1.9,0.4l-1.5,0l1-1.6l1.5,0L851.7,510.5z
		 M865.7,510.5l-0.4,1.6l-4.2,0.8l-3.7-0.4l0-1l2.2-0.6l1.8,0.8l1.9-0.2L865.7,510.5z M825.6,506.8l5.4,0.3l0.6-1.2l5.2,1.4l1,1.8
		l4.2,0.5l3.4,1.7l-3.2,1.1l-3.1-1.1l-2.5,0.1l-2.9-0.2l-2.6-0.5l-3.2-1.1l-2.1-0.3l-1.2,0.4l-5.1-1.2l-0.5-1.2l-2.6-0.2l1.9-2.7
		l3.4,0.2l2.3,1.1l1.2,0.2L825.6,506.8z M898.8,505.3l-1.4,1.9l-0.3-2.1l0.5-1l0.6-1l0.6,0.8L898.8,505.3z M877.9,497.5l-1,0.9
		l-1.9-0.5l-0.5-1.2l2.8-0.1L877.9,497.5z M886.9,496.5l1,2.1l-2.4-1.1l-2.3-0.2l-1.6,0.2l-1.9-0.1l0.7-1.5l3.5-0.1L886.9,496.5z
		 M897.2,491.1l0.8,4.5l2.9,1.7l2.3-3l3.2-1.7h2.5l2.4,1l2.1,1l3,0.5l0,9.1l0,9.2l-2.5-2.3l-2.8-0.6l-0.7,0.8l-3.5,0.1l1.2-2.3
		l1.8-0.8l-0.7-3l-1.3-2.4l-5.4-2.4l-2.3-0.2l-4.2-2.6l-0.8,1.4l-1.1,0.2l-0.6-1l0-1.2l-2.1-1.4l3-1l2,0l-0.2-0.7l-4.1,0l-1.1-1.7
		l-2.5-0.5l-1.2-1.4l3.8-0.7l1.4-0.9l4.5,1.1L897.2,491.1z M872.2,484l-2.2,2.8l-2.1,0.5l-2.7-0.5l-4.7,0.1l-2.5,0.4l-0.4,2.1
		l2.5,2.5l1.5-1.3l5.2-1l-0.2,1.3l-1.2-0.4l-1.2,1.6l-2.5,1.1l2.7,3.6l-0.5,1l2.5,3.2l0,1.8l-1.5,0.8l-1.1-1l1.4-2.3l-2.8,1.1
		l-0.7-0.8l0.4-1.1l-2-1.6l0.2-2.7l-1.9,0.9l0.2,3.2l0.1,4l-1.8,0.4l-1.2-0.8l0.8-2.6l-0.4-2.7l-1.2,0l-0.9-1.9l1.2-1.8l0.4-2.2
		l1.4-4.2l0.6-1.1l2.4-2.1l2.2,0.8l3.5,0.4l3.2-0.1l2.8-2L872.2,484z M881.9,484.8l-0.2,2.4l-1.5-0.3l-0.4,1.7l1.2,1.5l-0.8,0.3
		l-1.1-1.8l-0.8-3.6l0.6-2.2l0.9-1l0.2,1.5l1.7,0.2L881.9,484.8z M851.6,482.8l3.1,2.6l-3.3,0.3l-0.9,1.9l0.1,2.5l-2.7,1.9l-0.1,2.8
		l-1.1,4.3l-0.4-1l-3.2,1.3l-1.1-1.7l-2-0.2l-1.4-0.9l-3.3,1l-1-1.4l-1.8,0.1l-2.3-0.3l-0.4-3.7l-1.4-0.8l-1.3-2.4l-0.4-2.4l0.3-2.6
		l1.7-1.9l0.5,1.9l1.9,1.6l1.8-0.6l1.8,0.2l1.6-1.4l1.3-0.2l2.7,0.8l2.3-0.6l1.4-3.9l1.1-1l1-3.2h3.2l2.4,0.5l-1.6,2.5l2.1,2.6
		L851.6,482.8z M817.8,504.2l-3.1,0.1l-2.4-2.3l-3.6-2.3l-1.2-1.7l-2.1-2.3l-1.4-2.1l-2.1-3.9l-2.5-2.3l-0.8-2.4l-1-2.2l-2.5-1.8
		l-1.5-2.4l-2.1-1.6l-2.9-3.1l-0.2-1.4l1.8,0.1l4.3,0.5l2.5,2.7l2.2,1.9l1.5,1.2l2.7,3l2.8,0l2.4,1.9l1.6,2.3l2.1,1.3l-1.1,2.3
		l1.6,1l1,0.1l0.5,1.9l1,1.6l2.1,0.2l1.4,1.8l-0.7,3.5L817.8,504.2z"/>
	<path id="IE" class="st0" d="M503.7,308.8l0.5,3.4l-2.1,4.1l-5,2.7l-4-0.7l2.3-4.8l-1.5-4.8l3.8-3.8l2.1-2.3l0.6,2.6l-0.6,2.6
		l1.7-0.1L503.7,308.8z"/>
	<path id="IL" class="st0" d="M621.2,391.3l-0.5,1l-1-0.5l-0.6,2.2l0.7,0.4l-0.7,0.5l-0.1,0.9l1.3-0.5l0.1,1.3l-1.4,5.2l-1.8-5.5
		l0.8-1.1l-0.2-0.2l0.7-1.5l0.6-2.5l0.4-0.8l0.1,0h0.9l0.3-0.6l0.8-0.1l0,1.4L621.2,391.3L621.2,391.3z"/>
	<path id="IN" class="st0" d="M739.3,382l3,4l-0.3,2.7l1.1,1.7l-0.1,1.7l-2-0.4l0.8,3.6l2.8,2.1l3.9,2.3l-1.8,1.5l-1.1,3l2.7,1.2
		l2.6,1.6l3.7,1.8l3.8,0.4l1.6,1.6l2.2,0.3l3.4,0.7l2.3,0l0.3-1.2l-0.4-2l0.2-1.3l1.7-0.7l0.2,2.5l0,0.6l2.5,1.2l1.8-0.5l2.4,0.2
		l2.3-0.1l0.2-1.9l-1.1-1l2.3-0.4l2.5-2.4l3.2-2l2.3,0.8l2-1.3l1.3,2l-1,1.3l3,0.5l0.2,1.2l-1,0.6l0.2,1.9l-2-0.6l-3.6,2.2l0.1,1.8
		l-1.5,2.6l-0.2,1.5l-1.2,2.5l-2.2-0.7l-0.1,3.1l-0.6,1l0.3,1.3l-1.4,0.7l-1.5-4.8l-0.8,0l-0.5,1.9l-1.5-1.6l0.9-1.7l1.3-0.2
		l1.3-2.6l-1.6-0.5l-2.6,0l-2.7-0.4L773,413l-1.3-0.2l-2.2-1.3l-1,2.1l2,1.6l-1.8,1.1l-0.6,1.1l1.7,0.8l-0.5,1.8l1,2.3l0.4,2.5
		l-0.4,1.1l-1.9,0l-3.5,0.6l0.2,2.2l-1.5,1.8l-4,2l-3.1,3.5l-2.1,1.8l-2.8,1.9v1.3l-1.4,0.7l-2.5,1l-1.3,0.2l-0.8,2.2l0.6,3.8
		l0.1,2.4l-1.2,2.7l0,4.8l-1.4,0.1l-1.3,2.2l0.8,0.9l-2.6,0.8l-0.9,1.9l-1.1,0.8l-2.6-2.6l-1.3-4l-1.1-2.9l-1-1.3l-1.5-2.7l-0.7-3.6
		l-0.5-1.8l-2.5-4l-1.2-5.6l-0.8-3.8l0-3.6l-0.5-2.8l-4.1,1.8l-2-0.4l-3.7-3.6l1.4-1.1l-0.8-1.2l-3.3-2.6l1.9-2l6.2,0l-0.6-2.6
		l-1.6-1.6l-0.3-2.4l-1.8-1.4l3.1-3.3l3.3,0.2l2.9-3.3l1.8-3.3l2.7-3.2l0-2.3l2.4-1.9l-2.3-1.6l-1-2.2l-1-3l1.4-1.5l4.3,0.8l3.1-0.5
		L739.3,382z"/>
	<path id="IQ" class="st0" d="M648.4,380.3l1.8,1l0.2,2l-1.4,1.2l-0.6,2.6l1.9,3.2l3.4,1.8l1.5,2.5l-0.5,2.4h0.9l0,1.7l1.5,1.7
		l-1.7-0.1l-1.9-0.3l-2.1,3.1l-5.2-0.3l-7.9-6.5l-4.2-2.3l-3.4-0.9l-1.1-4l6.2-3.5l1.1-4.1l-0.3-2.5l1.5-0.9l1.4-2.2l1.2-0.6
		l3.3,0.5l1,0.9l1.3-0.6L648.4,380.3z"/>
	<path id="IR" class="st0" d="M672.3,376.1l2.5-0.7l2-2l1.9,0.1l1.2-0.7l2,0.3l3.1,1.8l2.2,0.4l3.2,3.1l2.1,0.1l0.2,2.9l-1.1,4.2
		l-0.8,2.5l1.2,0.5l-1.2,1.8l0.9,2.6l0.2,2.1l2.1,0.6l0.2,2.1l-2.5,2.9l1.4,1.7l1.1,1.9l2.7,1.4l0.1,2.8l1.3,0.5l0.2,1.4l-4,1.6
		l-1.1,3.6l-5.3-0.9l-3.1-0.7l-3.2-0.4l-1.2-3.8l-1.3-0.6l-2.2,0.6l-2.8,1.5l-3.4-1l-2.8-2.4l-2.7-0.9l-1.9-3l-2.1-4.3l-1.5,0.5
		l-1.8-1.1l-1,1.3l-1.5-1.7l0-1.7h-0.9l0.5-2.4l-1.5-2.5l-3.4-1.8l-1.9-3.2l0.6-2.6l1.4-1.2l-0.2-2l-1.8-1l-1.8-4.1l-1.5-2.8
		l0.5-1.1l-0.9-4.1l1.9-1l0.4,1.4l1.4,1.7l1.9,0.5l1-0.1l3.3-2.7l1-0.3l0.8,1.1l-1,1.8l1.8,1.9l0.7-0.2l0.9,2.6l2.7,0.7l2,1.8l4,0.6
		l4.4-0.9L672.3,376.1z"/>
	<path id="IS" class="st0" d="M480.4,237l-0.6,4.5l3.2,4.6l-3.6,5l-8.1,4.4l-2.4,1.2l-3.7-0.9l-7.8-2l2.8-2.8l-6.1-3.2l5-1.3l-0.1-2
		l-5.9-1.6l1.9-4.5l4.2-1l4.4,4.7l4.3-3.8l3.5,2l4.6-3.7L480.4,237z"/>
	<path id="IT" class="st0" d="M564.6,372.4l-1,2.8l0.4,1.1l-0.6,1.8l-2.1-1.3l-1.4-0.4l-3.9-1.8l0.4-1.8l3.3,0.3l2.9-0.4
		L564.6,372.4z M546.9,361.6l1.7,2.6l-0.4,4.8l-1.3-0.2l-1.1,1.2l-1.1-1l-0.1-4.4l-0.6-2.1l1.5,0.2L546.9,361.6z M555.8,340l4,1
		l-0.3,2l0.7,1.7l-2.2-0.6l-2.3,1.4l0.2,2l-0.3,1.1l0.9,2l2.6,2l1.4,3.2l3.1,3l2.2,0l0.7,0.8l-0.8,0.7l2.5,1.4l2.1,1.1l2.4,1.9
		l0.3,0.7l-0.5,1.3l-1.6-1.7l-2.4-0.6l-1.2,2.4l2,1.3l-0.3,1.9l-1.2,0.2l-1.5,3.1l-1.2,0.3l0-1.1l0.6-1.9l0.6-0.8l-1.1-2.1l-0.9-1.8
		l-1.2-0.5l-0.8-1.6l-1.8-0.7l-1.2-1.5l-2.1-0.2l-2.2-1.7l-2.6-2.5l-1.9-2.2l-0.9-3.8l-1.4-0.5l-2.3-1.3l-1.3,0.5l-1.6,1.8l-1.2,0.3
		l0.3-1.7l-1.5-0.5l-0.7-3l1-1.2l-0.8-1.5l0.1-1.1l1.2,0.9l1.4-0.2l1.6-1.4l0.5,0.6l1.3-0.1l0.6-1.6l2.1,0.5l1.2-0.7l0.2-1.7
		l1.7,0.6l0.3-0.8l2.8-0.7L555.8,340z"/>
	<path id="JM" class="st0" d="M303.6,435.5l1.9,0.3l1.5,0.7l0.5,0.8l-2,0l-0.9,0.5l-1.6-0.5l-1.6-1.1l0.3-0.7l1.2-0.2L303.6,435.5z"
		/>
	<path id="JO" class="st0" d="M620.7,392.4l0.5-1l3.1,1.3l5.5-3.5l1.1,4l-0.5,0.5l-5.6,1.6l2.8,3.3l-0.9,0.5l-0.5,1.1l-2.1,0.4
		l-0.7,1.2l-1.2,1l-3.1-0.5l-0.1-0.5l1.4-5.2l-0.1-1.3l0.4-1V392.4z"/>
	<path id="JP" class="st0" d="M898.6,386.5l0.4,1.1l-1.6,2l-1.2-1.1l-1.4,0.8l-0.7,2l-1.8-1l0-1.6l1.5-2l1.6,0.4l1.2-1.4
		L898.6,386.5z M916.4,376.3l-1.1,2.8l0.5,1.7l-1.5,2.4l-3.6,1.6l-4.9,0.2l-4,3.8l-1.9-1.3l-0.1-2.5l-4.9,0.8l-3.3,1.6l-3.3,0.1
		l2.8,2.5l-1.9,5.6l-1.8,1.4l-1.4-1.3l0.7-3l-1.8-1l-1.1-2.3l2.7-1l1.5-2.1l2.8-1.8l2.1-2.3l5.6-1l3,0.7l2.9-6.2l1.9,1.7l4.1-3.5
		l1.6-1.4l1.8-4.4l-0.5-4.1l1.2-2.3l3-0.7l1.5,5.1l-0.1,2.9l-2.6,3.6L916.4,376.3z M924.6,350.3l2,0.8l2-1.6l0.6,4.4l-4.2,1
		l-2.5,3.8l-4.4-2.6l-1.5,4.1l-3.1,0.1l-0.4-3.7l1.4-2.9l3-0.2l0.8-5.4l0.8-3.1l3.3,4.1L924.6,350.3z"/>
	<path id="KE" class="st0" d="M636,490.3l1.7,2.3l-2,1.1l-0.7,1.2l-1.1,0.2l-0.4,2l-0.9,1.1l-0.5,1.9l-1.1,0.9l-4-2.8l-0.2-1.6
		l-10.2-5.7l-0.5-0.3l0-3l0.8-1.1l1.4-1.8l1-2l-1.2-3.2l-0.3-1.4l-1.3-1.9l1.7-1.7l1.9-1.8l1.5,0.5v1.6l1,0.9h2l3.5,2.4l0.9,0
		l0.7-0.1l0.6,0.3l1.9,0.2l0.8-1.2l2.6-1.2l1.1,0.9h1.9l-2.5,3.2L636,490.3z"/>
	<path id="KG" class="st0" d="M720,357.6l0.6-1.7l1.8-0.5l4.6,1.3l0.4-2.2l1.6-0.8l4,1.6l1-0.4l4.7,0.1l4.2,0.4l1.4,1.4l1.7,0.6
		l-0.4,0.9l-4.4,2l-1,1.5l-3.6,0.4l-1.1,2.4l-3-0.5l-1.9,0.7l-2.7,1.7l0.4,0.9l-0.8,0.8l-5.3,0.6l-3.5-1.2l-3,0.3l0.3-2.1l3.1,0.6
		l1-1.1l2.1,0.4l3.6-2.6l-3.3-2l-2,0.9l-2.1-1.4l2.3-2.4L720,357.6z"/>
	<path id="KH" class="st0" d="M811.3,458.1l-1.1-1.5l-1.4-2.9l-0.7-3.4l1.8-2.4l3.6-0.6l2.6,0.4l2.3,1.1l1.3-2l2.5,1.1l0.6,1.9
		l-0.3,3.4l-4.7,2.2l1.2,1.7l-2.9,0.2l-2.4,1.1L811.3,458.1z"/>
	<path id="KP" class="st0" d="M887.4,357.1l0.4,0.7l-1.1-0.2l-1.2,1.3l-0.8,1.3l0.1,2.7l-1.5,0.8l-0.5,0.6l-1.1,1.1l-1.9,0.6l-1.2,1
		l-0.1,1.6l-0.3,0.4l1.1,0.6l1.6,1.6l-0.4,0.9l-1.2,0.2l-2,0.2l-1.1,1.6l-1.3-0.1l-0.2,0.3l-1.4-0.7l-0.3,0.7l-0.8,0.3l-0.1-0.7
		l-0.7-0.3l-0.8-0.6l0.8-1.6l0.7-0.4l-0.2-0.6l0.7-1.9l-0.2-0.6l-1.6-0.4l-1.3-1l2.3-2.4l3.1-2l1.9-2.7l1.3,1.2l2.4,0.1l-0.4-2
		l4.3-1.6l1.1-2.1L887.4,357.1z"/>
	<path id="KR" class="st0" d="M881,371.1l2.4,4.2l0.7,2.3l0,4l-1,1.9l-2.5,0.7l-2.2,1.4l-2.5,0.3l-0.3-1.9l0.5-2.6l-1.2-3.6l2.1-0.6
		l-1.9-3l0.2-0.3l1.3,0.1l1.1-1.6l2-0.2l1.2-0.2L881,371.1z"/>
	<path id="XK" class="st0" d="M579.3,358.4l-0.1,0.8l-0.4,0l-0.2-1.4l-0.7-0.4l-0.6-1l0.5-0.9l0.7-0.3l0.4-1.3l0.5-0.2l0.4,0.5
		l0.5,0.2l0.4,0.6l0.5,0.2l0.5,0.7l0.4,0l-0.3,0.9l-0.3,0.5l0.1,0.3l-0.6,0.1L579.3,358.4z"/>
	<path id="KW" class="st0" d="M655.6,400.3l0.6,1.4l-0.2,0.7l0.9,2.4l-2,0.1l-0.7-1.5l-2.5-0.3l2.1-3.1L655.6,400.3z"/>
	<path id="KZ" class="st0" d="M720,357.6l-1.6,0.7l-3.7,2.6l-1.2,2.6l-1,0l-0.8-1.8l-3.6-0.1l-0.6-3.1l-1.4,0l0.2-3.8l-3.4-2.8
		l-4.8,0.3l-3.3,0.6l-2.7-3.5l-2.3-1.5l-4.3-2.8l-0.5-0.4l-7.2,2.4l0.1,14.1l-1.4,0.2l-2-2.9l-1.9-1.1l-3.2,0.8l-1.2,1.2l-0.2-0.9
		l0.7-1.6l-0.5-1.3l-3.2-1.3l-1.3-3.5l-1.5-1l-0.1-1.3l2.7,0.4l0.1-2.9l2.4-0.6l2.4,0.6l0.5-3.9l-0.5-2.5l-2.8,0.2l-2.4-1l-3.2,1.8
		l-2.6,0.9l-1.4-0.7l0.3-2.1l-1.8-2.8l-2.1,0.1l-2.4-2.8l1.6-3.2l-0.8-0.9l2.2-4.8l2.9,2.5l0.3-3.2l5.8-4.9l4.4-0.1l6.2,3.1l3.3,1.8
		l3-1.9l4.4-0.1l3.6,2.3l0.8-1.3l3.9,0.2l0.7-2.1l-4.5-3.1l2.7-2.2l-0.5-1.2l2.7-1.2l-2-3.2l1.3-1.6l10.5-1.7l1.4-1.2l7-1.8l2.5-2
		l5,1.1l0.9,5l2.9-1.2l3.6,1.6l-0.2,2.6l2.7-0.3l7-4.5l-1,1.5l3.6,3.7l6.3,11.6l1.5-2.3l3.9,2.6l4-1.1l1.5,0.8l1.3,2.5l2,0.8
		l1.2,1.9l3.6-0.6l1.5,2.6l-2.1,2.8l-2.3,0.4l-0.1,4.2l-1.6,1.9l-5.6-1.4l-2,7.3l-1.4,0.9l-5.6,1.6l2.5,6.8l-1.9,1l0.2,2.2l-1.7-0.6
		l-1.4-1.4l-4.2-0.4l-4.7-0.1l-1,0.4l-4-1.6l-1.6,0.8l-0.4,2.2l-4.6-1.3l-1.8,0.5L720,357.6z"/>
	<path id="LA" class="st0" d="M816.1,447.7l0.9-1.3l0.1-2.4l-2.3-2.5l-0.2-2.9l-2.1-2.4l-2.1-0.2l-0.6,1l-1.6,0.1l-0.8-0.5l-3,1.7
		l-0.1-2.6l0.7-3.1l-1.9-0.1l-0.2-1.8l-1.2-0.9l0.6-1.1l2.4-1.9l0.2,0.7l1.5,0.1l-0.4-3.4l1.4-0.4l1.6,2.4l1.3,2.7l3.5,0l1.1,2.6
		l-1.8,0.8l-0.8,1.1l3.4,1.8l2.3,3.5l1.8,2.6l2.1,2l0.7,2l-0.5,2.9l-2.5-1.1l-1.3,2L816.1,447.7z"/>
	<path id="LB" class="st0" d="M621.5,389.5l-0.8,0.1l-0.3,0.6h-0.9l1-2.7l1.4-2.4l0.1-0.1l1.3,0.2l0.5,1.3l-1.5,1.3L621.5,389.5z"/>
	<path id="LK" class="st0" d="M750.4,466.9l-0.4,2.9l-1.2,0.8l-2.4,0.6L745,469l-0.5-4l1.3-4.6l1.9,1.6l1.3,2L750.4,466.9z"/>
	<path id="LR" class="st0" d="M499.5,475.7l-0.7,0l-2.9-1.3l-2.5-2.1l-2.4-1.5L489,469l0.7-0.9l0.1-0.8l1.3-1.5l1.3-1.3l0.6-0.1
		l0.7-0.3l1.2,1.7l-0.2,1.1l0.5,0.6l0.8,0l0.6-1.1l0.8,0.1l-0.1,0.8l0.3,1.4l-0.6,1.2l0.8,0.8l0.9,0.2l1.2,1.2l0.1,1.1l-0.3,0.4
		L499.5,475.7z"/>
	<path id="LS" class="st0" d="M602.3,572.3l1,1l-0.9,1.6l-0.5,1l-1.6,0.5l-0.5,1l-1,0.3l-2.1-2.5l1.5-2l1.5-1.2l1.3-0.6L602.3,572.3
		z"/>
	<path id="LT" class="st0" d="M584.8,306.6l-0.2-1.2l0.3-1.3l-1.2-0.8l-2.9-0.9l-0.6-4.2l3.2-1.5l4.7,0.3l2.8-0.5l0.4,1l1.5,0.3
		l2.7,2.4l0.3,2.2l-2.3,1.6l-0.7,2.7l-3,1.8l-2.7,0l-0.7-1.5L584.8,306.6z"/>
	<path id="LU" class="st0" d="M538,325.8l0.6,1l-0.2,1.9l-0.8,0.1l-0.6-0.4l0.3-2.4L538,325.8z"/>
	<path id="LV" class="st0" d="M580.1,298.3l0.1-3.8l1.4-3.2l2.6-1.8l2.2,3.9l2.2-0.1l0.5-4l2.4-0.9l1.2,0.6l2.4,1.9l2.3,0l1.3,1.2
		l0.2,2.5l0.9,3l-3,1.9l-1.7,0.8l-2.7-2.4l-1.5-0.3l-0.4-1l-2.8,0.5l-4.7-0.3L580.1,298.3z"/>
	<path id="LY" class="st0" d="M562.7,422.5l-2,1.1l-1.6-1.7l-4.4-1.3l-1.2-1.9l-2.2-1.4l-1.3,0.6l-1-1.7l-0.1-1.3l-1.7-2.3l1.1-1.3
		l-0.2-2l0.4-1.7l-0.2-1.4l0.5-2.6l-0.2-1.5l-0.9-2.8l1.4-0.8l0.2-1.4l-0.3-1.4l1.9-1.3l0.9-1.1l1.4-0.9l0.2-2.6l3.3,1.1l1.2-0.3
		l2.3,0.6l3.7,1.5l1.3,2.9l2.5,0.6l4,1.4l3,1.6l1.4-0.8l1.3-1.5l-0.6-2.5l0.9-1.6l2-1.6l1.9-0.4l3.8,0.7l1,1.5l1,0l0.9,0.6l2.8,0.4
		l0.7,1.1l-1,1.6l0.4,1.4l-0.7,2l0.8,2.6v11.2v11.2v6l-3.2,0l0,1.2l-11.2-5.7l-11.2-5.8L562.7,422.5z"/>
	<path id="MA" class="st0" d="M496.8,407.7l0-3.8l4.5-2.4l2.8-0.5l2.3-0.9l1.1-1.6l3.3-1.3l0.1-2.4l1.6-0.3l1.3-1.2l3.7-0.6l0.5-1.3
		l-0.7-0.7l-1-3.5l-0.2-2l-1.1-2.2l-1.2,0l-2.9-0.8l-2.7,0.2l-1.7-1.5l-2.1,0l-0.9,2.1l-1.9,3.5l-2.1,1.4l-2.8,1.5l-1.8,2.2
		l-0.4,1.7l-1.1,2.8l0.7,4l-2.3,2.7l-1.4,0.9l-2.2,2.2l-2.6,0.4l-1.3,1.1l3.6,0L496.8,407.7L496.8,407.7L496.8,407.7l-8.8-0.1
		l-3.6,0L496.8,407.7z"/>
	<path id="MD" class="st0" d="M595.7,334l0.7-0.6l1.9-0.4l2.1,1.3l1.2,0.2l1.3,1.1l-0.2,1.4l1,0.7l0.4,1.7l1,1l-0.2,0.6l0.5,0.4
		l-0.7,0.3l-1.7-0.1l-0.3-0.6l-0.6,0.3l0.2,0.7l-0.8,1.3l-0.5,1.4l-0.7,0.4l-0.5-1.8l0.3-1.7l-0.1-1.8l-1.6-2.4l-0.9-1.8l-0.9-1.2
		L595.7,334z"/>
	<path id="ME" class="st0" d="M576.6,356.8l-0.2-0.7l-1.2,1.9l0.2,1.2l-0.6-0.3l-0.8-1.2l-1.2-0.8l0.3-0.6l0.4-2.1l0.9-0.9l0.5-0.4
		l0.7,0.7l0.4,0.5l0.9,0.4l1.1,0.8l-0.2,0.3l-0.5,0.9L576.6,356.8z"/>
	<path id="MG" class="st0" d="M660,522.9l0.7,1.2l0.7,1.9l0.5,3.5l0.7,1.4l-0.3,1.4l-0.5,0.9l-1-1.7l-0.5,0.9l0.5,2.1l-0.2,1.2
		l-0.8,0.7l-0.2,2.5l-1.1,3.4l-1.4,4.1l-1.7,5.7l-1.1,4.2l-1.3,3.5l-2.3,0.7l-2.5,1.3l-1.6-0.8l-2.2-1.1l-0.8-1.6l-0.2-2.7l-1-2.4
		l-0.3-2.2l0.5-2.2l1.3-0.5l0-1l1.3-2.3l0.2-1.9l-0.6-1.4l-0.5-1.9l-0.2-2.7l1-1.6l0.4-1.8l1.4-0.1l1.6-0.6l1-0.5l1.2,0l1.6-1.6
		l2.3-1.8l0.8-1.4l-0.4-1.2l1.2,0.3l1.6-2l0-1.7l0.9-1.3L660,522.9z"/>
	<path id="MK" class="st0" d="M578.8,359.2l0.4,0l0.1-0.8l1.7-0.6l0.6-0.1l1-0.2l1.3-0.1l1.4,1.2l0.2,2.5l-0.5,0.1l-0.5,0.6
		l-1.5-0.1l-1.1,0.8l-1.8,0.3l-1.2-0.9l-0.4-1.6L578.8,359.2z"/>
	<path id="ML" class="st0" d="M487,446.7l0.9-0.5l0.5-1.7l0.9-0.1l2,0.8l1.6-0.6l1.1,0.2l0.4-0.6l11.2,0l0.6-2l-0.5-0.4l-1.3-12.7
		l-1.4-13.1l4.3-0.1l9.5,6.7l9.5,6.5l0.7,1.4l1.8,0.9l1.3,0.5l0,1.9l3.1-0.3l0,6.8l-1.5,1.9l-0.2,1.8l-2.5,0.4l-3.8,0.2l-1,1
		l-1.8,0.1l-1.8,0l-0.7-0.5l-1.5,0.4l-2.6,1.2l-0.5,0.9l-2.2,1.3l-0.4,0.7l-1.2,0.6l-1.4-0.4l-0.8,0.7l-0.4,2l-2.2,2.4l0.1,1
		l-0.8,1.2l0.2,1.6l-1.2,0.4l-0.6,0.4l-0.4-1.2l-0.8,0.3l-0.5-0.1l-0.5,0.8l-2.2,0l-0.8-0.4l-0.4,0.3l-0.9-0.8l0.1-0.8l-0.4-0.3
		l-0.6,0.3l0.1-0.9l0.6-0.7l-1.1-1.2l-0.3-0.8l-0.6-0.6l-0.6-0.1l-0.7,0.4l-0.9,0.4l-0.8,0.6l-1.2-0.2l-0.8-0.7l-0.5-0.1l-0.7,0.4
		l-0.4,0l-0.2-1l0.1-0.9l-0.2-1.1l-1-0.8l-0.5-1.6L487,446.7z"/>
	<path id="MM" class="st0" d="M800.2,430.5l-1.6,1.3l-2,0.1l-1.3,3.2l-1.2,0.5l1.4,2.6l1.8,2.1l1.1,1.9l-1,2.5l-1,0.5l0.7,1.4
		l1.9,2.3l0.3,1.6l0,1.3l1.1,2.6l-1.5,2.7l-1.4,2.9l-0.3-2.1l0.9-2.2l-0.9-1.7l0.2-3.1l-1.1-1.5l-0.9-3.4l-0.5-3.7l-1.2-2.4
		l-1.8,1.5l-3.2,2.1l-1.6-0.3l-1.7-0.7l1-3.6l-0.6-2.7l-2.2-3.4l0.3-1.1l-1.6-0.4l-2-2.4l-0.2-2.4l1,0.5l0.1-2.1l1.4-0.7l-0.3-1.3
		l0.6-1l0.1-3.1l2.2,0.7l1.2-2.5l0.2-1.5l1.5-2.6l-0.1-1.8l3.6-2.2l2,0.6l-0.2-1.9l1-0.6l-0.2-1.2l1.6-0.2l0.9,1.9l1.2,0.8l0.1,2.4
		l-0.1,2.6l-2.6,2.6l-0.3,3.6l3-0.5l0.7,2.8l1.8,0.6l-0.8,2.5l2.1,1.1l1.2,0.6l2-0.9l0.1,1.2l-2.4,1.9l-0.6,1.1L800.2,430.5z"/>
	<path id="MN" class="st0" d="M767.1,329.4l3-0.7l5.3-3.7l4.3-2.1l2.4,1.4l2.9,0.1l1.9,2.1l2.8,0.1l4.1,1.1l2.7-3l-1.1-2.6l2.9-4.7
		l3.1,1.9l2.5,0.5l3.3,1.1l0.5,3.3l4,1.8l2.6-0.8l3.5-0.6l2.8,0.6l2.8,2.1l1.7,2.2l2.6,0l3.5,0.7l2.6-1.1l3.7-0.7l4.1-3.1l1.7,0.5
		l1.5,1.5l3.3-0.4l-1.4,3.2l-2,4.2l0.7,1.7l1.6-0.5l2.8,0.6l2.2-1.5l2.2,1.3l2.5,2.9l-0.3,1.5l-2.2-0.5l-4.1,0.5l-2,1.2l-2,2.7
		l-4.3,1.5l-2.8,2.1l-2.9-0.8l-1.6-0.4l-1.5,2.5l0.9,1.5l0.5,1.3l-2,1.3l-2,2.1l-3.3,1.3l-4.2,0.1l-4.5,1.3l-3.3,2l-1.2-1.2h-3.4
		l-4.1-2.3l-2.8-0.6l-3.7,0.5l-5.8-0.9l-3.1,0.1l-1.6-2.3l-1.3-3.6l-1.7-0.4l-3.4-2.5l-3.8-0.5l-3.3-0.7l-1-1.7l1.1-4.7l-1.9-3.3
		l-4-1.6l-2.4-2.2L767.1,329.4z"/>
	<path id="MR" class="st0" d="M487,446.7l-1.9-2l-1.7-2.1l-1.9-0.8l-1.3-0.9l-1.6,0l-1.4,0.6l-1.4-0.2l-1,0.9l-0.2-1.6l0.8-1.4
		l0.4-2.8l-0.3-2.9l-0.3-1.5l0.3-1.5l-0.7-1.4l-1.5-1.3l0.6-1l11,0l-0.5-4.3l0.7-1.6l2.6-0.3l-0.1-7.9l9.2,0.2v-4.7l10.6,7.5
		l-4.3,0.1l1.4,13.1l1.3,12.7l0.5,0.4l-0.6,2l-11.2,0l-0.4,0.6l-1.1-0.2l-1.6,0.6l-2-0.8l-0.9,0.1l-0.5,1.7L487,446.7z"/>
	<path id="MW" class="st0" d="M618,520.2l-0.8,2.2l0.8,3.7l1,0l1,0.9l1.2,2.1l0.2,3.7l-1.2,0.6l-0.9,2l-1.8-1.8l-0.2-2l0.6-1.3
		l-0.2-1.2l-1.1-0.7l-0.8,0.3l-1.6-1.4l-1.5-0.7l0.9-2.7l0.9-1l-0.5-2.4l0.6-2.3l0.5-0.8l-0.7-2.4l-1.3-1.3l2.7,0.5l0.6,0.8l1,1.3
		L618,520.2z"/>
	<path id="MX" class="st0" d="M248.7,413.2l-1.1,2.7l-0.5,2.2l-0.2,4.1l-0.3,1.5l0.5,1.6l0.9,1.5l0.6,2.3l1.9,2.2l0.6,1.7l1.1,1.4
		l3,0.8l1.2,1.2l2.5-0.8l2.1-0.3l2.1-0.5l1.8-0.5l1.8-1.2l0.7-1.7l0.2-2.5l0.5-0.9l1.9-0.8l3-0.7l2.5,0.1l1.7-0.2l0.7,0.6l-0.1,1.4
		l-1.5,1.8l-0.7,1.8l0.5,0.5l-0.4,1.3l-0.7,2.3l-0.7-0.8l-0.6,0l-0.5,0l-1,1.8l-0.5-0.3l-0.3,0.1l0,0.4l-2.6,0h-2.6v1.6h-1.3l1,1
		l1,0.7l0.3,0.6l0.5,0.2l-0.1,1l-3.6,0l-1.3,2.4l0.4,0.5l-0.3,0.7l-0.1,0.8l-3.2-3.1l-1.5-0.9l-2.3-0.8l-1.6,0.2l-2.3,1.1l-1.4,0.3
		l-2-0.8l-2.1-0.6l-2.6-1.3l-2.1-0.4l-3.2-1.4l-2.3-1.4l-0.7-0.8l-1.6-0.2l-2.9-0.9l-1.2-1.3l-3-1.7l-1.4-1.9l-0.7-1.5l0.9-0.3
		l-0.3-0.9l0.6-0.8l0-1l-0.9-1.3l-0.3-1.2l-0.9-1.5l-2.5-3l-2.8-2.4l-1.4-1.9l-2.4-1.3l-0.5-0.8l0.4-1.9l-1.4-0.7l-1.7-1.5l-0.7-2.2
		l-1.5-0.3l-1.6-1.7l-1.3-1.5l-0.1-1l-1.5-2.4l-1-2.5l0-1.2l-2-1.3l-0.9,0.1l-1.6-0.9l-0.4,1.3l0.5,1.6l0.3,2.4l1,1.3l2.1,2.2
		l0.5,0.8l0.4,0.2l0.4,1.1l0.5-0.1l0.6,2l0.9,0.8l0.6,1.1l1.8,1.6l0.9,2.9l0.8,1.4l0.8,1.4l0.2,1.6l1.3,0.1l1.1,1.4l1,1.4l-0.1,0.5
		l-1.2,1.1l-0.5,0l-0.7-1.8L210,419l-2-1.5l-1.4-0.8l0.1-2.2l-0.4-1.7l-1.3-1l-1.9-1.4l-0.4,0.4l-0.7-0.8l-1.7-0.8l-1.6-1.8l0.2-0.2
		l1.1,0.2l1-1.2l0.1-1.4l-2.2-2.3l-1.6-0.9l-1-2l-1-2.1l-1.3-2.6l-1.1-3l3.2-0.2l3.6-0.4l-0.3,0.6l4.2,1.6l6.4,2.3l5.6,0h2.2v-1.4
		h4.9l1,1.2l1.4,1l1.7,1.4l0.9,1.7l0.7,1.8l1.5,1l2.3,1l1.8-2.5l2.3-0.1l2,1.3l1.4,2.2l1,1.9l1.7,1.8l0.6,2.2l0.8,1.5l2.2,1l2,0.7
		L248.7,413.2z"/>
	<path id="MY" class="st0" d="M804.5,470.6l0.2,1.4l1.8-0.3l0.9-1.1l0.6,0.3l1.7,1.7l1.2,1.9l0.2,1.9l-0.3,1.3l0.3,1l0.2,1.6l1,0.8
		l1.1,2.5l0,0.9l-2,0.2l-2.7-2.1l-3.3-2.2l-0.3-1.4l-1.6-1.9l-0.4-2.3l-1-1.5l0.3-2l-0.6-1.2l0.5-0.5L804.5,470.6z M853.7,475.4
		l-2.1,1l-2.4-0.5H846l-1,3.2l-1.1,1l-1.4,3.9l-2.3,0.6l-2.7-0.8l-1.3,0.2l-1.6,1.4l-1.8-0.2l-1.8,0.6l-1.9-1.6l-0.5-1.9l2,1
		l2.2-0.5l0.6-2.4l1.2-0.5l3.4-0.6l2-2.2l1.4-1.8l1.3,1.5l0.6-1l1.3,0.1l0.2-1.8l0.1-1.4l2.2-2l1.4-2.2l1.1,0l1.4,1.4l0.1,1.2
		l1.8,0.8l2.3,0.8l-0.2,1.1l-1.9,0.1L853.7,475.4z"/>
	<path id="MZ" class="st0" d="M618,520.2l2.1-0.2l3.4,0.8l0.7-0.4l2-0.1l1-0.8l1.7,0l3.1-1.1l2.2-1.6l0.5,1.3l-0.1,2.8l0.3,2.5
		l0.1,4.5l0.5,1.4l-0.8,2.1l-1.1,2l-1.8,1.8l-2.6,1.1l-3.2,1.4l-3.2,3.2l-1.1,0.5l-2,2.1l-1.2,0.7l-0.2,2.1l1.3,2.2l0.5,1.8l0,0.9
		l0.5-0.1l-0.1,3l-0.5,1.4l0.7,0.5l-0.4,1.3l-1.2,1.1l-2.3,1l-3.4,1.7l-1.2,1.1l0.2,1.3l0.7,0.2l-0.2,1.6l-2.1,0l-0.2-1.4l-0.4-1.4
		l-0.2-1.1l0.5-3.4l-0.7-2.2l-1.3-4.3l2.9-3.4l0.7-2.2l0.4-0.3l0.3-1.7l-0.5-0.9l0.1-2.2l0.5-2l0-3.7l-1.4-0.9l-1.3-0.2l-0.6-0.7
		l-1.3-0.6l-2.3,0.1l-0.2-1.1l-0.3-2l8.5-2.4l1.6,1.4l0.8-0.3l1.1,0.7l0.2,1.2l-0.6,1.3l0.2,2l1.8,1.8l0.9-2l1.2-0.6l-0.2-3.7
		L620,527l-1-0.9l-1,0l-0.8-3.7L618,520.2z"/>
	<path id="NA" class="st0" d="M566.9,571.1l-2.1-2.4l-1.1-2.3l-0.6-3l-0.7-2.2l-0.9-4.7l-0.1-3.6l-0.4-1.6l-1.1-1.2l-1.5-2.5
		l-1.5-3.6l-0.6-1.8l-2.3-2.9l-0.2-2.2l1.3-0.6l1.7-0.5l1.8,0.1l1.7,1.3l0.4-0.2l11.4-0.1l1.9,1.4l6.8,0.4l5.2-1.2l2.3-0.7l1.8,0.2
		l1.1,0.7l0,0.2l-1.6,0.7l-0.9,0l-1.8,1.2l-1.1-1.2l-4.3,1l-2.1,0.1l-0.1,10.6l-2.8,0.1v8.9l0,11.5l-2.5,1.6l-1.5,0.2l-1.8-0.6
		l-1.3-0.2l-0.5-1.4l-1.1-0.9L566.9,571.1z"/>
	<path id="NC" class="st0" d="M985.9,548l2.3,1.9l1.5,1.4l-1.1,0.7l-1.6-0.8l-2-1.3l-1.8-1.6l-1.8-2.1l-0.4-1l1.2,0l1.6,1l1.2,1
		L985.9,548z"/>
	<path id="NE" class="st0" d="M527.1,454.4l0.1-2l-3.2-0.6l-0.1-1.4l-1.6-1.9l-0.4-1.3l0.2-1.4l1.8-0.1l1-1l3.8-0.2l2.5-0.4l0.2-1.8
		l1.5-1.9l0-6.8l4-1.3l8.1-5.9l9.6-5.8l4.4,1.3l1.6,1.7l2-1.1l0.7,4.7l1,0.8l0,0.9l1.2,1l-0.6,1.3l-1.1,6l-0.1,3.8l-3.6,2.7
		l-1.2,3.8l1.2,1.1l0,1.9l1.8,0.1l-0.3,1.3l-0.8,0.2l-0.1,0.9l-0.5,0.1l-1.9-3.1l-0.7-0.1l-2.2,1.6l-2.2-0.8l-1.5-0.2l-0.8,0.4
		l-1.7-0.1l-1.6,1.2l-1.4,0.1l-3.4-1.5l-1.3,0.7l-1.4,0l-1-1.1l-2.8-1.1l-3,0.3l-0.7,0.6l-0.4,1.6l-0.8,1.2l-0.2,2.5l-2.1-1.6l-1,0
		L527.1,454.4z"/>
	<path id="NG" class="st0" d="M544.9,474.6l-2.9,1l-1.1-0.1l-1.1,0.6l-2.2-0.1l-1.5-1.8l-0.9-2l-2-1.8l-2.1,0h-2.5l0.2-4.5l-0.1-1.8
		l0.5-1.8l0.9-0.9l1.4-1.8l-0.3-0.8l0.5-1.1l-0.6-1.7l0.1-1l0.2-2.5l0.8-1.2l0.4-1.6l0.7-0.6l3-0.3l2.8,1.1l1,1.1l1.4,0l1.3-0.7
		l3.4,1.5l1.4-0.1l1.6-1.2l1.7,0.1l0.8-0.4l1.5,0.2l2.2,0.8l2.2-1.6l0.7,0.1l1.9,3.1l0.5-0.1l1.1,1.1l-0.3,0.5l-0.2,0.9l-2.4,2.2
		l-0.7,1.8l-0.4,1.5l-0.6,0.6l-0.6,2l-1.5,1.2l-0.4,1.4l-0.6,1.1l-0.3,1.2l-1.9,0.9l-1.6-1.1l-1.1,0l-1.7,1.6l-0.8,0l-1.3,2.7
		L544.9,474.6z"/>
	<path id="NI" class="st0" d="M280.8,456.8l-1-0.9l-1.3-1.1l-0.6-1l-1.2-0.9l-1.4-1.3l0.3-0.4l0.5,0.4l0.2-0.2l0.9-0.1l0.4-0.7
		l0.4,0l-0.1-1.4l0.7-0.1l0.6,0l0.6-0.8l0.8,0.6l0.3-0.4l0.5-0.3l1-0.8l0-0.6l0.3,0l0.4-0.7l0.3-0.1l0.5,0.4l0.6,0.1l0.6-0.4h0.7
		l1-0.4l0.4-0.4l1,0.1l-0.2,0.3l-0.1,0.6l0.3,1.1l-0.6,1l-0.3,1.2l-0.1,1.3l0.2,0.7l0.1,1.3l-0.4,0.3l-0.3,1.2l0.2,0.8L286,456
		l0.1,0.8l0.4,0.5l-0.7,0.6l-0.8-0.2l-0.5-0.6l-0.9-0.2l-0.6,0.4l-1.8-0.8L280.8,456.8z"/>
	<path id="NL" class="st0" d="M538.1,310.5l2.3,0.1l0.5,1.6l-0.7,4.2l-0.7,1.7h-1.7l0.5,4.7l-1.5-1l-1.8-2l-2.6,0.9l-2.1-0.4
		l1.4-1.2l2.5-6.7L538.1,310.5z"/>
	<path id="NO" class="st0" d="M600.1,200.1l8.8,6.2l-3.6,2.2l3.1,5.1l-4.8,3.2l-2.3,0.7l1.2-5.6l-3.6-3.2l-4.3,2.8l-1.4,5.9
		l-2.7,3.4l-3-1.9l-3.7,0.4l-3.1-4.1l-1.7,2.1l-1.7,0.3l-0.4,5.1l-5.3-1.2l-0.7,4.2l-2.7,0l-1.8,5.2l-2.8,7.9l-4.3,9.5l1,2.2l-1,2.6
		l-2.8-0.1l-1.8,5.9l0.2,8l1.8,3l-0.9,6.7l-2.3,3.8l-1.2,3.1l-1.9-3.4l-5.5,6.3l-3.7,1.2L537,285l-1-5.9l-0.9-13.3l2.6-3.9l7.4-5.2
		l5.5-6.6l5.1-9.3l6.7-13.8l4.7-5.7l7.7-9.9l6.2-3.6l4.6,0.4l4.3-7l5.1,0.4L600.1,200.1z"/>
	<path id="NP" class="st0" d="M768.2,407l-0.2,1.3l0.4,2l-0.3,1.2l-2.3,0l-3.4-0.7l-2.2-0.3l-1.6-1.6l-3.8-0.4l-3.7-1.8l-2.6-1.6
		l-2.7-1.2l1.1-3l1.8-1.5l1.2-0.8l2.2,1l2.8,2.1l1.6,0.5l0.9,1.5l2.2,0.6l2.3,1.4l3.2,0.7L768.2,407z"/>
	<path id="NZ" class="st0" d="M1006.2,613.2l0.6,1.5l2-1.5l0.8,1.6v1.6l-1,1.7l-1.8,2.8l-1.4,1.5l1,1.9l-2.2,0l-2.4,1.5l-0.8,2.6
		l-1.6,4l-2.2,1.8l-1.4,1.2l-2.6-0.1l-1.8-1.3l-3-0.3l-0.5-1.5l1.5-3l3.5-3.9l1.8-0.7l2-1.5l2.4-2l1.7-2l1.2-2.8l1.1-1l0.4-2.1
		l2-1.7L1006.2,613.2z M1010.7,596.1l2,3.7l0.1-2.4l1.3,1l0.4,2.7l2.3,1.2l1.9,0.3l1.6-1.3l1.4,0.4l-0.7,3.2l-0.8,2.1l-2.1-0.1
		l-0.8,1.1l0.3,1.6l-0.4,0.7l-1.1,2l-1.4,2.5l-2.2,1.5l-0.5-1l-1.2-0.5l1.6-3l-0.9-2l-3-1.5l0.1-1.3l2-1.2l0.5-2.7l-0.1-2.3
		l-1.1-2.3l0.1-0.6l-1.3-1.4l-2.2-3l-1.2-2.4l1-0.3l1.5,1.9l2.2,0.9L1010.7,596.1z"/>
	<path id="OM" class="st0" d="M686.1,427.7l-1,2l-1.3-0.2l-0.6,0.7l-0.5,1.5l0.3,2l-0.3,0.4l-1.3,0l-1.8,1.1l-0.3,1.4l-0.6,0.6
		l-1.7,0l-1.1,0.7l0,1.2l-1.4,0.8l-1.5-0.3l-1.9,1l-1.3,0.2l-0.9-2l-2.2-4.8l8.4-3l1.9-6l-1.3-2.1l0.1-1.2l0.8-1.3l0-1.2l1.3-0.6
		l-0.5-0.4l0.2-2l1.4,0l1.3,2.1l1.6,1.1l2.1,0.4l1.7,0.5l1.3,1.7l0.8,1l1,0.4l0,0.7l-1,1.8l-0.5,0.8L686.1,427.7z M679.2,413.2
		l-0.4,0.6l-0.5-1.1l0.8-1.1l0.3,0.3L679.2,413.2z"/>
	<path id="PA" class="st0" d="M302.7,467.7l-0.9-0.8l-0.6-1.5l0.7-0.8l-0.7-0.2l-0.5-0.9l-1.4-0.8l-1.2,0.2l-0.6,1l-1.1,0.7
		l-0.6,0.1l-0.3,0.6l1.3,1.5l-0.8,0.4l-0.4,0.4l-1.3,0.1l-0.5-1.7l-0.4,0.5l-0.9-0.2l-0.6-1.1l-1.1-0.2l-0.7-0.3h-1.2l-0.1,0.6
		l-0.3-0.4l0.1-0.6l0.2-0.6l-0.1-0.5l0.4-0.3l-0.6-0.4l0-1.1l1.1-0.2l1,1l-0.1,0.6l1.1,0.1l0.3-0.2l0.8,0.7l1.4-0.2l1.2-0.7l1.7-0.6
		l1-0.8l1.6,0.2l-0.1,0.3l1.6,0.1l1.2,0.5l0.9,0.8l1.1,0.8l-0.3,0.4l0.6,1.6l-0.5,0.8l-0.9-0.2L302.7,467.7z"/>
	<path id="PE" class="st0" d="M326,537.7l-0.8,1.5l-1.4,0.7l-2.8-1.7l-0.2-1.2l-5.6-2.9l-5-3.2l-2.2-1.8l-1.2-2.4l0.5-0.8l-2.4-3.8
		l-2.8-5.2l-2.6-5.6l-1.1-1.3l-0.9-2.1l-2.2-1.8l-2-1.1l0.9-1.2l-1.4-2.7l0.9-1.9l2.2-1.8l0.3,1.2l-0.8,0.7l0.1,1l1.2-0.2l1.1,0.3
		l1.2,1.4l1.6-1.1l0.5-1.9l1.7-2.4l3.4-1.1l3.1-2.9l0.9-1.8l-0.4-2.1l0.8-0.3l1.9,1.3l0.9,1.3l1.3,0.7l1.6,2.9l2.1,0.4l1.6-0.7
		l1,0.5l1.7-0.2l2.1,1.3l-1.8,2.8l0.8,0.1l1.4,1.5l-2.5-0.1l-0.4,0.4l-2.3,0.5l-3.2,1.9l-0.2,1.3l-0.7,1l0.3,1.5l-1.7,0.8v1.2
		l-0.7,0.5l1.2,2.5l1.6,1.7l-0.6,1.2l1.9,0.2l1.1,1.5l2.5,0.1l2.3-1.7l-0.2,4.3l1.3,0.3l1.6-0.5l2.4,4.6l-0.6,1l-0.1,2l-0.1,2.4
		l-1.1,1.4l0.5,1.1l-0.6,1l1.2,2.4L326,537.7z"/>
	<path id="PG" class="st0" d="M958.1,506.9l-0.8,0.3l-1.2-1.1l-1.2-1.8l-0.6-2.1l0.4-0.3l0.3,0.8l0.8,0.6l1.4,1.8l1.3,1L958.1,506.9
		z M947.2,503.2l-1.5,0.2l-0.4,0.8l-1.5,0.7l-1.4,0.7h-1.5l-2.3-0.8l-1.6-0.8l0.2-0.9l2.5,0.4l1.5-0.2l0.4-1.3l0.4-0.1l0.3,1.5
		l1.6-0.2l0.8-1l1.6-1l-0.3-1.6l1.7,0l0.6,0.5l-0.1,1.5L947.2,503.2z M933.8,508.5l2.5,1.8l1.8,3l1.6-0.1l-0.1,1.2l2.2,0.5l-0.8,0.5
		l3,1.2l-0.3,0.8l-1.9,0.2l-0.7-0.7l-2.4-0.3l-2.8-0.4l-2.2-1.8l-1.6-1.5l-1.5-2.5l-3.7-1.2l-2.4,0.8l-1.7,0.9l0.4,2.1l-2.2,1
		l-1.6-0.5l-2.9-0.1l0-9.2l0-9.1l4.9,1.9l5.2,1.6l1.9,1.4l1.6,1.4l0.4,1.6l4.7,1.7l0.7,1.5l-2.6,0.3L933.8,508.5z M950.5,500.5
		l-0.9,0.7l-0.5-1.6l-0.7-1.1l-1.3-0.9l-1.6-1.2l-2-0.8l0.8-0.7l1.5,0.8l1,0.6l1.2,0.7l1.1,1.2l1.1,0.9L950.5,500.5z"/>
	<path id="PH" class="st0" d="M875.4,464.4l0.3,1.9l0.2,1.6l-1,2.6l-1-2.9l-1.3,1.4l0.9,2.1l-0.8,1.3l-3.3-1.6l-0.8-2l0.9-1.3
		l-1.8-1.3l-0.9,1.2l-1.3-0.1l-2.1,1.6l-0.5-0.8l1.1-2.4l1.8-0.8l1.5-1.1l1,1.3l2.1-0.8l0.5-1.3l2-0.1l-0.2-2.2l2.3,1.3l0.2,1.4
		L875.4,464.4z M868.7,459.1l-1,0.9l-0.9,1.8l-0.9,0.8l-1.7-2l0.6-0.8l0.7-0.8l0.3-1.8l1.5-0.2l-0.5,1.9l2.1-2.7L868.7,459.1z
		 M853.3,461.8l-3.7,2.7l1.4-2l2-1.7l1.7-2l1.5-2.8l0.5,2.3l-1.8,1.6L853.3,461.8z M862.8,454.5l1.7,0.9h1.8l0,1.2l-1.3,1.2
		l-1.8,0.9l-0.1-1.3l0.2-1.5L862.8,454.5z M873,453.8l0.8,3.2l-2.2-0.8l0.1,1l0.7,1.8l-1.3,0.6l-0.1-2l-0.8-0.1l-0.4-1.7l1.7,0.2
		l0-1.1l-1.7-2.2l2.7,0.1L873,453.8z M861.8,451.2l-0.7,2.5l-1.2-1.4l-1.4-2.2l2.4,0.1L861.8,451.2z M861.2,435.4l1.7,0.8l0.9-0.8
		l0.2,0.8l-0.5,1.2l1,2.1l-0.7,2.4l-1.7,1l-0.4,2.3l0.6,2.3l1.5,0.3l1.2-0.3l3.5,1.6l-0.3,1.6l0.9,0.7l-0.3,1.3l-2.2-1.4l-1-1.5
		l-0.7,1l-1.8-1.7l-2.5,0.4l-1.4-0.6l0.1-1.2l0.9-0.7l-0.8-0.7l-0.4,1l-1.4-1.6l-0.4-1.3l-0.1-2.8l1.1,1l0.3-4.5l0.9-2.7
		L861.2,435.4z"/>
	<path id="PL" class="st0" d="M563.2,321.5l-1.1-2.9l0.2-1.6l-0.7-2.4l-1-1.6l0.8-1.2l-0.7-2.4l1.9-1.4l4.4-2.2l3.5-1.6l2.8,0.8
		l0.2,1.2l2.7,0.1l3.5,0.6l5.2-0.1l1.4,0.5l0.7,1.5l0.1,2.1l0.8,1.8l0,1.9l-1.7,0.9l0.9,2.1l0,2l1.4,3.9l-0.3,1.2l-1.4,0.5l-2.5,3.6
		l0.7,1.9l-0.6-0.2l-2.7-1.6l-2,0.6l-1.3-0.4l-1.7,0.9l-1.4-1.5l-1.2,0.6l-0.2-0.3l-1.3-2.1l-2.1-0.3l-0.3-1.4l-1.9-0.5l-0.4,1.1
		l-1.5-0.9l0.2-1.2l-2.1-0.4L563.2,321.5z"/>
	<path id="PK" class="st0" d="M731.8,376.3l2.1,1.6l0.8,2.7l4.6,1.4l-2.7,2.9l-3.1,0.5l-4.3-0.8l-1.4,1.5l1,3l1,2.2l2.3,1.6
		l-2.4,1.9l0,2.3l-2.7,3.2l-1.8,3.3l-2.9,3.3l-3.3-0.2l-3.1,3.3l1.8,1.4l0.3,2.4l1.6,1.6l0.6,2.6l-6.2,0l-1.9,2l-2-0.8l-0.8-2.2
		l-2.2-2.3l-5.2,0.6l-4.6,0.1l-4,0.4l1.1-3.6l4-1.6l-0.2-1.4l-1.3-0.5l-0.1-2.8l-2.7-1.4l-1.1-1.9l-1.4-1.7l4.7,1.6l2.8-0.5l1.7,0.4
		l0.6-0.7l2,0.3l3.7-1.3l0.1-2.8l1.6-1.8h2.1l0.3-0.9l2.1-0.4l1,0.3l1.1-0.9l-0.1-2l1.2-2l1.8-0.9l-1.1-2.2l2.7,0.1l0.8-1.2
		l-0.1-1.3l1.4-1.4l-0.3-1.7l-0.7-1.5l1.6-1.5l3-0.7l3.2-0.4l1.4-0.6L731.8,376.3z"/>
	<path id="PR" class="st0" d="M335.2,435.4l1.4,0.3l0.5,0.6l-0.7,0.7l-2.1,0l-1.6,0.1l-0.2-1.2l0.4-0.4L335.2,435.4z"/>
	<path id="PS" class="st0" d="M620.7,392.4v2l-0.4,1l-1.3,0.5l0.1-0.9l0.7-0.5l-0.7-0.4l0.6-2.2L620.7,392.4z"/>
	<path id="PT" class="st0" d="M495.7,359.1l1-1l1.1-0.5l0.7,1.8l1.6,0l0.5-0.5l1.6,0.1l0.8,1.9l-1.3,1l0,2.9l-0.5,0.5l-0.1,1.7
		l-1.2,0.3l1.1,2.2l-0.8,2.4l1,1.1l-0.4,1l-1,1.3l0.2,1.2l-1.1,0.9l-1.5-0.5l-1.5,0.4l0.4-2.7l-0.3-2.2L495,372l-0.7-1.4l0.2-2.4
		l1.1-1.3l0.2-1.5l0.6-2.2l-0.1-1.6l-0.6-1.3L495.7,359.1z"/>
	<path id="PY" class="st0" d="M345.3,551.5l1.1-3.6l0.1-1.6l1.3-2.6l4.9-0.9l2.6,0l2.6,1.5l0,0.9l0.8,1.7l-0.2,4.1l3,0.6l1.1-0.6
		l1.9,0.8l0.5,0.9l0.3,2.8l0.3,1.2l1,0.1l1.1-0.5l1,0.5v1.7l-0.4,1.8l-0.6,1.8l-0.5,2.8l-2.5,2.4l-2.2,0.5l-3.1-0.5l-2.8-0.8
		l2.8-4.7l-0.4-1.4l-2.9-1.2l-3.4-2.3l-2.3-0.5L345.3,551.5z"/>
	<path id="QA" class="st0" d="M663.5,416.7l-0.2-2.2l0.8-1.6l0.8-0.3l0.9,1l0,1.8l-0.6,1.8l-0.8,0.2L663.5,416.7z"/>
	<path id="RO" class="st0" d="M584.8,335.4l1.2-0.9l1.7,0.5l1.8,0l1.3,1l1-0.6l2.1-0.4l0.7-1l1.2,0l0.8,0.4l0.9,1.2l0.9,1.8l1.6,2.4
		l0.1,1.8l-0.3,1.7l0.5,1.8l1.2,0.7l1.3-0.6l1.3,0.7l0.1,1l-1.4,0.8l-0.9-0.4l-0.8,4.7l-1.7-0.4l-2-1.4l-3.3,0.9l-1.4,1l-4.1-0.2
		l-2.2-0.6l-1.1,0.3l-0.8-1.6l-0.5-0.7l0.6-0.7l-0.7-0.5l-0.9,0.9l-1.6-1.1l-0.2-1.6l-1.7-0.9l-0.3-1.3l-1.5-1.6l2.2-0.8l1.7-2.8
		l1.3-2.8L584.8,335.4z"/>
	<path id="RS" class="st0" d="M579.6,345.4l1.7,0.9l0.2,1.6l1.6,1.1l0.9-0.9l0.7,0.5l-0.6,0.7l0.5,0.7l-0.7,0.9l0.2,1.4l1.4,1.7
		l-1.1,1.2l-0.5,1.2l0.3,0.4l-0.5,0.5l-1.3,0.1l-1,0.2l-0.1-0.3l0.3-0.5l0.3-0.9l-0.4,0l-0.5-0.7l-0.5-0.2l-0.4-0.6l-0.5-0.2
		l-0.4-0.5l-0.5,0.2l-0.4,1.3l-0.7,0.3l0.2-0.3l-1.1-0.8l-0.9-0.4l-0.4-0.5l-0.7-0.7l0.7-0.2l0.4-1.8l-1.4-1.5l0.7-1.7l-1,0l1.1-1.5
		l-0.9-1.1l-0.7-1.6l2.2-1l1.8,0.2l1.5,1.6L579.6,345.4z"/>
	<path id="RU" class="st0" d="M1054.1,240.3l-2.8,3l-4.6,0.7l-0.1,6.5l-1.1,1.4l-2.6-0.2l-2.1-2.3l-3.7-1.9l-0.6-2.9l-2.8-1.1
		l-3.2,0.9l-1.5-2.4l0.6-2.6l-3.4,1.6l1.3,3.2l-1.6,2.8l0,0l-3.6,2.9l-3.6-0.5l2.5,3.4l1.7,5.2l1.3,1.7l0.3,2.5l-0.7,1.6l-5.2-1.3
		l-7.8,4.5l-2.5,0.7l-4.3,4.1l-4.1,3.5l-1,2.6l-4-3.9l-7.3,4.4l-1.3-2.1l-2.7,2.4l-3.8-0.8l-0.9,3.6l-3.4,5.2l0.1,2.1l3.2,1.2
		l-0.4,7.5l-2.6,0.2l-1.2,4.1l1.2,2.1l-4.9,2.5l-1,5.4l-4.2,1.1l-0.8,4.7l-4,4.2l-1-3.1l-1.2-6.7l-1.6-10.6l1.3-7l2.4-3.1l0.2-2.4
		l4.4-1.2l5-6.8l4.8-5.7l5-4.6l2.2-8.4l-3.4,0.5l-1.7,4.9l-7.1,6.4l-2.3-7.1l-7.2,2l-7,9.6l2.3,3.4l-6.3,1.4l-4.3,0.6l0.2-3.9
		l-4.4-0.8l-3.5,2.7l-8.6-0.9l-9.2,1.6l-9.1,10.3L900,304.7l4.4,0.6l1.4,3l2.7,1l1.8-2.4l3.1,0.3l4,5.2l0.1,3.9l-2.2,4.5l-0.2,5.3
		l-1.3,6.9l-4.2,6l-0.9,2.8l-3.8,4.7l-3.8,4.5l-1.8,2.3l-3.7,2.2l-1.8,0l-1.8-1.9l-3.8,2.8l-0.4,1.3l-0.4-0.7l0-1.9l1.4-0.1l0.4-4.5
		l-0.7-3.4l2.4-1.4l3.4,0.7l1.9-3.9l1-4.5l1.1-1.5l1.5-3.8l-4.6,1.2l-2.4,1.6h-4.3l-1.1-4l-3.3-3l-4.9-1.4l-1-4.3l-1-2.7l-1-1.9
		l-1.7-4.6l-2.5-1.7l-4.2-1.4l-3.7,0.1l-3.5,0.8L858,314l1.5,1.1l0,2.5l-1.6,1.5l-2.5,4.7l0,1.9l-4,2.7l-3.4-1.6l-3.3,0.4l-1.5-1.5
		l-1.7-0.5l-4.1,3.1l-3.7,0.7l-2.6,1.1l-3.5-0.7l-2.6,0l-1.7-2.2l-2.8-2.1l-2.8-0.6l-3.5,0.6l-2.7,0.8l-4-1.8l-0.5-3.3l-3.3-1.1
		l-2.5-0.5l-3.1-1.9l-2.9,4.7l1.1,2.6l-2.7,3l-4-1.1l-2.8-0.2l-1.9-2l-2.9-0.1l-2.4-1.4l-4.3,2.1l-5.3,3.7l-3,0.7l-1.1,0.4l-1.5-2.6
		l-3.6,0.6l-1.2-1.8l-2-0.9l-1.3-2.5l-1.5-0.8l-4,1.1l-3.9-2.6l-1.5,2.3l-6.3-11.6l-3.6-3.7l1-1.5l-7,4.5l-2.7,0.3l0.2-2.6l-3.6-1.6
		l-2.9,1.2l-0.9-5l-5-1.1l-2.5,2l-7,1.8l-1.4,1.2l-10.5,1.7l-1.3,1.6l2,3.2l-2.7,1.2l0.5,1.2l-2.7,2.2l4.5,3.1l-0.7,2.1l-3.9-0.2
		l-0.8,1.3l-3.6-2.3l-4.5,0.1l-3,1.9l-3.3-1.8l-6.2-3.1l-4.4,0.1l-5.8,4.9l-0.3,3.2l-2.9-2.5l-2.2,4.8l0.8,0.9l-1.6,3.2l2.4,2.8
		l2.1-0.1l1.8,2.8l-0.3,2.1l1.4,0.7l-1.3,2.4l-2.7,0.7l-2.8,4.1l2.5,3.7l-0.3,2.6l3.1,4.5l-1.7,1.5l-0.5,1l-1.2-0.2l-1.9-2.3
		l-0.8-0.1l-1.8-0.9l-0.9-1.5l-2.6-0.8l-1.7,0.6l-0.5-0.7l-3.8-1.8l-4.1-0.6l-2.4-0.7l-0.3,0.5l-3.6-3.3l-3.2-1.5l-2.4-2.3l2-0.6
		l2.3-3.4l-1.6-1.6l4.1-1.7l-0.1-0.9l-2.5,0.7l0.1-1.8l1.5-1.2l2.7-0.3l0.4-1.4l-0.6-2.3l1.1-2.2l0-1.3l-4.1-1.4l-1.6,0l-1.7-2
		l-2.2,0.7l-3.6-1.5l0.1-0.9l-1-1.9l-2.2-0.2l-0.2-1.4l0.7-0.9l-1.8-2.6l-2.9,0.4l-0.8-0.2l-0.7,1l-1-0.2l-0.7-2.9l-0.7-1.5l0.5-0.4
		l2.3,0.2l1.1-1l-0.8-1.2l-1.9-0.8l0.2-0.9l-1.1-0.9l-1.8-3.1l0.6-1.3l-0.3-2.3l-2.7-1.2l-1.5,0.6l-0.4-1.2l-3-1.3l-0.9-3l-0.2-2.5
		l-1.3-1.2l1.2-1.7l-0.8-5l2-3.1l-0.4-1l3.2-3.1l-2.9-2.7l6-7.4l2.6-3.5l1-3.1l-4.2-4.3l1.2-4.1l-2.5-4.9l1.9-5.8l-3.3-8l2.6-5.5
		l-4.3-5l0.4-5.4l2.3-0.7l4.8-3.2l2.9-2.8l4.6,4.9l7.7,1.9l10.6,8.6l2.2,3.5l0.2,4.8l-3.1,3.7l-4.6,1.9l-12.5-5.3l-2.1,0.9l4.6,5.1
		l0.2,3.1l0.2,6.8l3.6,2l2.2,1.7l0.4-3.1l-1.7-2.8l1.8-2.5l6.8,4.1l2.4-1.6l-1.9-4.9l6.5-6.7l2.6,0.4l2.6,2.4l1.6-4.8l-2.3-4.3
		l1.4-4.4l-2.1-4.7l7.8,2.4l1.6,4.2l-3.5,0.9l0,4l2.2,2.4l4.3-1.5l0.7-4.6l5.9-3.5l9.8-6.5l2.1,0.4l-2.8,4.6l3.5,0.8l2-2.6l5.2-0.2
		l4.2-3.2l3.2,4.6l3.2-5.1l-2.9-4.6l1.5-2.7l8.3,2.4l3.9,2.5l10.2,8.8l1.9-4l-2.8-4.1l-0.1-1.7l-3.4-0.8l0.9-3.8l-1.5-6.5l-0.1-2.7
		l5.2-8l1.8-8.4l2.1-1.9l7.4,2.5l0.6,5.2l-2.7,7.3l1.7,2.8l0.9,5.9l-0.6,11.1l3.1,4.7l-1.2,5l-5.5,10.2l3.2,1l1.1-2.5l3.1-1.8
		l0.7-3.6l2.4-3.5l-1.6-4.3l1.3-5.1l-3.1-0.6l-0.7-4.4l2.2-8.3l-3.6-7l5-6l-0.7-6.6l1.4-0.2l1.5,5.2l-1.1,8.7l3,1.6l-1.3-6.4
		l4.7-3.6l5.8-0.5l5.2,5.2l-2.5-7.6l-0.3-10.3l4.9-2l6.7,0.4l6.1-1.3l-2.3-5.4l3.2-7l3.2-0.3l5.5-5.5l7.4-1.5l0.9-3.2l7.4-1.1
		l2.3,2.6l6.3-6.2l5.2,0.2l0.8-5.2l2.7-5.3l6.6-5.3l4.8,4.2l-3.8,3.1l6.3,1.9l0.8,6l2.6-2.9l8.2,0.2l6.3,5.8l2.2,4.4l-0.7,5.9
		l-3.1,3.2l-7.4,5.9l-2.1,3.1l3.5,1.4l4.2,2.6l2.5-1.9l1.4,6.4l1.2-2.6l4.5-1.6l9,1.6l0.7,4.6l11.7,1.4l0.2-7.5l6,1.7l4.5-0.1
		l4.5,5.1l1.3,6l-1.7,3.8l3.5,7l4.4,3.5l2.7-9.2l4.5,4l4.8-2.4l5.4,2.7l2.1-2.5l4.6,1.2l-2-8.4l3.7-4.1l25.3,6.1l2.4,5.4l7.3,6.6
		l11.3-1.6l5.6,1.4l2.3,3.5l-0.3,6l3.5,2.3l3.8-1.6l5-0.2l5.3,1.6l5.3-0.9l4.9,7l3.5-2.5l-2.3-5.1l1.2-3.6l9,2.3l5.8-0.5l8.1,3.8
		l3.9,3.4l6.9,5.9l7.3,7.3l-0.2,4.4l1.9,1.7l-0.7-5.1l7.6,1.1L1054.1,240.3z M926.7,330.8l-2.8-7.7l-1.2-4.5l0.1-4.5l-1-4.5
		l-0.7-3.1l-1.2,0.7l1.1,2.2l-2.6,2.2l-0.2,6.3l1.6,4.4l-0.1,5.9l-0.7,3.2l0.3,4.5l-0.3,4l0.5,3.4l1.8-3.1l2.1,2.4l0.1-2.8l-2.7-4.2
		l1.7-6.1L926.7,330.8z M583.6,303.3l-2.9-0.9l-3.9,1.6l-0.6,2.1l3.5,0.5l5.2-0.1l-0.2-1.2l0.3-1.3L583.6,303.3z M1025.8,203.2
		l3.7-0.5l2.9-2.1l0.2-1.2l-4.1-2.5l-2.4,0l-0.4,0.4l-3.6,3.6l0.5,2.7L1025.8,203.2z M915.9,176.1l-2.7,3.9l0.5,0.5l5.8,1.1l4.2-0.1
		l-0.3-2.6l-4-3.8L915.9,176.1z M940.5,166.6l3.2-4.2l-7-2.9l-5.2-1.7l-0.7,3.6l5.2,4.3L940.5,166.6z M915.3,164.9l10.3,0.3l2.2-8.1
		l-10.1-6.1l-7.4-0.5l-3.7,2.2l-1.5,7.8l5.5,7L915.3,164.9z M668.2,190.8l-2.9,2l0.4,4.8l5.1,2.4l0.7,3.8l9.2,1.1l1.7-0.7L677,197
		l-0.6-7.5l4.4-9.1l4.2-9.8l8.7-10.2l8.6-5.3l9.9-5.7l1.9-3.7l-2-4.8l-5.5,1.6l-4.8,4.5l-9.3,2.2l-9.3,7.4l-6.3,5.9l0.8,4.9l-6.7,9
		l2.6,1.2l-5.6,8.3L668.2,190.8z M815.7,122.9l0.8-5.7l-7.1-8.3l-2.1-1l-2.3,1.7l-5.1,18.6L815.7,122.9z M651.5,93.6l3,3.9l3.3-2.7
		l0.4-2.7l2.5-1.3l3.8-2.2l1.1-2.6l-4.2-3.8l-2.6,2.9l-1.6,4.1l-0.6-4.7l-4.3,0.2l-5.5,3.1l6.2,0.5L651.5,93.6z M782.7,106.6
		l4.7,5.7l7.8,4.2l6.1-1.8l0.7-13.6l-6.5-16l-5.5-9l-6.1,4.1L776.7,92l3.8,3.3L782.7,106.6z"/>
	<path id="RW" class="st0" d="M606.4,491.1l1.1,1.6l-0.2,1.6l-0.8,0.3l-1.5-0.2l-0.9,1.6l-1.7-0.2l0.3-1.5l0.4-0.2l0.1-1.7l0.8-0.8
		l0.7,0.3L606.4,491.1z"/>
	<path id="SA" class="st0" d="M641,441.7l-0.4-1.2l-0.9-0.9l-0.2-1.2l-1.4-1l-1.5-2.5l-0.8-2.4l-1.9-2l-1.2-0.5l-1.9-2.9l-0.3-2.1
		l0.1-1.8l-1.6-3.4l-1.3-1.2l-1.5-0.6l-0.9-1.8l0.2-0.7l-0.8-1.6l-0.8-0.7l-1.1-2.3l-1.7-2.5l-1.4-2.2l-1.4,0l0.4-1.7l0.1-1.1
		l0.3-1.3l3.1,0.5l1.2-1l0.7-1.2l2.1-0.4l0.5-1.1l0.9-0.5l-2.8-3.3l5.6-1.6l0.5-0.5l3.4,0.9l4.2,2.3l7.9,6.5l5.2,0.3l2.5,0.3
		l0.7,1.5l2-0.1l1.1,2.7l1.4,0.7l0.5,1.1l1.9,1.3l0.2,1.3l-0.3,1l0.4,1l0.8,0.9l0.4,1l0.4,0.8l0.8,0.6l0.8-0.2l0.5,1.2l0.1,0.7
		l1.1,3.1l8.4,1.5l0.6-0.6l1.3,2.1l-1.9,6l-8.4,3l-8.1,1.1l-2.6,1.3l-2,3.1l-1.3,0.5l-0.7-1l-1.1,0.2l-2.7-0.3l-0.5-0.3l-3.2,0.1
		l-0.8,0.3l-1.1-0.8l-0.8,1.4l0.3,1.2L641,441.7z"/>
	<path id="SB" class="st0" d="M975.6,517.3l0.8,1l-2,0l-1.1-1.7l1.7,0.7L975.6,517.3z M972.1,515.5l-1.1,0.1l-1.7-0.3l-0.6-0.4
		l0.2-1.1l1.8,0.4l0.9,0.6L972.1,515.5z M974.4,514.8l-0.4,0.5l-2.1-2.5l-0.6-1.7h1l1,2.2L974.4,514.8z M969.3,511.2l0.1,0.6
		l-2.2-1.2l-1.5-1l-1-0.9l0.4-0.3l1.3,0.7l2.3,1.3L969.3,511.2z M962.8,508.4l-0.6,0.2L961,508l-1.2-1.1l0.1-0.5l1.7,1.2
		L962.8,508.4z"/>
	<path id="SD" class="st0" d="M616.3,461.4l-0.4,0l0-1.4l-0.3-1l-1.4-1.1l-0.3-2.1l0.3-2.1l-1.3-0.2l-0.2,0.6l-1.7,0.1l0.7,0.8
		l0.2,1.7l-1.5,1.6l-1.4,2l-1.4,0.3l-2.4-1.6l-1.1,0.6l-0.3,0.8l-1.4,0.5l-0.1,0.6h-2.8l-0.4-0.6l-2-0.1l-1,0.5l-0.8-0.2l-1.4-1.6
		l-0.5-0.8l-2,0.4l-0.8,1.3l-0.7,2.5l-1,0.5l-0.9,0.3l-0.2-0.1l-1-0.8l-0.2-0.9l0.5-1.2v-1.1l-1.6-1.8l-0.3-1.2l0-0.7l-1-0.8l0-1.7
		l-0.6-1.1l-1,0.2l0.3-1.1l0.7-1.2l-0.3-1.2l0.9-0.9l-0.6-0.7l0.7-1.8l1.3-2.1l2.4,0.2l-0.1-11.6l0-1.2l3.2,0v-6h11.3h10.9h11.1
		l0.9,2.9l-0.6,0.5l0.4,3.1l1,3.5l1.1,0.7l1.5,1.1l-1.4,1.7l-2.1,0.5l-0.9,0.9l-0.3,1.9l-1.2,4.2l0.3,1.1l-0.5,2.5l-1.1,2.8
		l-1.7,1.4l-1.2,2.2l-0.3,1.2l-1.3,0.8l-0.8,3V461.4z"/>
	<path id="SE" class="st0" d="M583.3,242l-2.7,4.7l0.4,4l-4.5,5.1l-5.4,5.3l-2,8.4l2,4.1l2.7,3.1l-2.6,6.2l-2.9,1.3l-1.1,8.8
		l-1.6,4.8l-3.4-0.5l-1.6,3.9l-3.2,0.2l-0.9-4.7l-2.4-5.8l-2.1-7.5l1.2-3.1l2.3-3.8l0.9-6.7l-1.8-3l-0.2-8l1.8-5.9l2.8,0.1l1-2.5
		l-1-2.2l4.3-9.5l2.8-7.9l1.9-5.2l2.7,0l0.8-4.2l5.3,1.2l0.4-5.1l1.7-0.3l3.7,3.8l4.4,5.1l0.1,11.1l0.9,2.7L583.3,242z"/>
	<path id="SI" class="st0" d="M559.8,341l2.3,0.3l1.4-0.9l2.5-0.1l0.5-0.7l0.5,0.1l0.5,1.4l-2.2,1.1l-0.3,1.6l-1,0.4l0,1.1l-1.1-0.1
		l-1-0.6l-0.5,0.7l-1.9-0.1l0.6-0.4l-0.7-1.7L559.8,341z"/>
	<path id="SJ" class="st0" d="M590.4,129l-6.3,5.4l-5-3l1.9-3.4l-1.7-4.3l5.8-2.8l1.1,5.2L590.4,129z M572.3,102.3l9.2,11.3
		l-7.1,5.7l-1.6,10.1l-2.5,2.5l-1.3,10.5l-3.4,0.5l-6-7.6l2.5-4.6l-4.2-3.9l-5.5-11.8l-2.2-11.8l7.6-5.7l1.5,5.6l4-0.2l1.1-5.4
		l4.1-0.6L572.3,102.3z M592.4,90.9l5.5,5.8l-4.2,8.5l-8.1,1.8l-8.3-2.6l-0.5-4.3l-4-0.3l-3.1-7.5l8.7-4.7l4.1,4.1l2.8-5.1
		L592.4,90.9z"/>
	<path id="SK" class="st0" d="M573.9,328.5l0.2,0.3l1.2-0.6l1.4,1.5l1.7-0.9l1.3,0.4l2-0.6l2.7,1.6l-0.8,1.1l-0.5,1.7l-0.6,0.4
		l-3-1.3l-0.9,0.2l-0.7,1l-1.3,0.5l-0.3-0.3l-1.4,0.6l-1.1,0.1l-0.2,0.8l-2.4,0.5l-1-0.5l-1.4-1.1l-0.3-1.5l0.2-0.5l0.4-0.9l1.2,0.1
		l1-0.4l0.1-0.4l0.5-0.2l0.2-1l0.6-0.2l0.4-0.8L573.9,328.5z"/>
	<path id="SL" class="st0" d="M489,469l-0.8-0.2l-2-1.1l-1.5-1.5l-0.5-1l-0.4-2.1l1.5-1.2l0.3-0.8l0.5-0.6l0.8-0.1l0.6-0.5h2.2
		l0.8,1l0.6,1.2l-0.1,0.8l0.4,0.7l0,1l0.8-0.2l-1.3,1.3l-1.3,1.5l-0.1,0.8L489,469z"/>
	<path id="SN" class="st0" d="M474.2,449.7l-1.2-2.2l-1.4-1l1.2-0.5l1.4-2l0.7-1.5l1-0.9l1.4,0.2l1.4-0.6l1.6,0l1.3,0.9l1.9,0.8
		l1.7,2.1l1.9,2l0.1,1.8l0.5,1.6l1,0.8l0.2,1.1l-0.1,0.9l-0.4,0.2l-1.5-0.2l-0.2,0.3l-0.6,0.1l-2-0.7l-1.4,0l-5.2-0.1l-0.8,0.3
		l-0.9-0.1l-1.5,0.5l-0.5-2.2l2.5,0.1l0.7-0.4l0.5,0l1-0.7l1.2,0.6l1.2,0l1.2-0.6l-0.6-0.8l-0.9,0.5l-0.9,0l-1.1-0.7l-0.9,0
		l-0.6,0.7L474.2,449.7z"/>
	<path id="SO" class="st0" d="M664.5,455l-0.1-0.8l-1.1,0l-1.3,1l-1.5,0.3l-1.3,0.4l-0.9,0.1l-1.6,0.1l-1,0.5l-1.4,0.2l-2.5,0.9
		l-3,0.3l-2.6,0.7l-1.4,0l-1.3-1.2l-0.5-1.2l-0.9-0.5l-1,1.5l-0.6,1l1,1.6l1,1.4l1.1,1l9.2,3.3l2.4,0l-7.9,8.4l-3.7,0.1l-2.5,2
		l-1.8,0l-0.8,0.9l-2.5,3.2l0,10.1l1.7,2.3l0.6-0.7l0.7-1.5l3.1-3.4l2.6-2.1l4.2-2.8l2.8-2.3l3.3-3.8l2.4-3.1l2.4-4.1l1.7-3.6
		l1.3-3.1l0.8-3l0.6-1l0-1.5L664.5,455z"/>
	<path id="SR" class="st0" d="M360.8,471.2l3.4,0.6l0.3-0.5l2.3-0.2l3,0.8l-1.5,2.4l0.2,1.9l1.1,1.7l-0.5,1.2l-0.2,1.3l-0.7,1.2
		l-1.6-0.6l-1.3,0.3l-1.1-0.2l-0.3,0.8l0.5,0.5l-0.2,0.6l-1.5-0.2l-1.7-2.4l-0.4-1.6l-0.9,0l-1.2-2l0.5-1.5l-0.1-0.6l1.7-0.7
		L360.8,471.2z"/>
	<path id="SS" class="st0" d="M616.3,461.4l0,2.2l-0.4,0.9l-1.5,0.1l-1,1.6l1.7,0.2l1.4,1.4l0.5,1.1l1.3,0.7l1.6,3l-1.9,1.8
		l-1.7,1.7l-1.7,1.3h-2l-2.3,0.6l-1.8-0.6l-1.1,0.8l-2.5-1.9l-0.7-1.2l-1.6,0.6l-1.3-0.2l-0.8,0.5l-1.3-0.3l-1.7-2.3l-0.5-0.9
		l-2.1-1.1l-0.7-1.7l-1.2-1.2l-1.9-1.5l0-0.9l-1.5-1.1l-1.9-1.1l0.9-0.3l1-0.5l0.7-2.5l0.8-1.3l2-0.4l0.5,0.8l1.4,1.6l0.8,0.2l1-0.5
		l2,0.1l0.4,0.6h2.8l0.1-0.6l1.4-0.5l0.3-0.8l1.1-0.6l2.4,1.6l1.4-0.3l1.4-2l1.5-1.6l-0.2-1.7l-0.7-0.8l1.7-0.1l0.2-0.6l1.3,0.2
		l-0.3,2.1l0.3,2.1l1.4,1.1l0.3,1l0,1.4L616.3,461.4z"/>
	<path id="SV" class="st0" d="M274.9,450.3l-0.3,0.7l-1.6,0l-1-0.3l-1.2-0.6l-1.6-0.2l-0.8-0.6l0.1-0.4l1-0.7l0.5-0.3l-0.1-0.3
		l0.7-0.2l0.8,0.2l0.6,0.6l0.9,0.5l0.1,0.4l1.2-0.3l0.6,0.2l0.4,0.3L274.9,450.3z"/>
	<path id="SY" class="st0" d="M629.8,389.1l-5.5,3.5l-3.1-1.3l-0.1,0l0.4-0.5l0-1.4l0.7-1.8l1.5-1.3l-0.5-1.3l-1.3-0.2l-0.3-2.6
		l0.7-1.4l0.8-0.8l0.8-0.8l0.2-1.9l0.9,0.7l3.1-1l1.5,0.6l2.3,0l3.2-1.3l1.5,0.1l3.2-0.5l-1.4,2.2l-1.5,0.9l0.3,2.5l-1.1,4.1
		L629.8,389.1z"/>
	<path id="SZ" class="st0" d="M611,565.3l-0.6,1.4l-1.6,0.3l-1.7-1.7l0-1.1l0.8-1.2l0.3-0.9l0.8-0.2l1.4,0.6l0.4,1.4L611,565.3z"/>
	<path id="TD" class="st0" d="M561.7,451.8l0.3-1.3l-1.8-0.1l0-1.9l-1.2-1.1l1.2-3.8l3.6-2.7l0.1-3.8l1.1-6l0.6-1.3l-1.2-1l0-0.9
		l-1-0.8l-0.7-4.7l2.8-1.7l11.2,5.8l11.2,5.7l0.1,11.6l-2.4-0.2l-1.3,2.1l-0.7,1.8l0.6,0.7l-0.9,0.9l0.3,1.2l-0.7,1.2l-0.3,1.1
		l1-0.2l0.6,1.1l0,1.7l1,0.8l0,0.7l-1.8,0.5l-1.4,1.1l-2,3.1l-2.6,1.3l-2.7-0.2l-0.8,0.3l0.3,1l-1.5,1l-1.2,1.1l-3.5,1.1l-0.7-0.6
		l-0.5-0.1l-0.5,0.7l-2.3,0.2l0.4-0.8l-0.9-1.9l-0.4-1.2l-1.2-0.5l-1.7-1.6l0.6-1.3l1.3,0.3l0.8-0.2l1.6,0l-1.5-2.6l0.1-1.9
		l-0.2-1.9L561.7,451.8z"/>
	<path id="TF" class="st0" d="M714.4,643.6l1.8,1.3l2.6,0.5l0.1,0.8l-0.8,2l-4.3,0.3l-0.1-2.3l0.4-1.8L714.4,643.6z"/>
	<path id="TG" class="st0" d="M526.3,470.8l-2.2,0.6l-0.6-1l-0.8-1.8l-0.2-1.4l0.6-2.5l-0.7-1l-0.3-2.2v-2l-1.2-1.5l0.2-0.9l2.5,0.1
		l-0.4,1.5l0.8,0.8l1,1l0.1,1.4l0.6,0.6l-0.1,6.5L526.3,470.8z"/>
	<path id="TH" class="st0" d="M808.7,453.7l-2.5-1.3l-2.4,0.1l0.4-2.2l-2.5,0l-0.2,3.1l-1.5,4.1l-0.9,2.5l0.2,2.1l1.8,0.1l1.1,2.6
		l0.5,2.4l1.6,1.6l1.7,0.3l1.5,1.4l-0.9,1.2l-1.9,0.3l-0.2-1.4l-2.3-1.2l-0.5,0.5l-1.1-1.1l-0.5-1.4l-1.5-1.6l-1.4-1.3l-0.5,1.6
		l-0.5-1.6l0.3-1.8l0.8-2.7l1.4-2.9l1.5-2.7l-1.1-2.6l0-1.3l-0.3-1.6l-1.9-2.3l-0.7-1.4l1-0.5l1-2.5l-1.1-1.9l-1.8-2.1l-1.4-2.6
		l1.2-0.5l1.3-3.2l2-0.1l1.6-1.3l1.6-0.7l1.2,0.9l0.2,1.8l1.9,0.1l-0.7,3.1l0.1,2.6l3-1.7l0.8,0.5l1.6-0.1l0.6-1l2.1,0.2l2.1,2.4
		l0.2,2.9l2.3,2.5l-0.1,2.4l-0.9,1.3l-2.6-0.4l-3.6,0.6l-1.8,2.4L808.7,453.7z"/>
	<path id="TJ" class="st0" d="M720.2,365.1l-1,1.1l-3.1-0.6l-0.3,2.1l3-0.3l3.5,1.2l5.3-0.6l0.7,3.3l0.9-0.4l1.7,0.8l-0.1,1.4l0.4,2
		h-2.9l-1.9-0.3l-1.7,1.6l-1.2,0.3l-1,0.7l-1.1-1.2l0.3-2.9l-0.8-0.2l0.3-1.1l-1.5-0.8l-1.2,1.2l-0.3,1.4l-0.4,0.5l-1.7-0.1
		l-0.9,1.6l-1-0.7l-2,1.1l-0.8-0.4l1.6-3.6l-0.6-2.7l-2.1-0.9l0.7-1.6l2.3,0.2l1.3-2l0.9-2.4l3.8-0.9l-0.6,1.7l0.4,1L720.2,365.1z"
		/>
	<path id="TL" class="st0" d="M871.5,512.8l0.3-0.7l2.4-0.6l2-0.1l0.9-0.3l1.1,0.3l-1,0.8l-2.9,1.2l-2.4,0.8l0-0.9L871.5,512.8z"/>
	<path id="TM" class="st0" d="M692.7,381.4l-0.2-2.9l-2.1-0.1l-3.2-3.1l-2.2-0.4l-3.1-1.8l-2-0.3l-1.2,0.7l-1.9-0.1l-2,2l-2.5,0.7
		l-0.5-2.5l0.4-3.7l-2.2-1.2l0.7-2.5l-1.9-0.2l0.6-3.1l2.6,0.9l2.5-1.2l-2-2.2l-0.8-2.1l-2.3,1l-0.3,2.7l-0.9-2.4l1.2-1.2l3.2-0.8
		l1.9,1.1l2,2.9l1.4-0.2l3.2-0.1l-0.5-1.9l2.4-1.3l2.4-2.2l3.8,2l0.3,3l1.1,0.8l3-0.2l0.9,0.7l1.4,3.8l3.2,2.5l1.8,1.7l2.9,1.8
		l3.7,1.5l-0.1,2.2l-0.8-0.1l-1.3-0.9l-0.4,1.2l-2.4,0.7l-0.6,2.8l-1.6,1.1l-2.2,0.5l-0.6,1.5l-2.1,0.5L692.7,381.4z"/>
	<path id="TN" class="st0" d="M547.7,399.2l-1.2-5.9l-1.7-1.3l0-0.8l-2.3-2l-0.2-2.5l1.7-1.9l0.7-2.8l-0.4-3.3l0.6-1.8l3.1-1.4
		l2,0.4l-0.1,1.8l2.4-1.3l0.2,0.7l-1.4,1.7l0,1.6l1,0.9l-0.4,3l-1.8,1.7l0.5,1.8l1.5,0.1l0.7,1.6l1.1,0.5l-0.2,2.6l-1.4,0.9
		l-0.9,1.1l-1.9,1.3l0.3,1.4l-0.2,1.4L547.7,399.2z"/>
	<path id="TR" class="st0" d="M624.6,361.1l4,1.4l3.3-0.6l2.4,0.3l3.3-1.9l3-0.2l2.7,1.8l0.5,1.3l-0.3,1.8l2.1,0.9l1.1,1.1l-1.9,1
		l0.9,4.1l-0.5,1.1l1.5,2.8l-1.3,0.6l-1-0.9l-3.3-0.5l-1.2,0.5l-3.2,0.5l-1.5-0.1l-3.2,1.3l-2.3,0l-1.5-0.7l-3.1,1l-0.9-0.7
		l-0.2,1.9l-0.8,0.8l-0.8,0.8l-1-1.6l1.1-1.3l-1.7,0.3l-2.3-0.8l-1.9,2l-4.3,0.4l-2.3-1.9l-3-0.1l-0.7,1.4l-1.9,0.4l-2.7-1.9
		l-3.1,0.1l-1.7-3.5l-2-2l1.4-2.8l-1.8-1.7l3.1-3.5l4.3-0.1l1.2-2.8l5.3,0.5l3.4-2.4l3.3-1.1l4.6-0.1L624.6,361.1z M597.3,363.5
		l-2.3,2l-0.9-1.7l0-0.8l0.7-0.4l0.9-2.3l-1.4-1l2.9-1.2l2.4,0.5l0.3,1.4l2.5,1.2l-0.5,0.9l-3.3,0.2L597.3,363.5z"/>
	<path id="TT" class="st0" d="M348.1,457.8l1.6-0.4l0.6,0.1l-0.1,2.1l-2.3,0.3l-0.5-0.2l0.8-0.8L348.1,457.8z"/>
	<path id="TW" class="st0" d="M862.5,417.8l-1.7,4.9l-1.2,2.5l-1.5-2.5l-0.3-2.2l1.6-3l2.2-2.3l1.3,0.9L862.5,417.8z"/>
	<path id="TZ" class="st0" d="M616.1,490.6l0.5,0.3l10.2,5.7l0.2,1.6l4,2.8l-1.3,3.4l0.2,1.6l1.8,1l0.1,0.7l-0.8,1.7l0.2,0.9
		l-0.2,1.3l1,1.8l1.2,2.8l1,0.6l-2.2,1.6l-3.1,1.1l-1.7,0l-1,0.8l-2,0.1l-0.7,0.4l-3.4-0.8l-2.1,0.2l-0.8-3.9l-1-1.3l-0.6-0.8
		l-2.7-0.5l-1.6-0.8l-1.8-0.5l-1.1-0.5l-1.2-0.7l-1.5-3.6l-1.6-1.6l-0.6-1.6l0.3-1.5l-0.5-2.6l1.2-0.1l1-1l1.1-1.5l0.7-0.6l0-0.9
		l-0.6-0.6l-0.2-1.1l0.8-0.3l0.2-1.6l-1.1-1.6l1-0.3l3.1,0L616.1,490.6z"/>
	<path id="UA" class="st0" d="M610.2,317l1,0.2l0.7-1l0.8,0.2l2.9-0.4l1.8,2.6l-0.7,0.9l0.2,1.4l2.2,0.2l1,1.9l-0.1,0.9l3.6,1.5
		l2.1-0.7l1.7,2l1.6,0l4.1,1.4l0,1.3l-1.1,2.2l0.6,2.3l-0.4,1.4l-2.7,0.3l-1.4,1.2l-0.1,1.8l-2.2,0.3l-1.9,1.3l-2.6,0.2l-2.4,1.5
		l-1.3,1l1.5,1.5l1.4,1l2.9-0.2l-0.5,1.4l-3.1,0.7l-3.8,2.3l-1.5-0.8l0.6-1.8l-3.1-1.2l0.5-0.8l3.2-1.6l-0.4-0.8l-0.5,0.4l-0.4-0.2
		l-4.4-1l-0.2-1.5l-2.6,0.5l-1,2.2l-2.2,3l-1.3-0.7l-1.3,0.6l-1.2-0.7l0.7-0.4l0.5-1.4l0.8-1.3l-0.2-0.7l0.6-0.3l0.3,0.6l1.7,0.1
		l0.7-0.3l-0.5-0.4l0.2-0.6l-1-1l-0.4-1.7l-1-0.7l0.2-1.4l-1.3-1.1l-1.2-0.2l-2.1-1.3l-1.9,0.4l-0.7,0.6l-1.2,0l-0.7,1l-2.1,0.4
		l-1,0.6l-1.3-1l-1.8,0l-1.7-0.5l-1.2,0.9l-0.2-1.1l-1.5-1.1l0.5-1.7l0.8-1.1l0.6,0.2l-0.7-1.9l2.5-3.6l1.4-0.5l0.3-1.2l-1.4-3.9
		l1.3-0.2l1.5-1.2l2.2-0.1l2.8,0.4l3.1,1.1l2.2,0.1l1,0.6l1-0.8l0.7,1l2.5-0.2l1.1,0.4l0.2-2.3l0.9-1L610.2,317z"/>
	<path id="UG" class="st0" d="M610.4,490.8l-3.1,0l-1,0.3l-1.7,0.9l-0.7-0.3l0-2.1l0.6-1.1l0.2-2.2l0.6-1.3l1.1-1.5l1.1-0.7l0.9-1
		l-1.1-0.4l0.2-3.3l1.1-0.8l1.8,0.6l2.3-0.6h2l1.7-1.3l1.3,1.9l0.3,1.4l1.2,3.2l-1,2l-1.4,1.8l-0.8,1.1l0,3L610.4,490.8z"/>
	<path id="US" class="st0" d="M155.1,304.3L155.1,304.3l-1.5-1.8l-2.5-1.6l-0.8-4.4l-3.6-4.1l-1.5-4.9l-2.7-0.3L138,287l-3.3-1.5
		l-5.8-5.6l-2.7-1.1l-4.9-2l-3.9,0.5l-5.5-2.6l-3.3-2.4l-3.1,1.2l0.6,3.9l-1.6,0.4l-3.2,1.2l-2.5,1.9l-3.1,1.2l-0.4-3.2l1.3-5.5
		l3-1.8l-0.8-1.5l-3.6,3.2l-1.9,3.8l-4,4l2,2.6l-2.7,3.9l-3,2.2l-2.8,1.6l-0.7,2.3l-4.4,2.6l-0.9,2.4l-3.3,2.1l-1.9-0.4l-2.6,1.4
		l-2.8,1.7l-2.3,1.6l-4.8,1.4l-0.4-0.8l3.1-2.3l2.7-1.5l3-2.7l3.5-0.6l1.4-2.1l3.9-3l0.6-1l2.1-1.8l0.5-4l1.4-3.2l-3.2,1.6l-0.9-0.9
		l-1.5,2l-1.8-2.7l-0.8,1.9l-1.1-2.7l-2.8,2.2H67l-0.2-3.2l0.5-2l-1.8-2l-3.6,1.1l-2.4-2.6l-1.9-1.4l0-3.2l-2.2-2.5l1.1-3.4l2.3-3.4
		l1-3.1l2.3-0.4l1.9,1l2.3-3l2,0.5l2.1-2l-0.5-2.9l-1.6-1.2l2.1-2.5l-1.7,0.1l-3,1.4l-0.8,1.4l-2.2-1.4l-4,0.7l-4.1-1.6l-1.2-2.6
		l-3.5-3.9l3.9-2.9l6.2-3.4h2.3l-0.4,3.5l5.9-0.3l-2.3-4.3l-3.4-2.7l-2-3.6l-2.7-3.2l-3.9-2.4l1.6-4l5-0.2l3.5-3.6l0.7-3.9l2.9-3.9
		l2.7-0.9l5.3-3.8l2.6,0.6l4.3-4.6l4.2,1.8l2,3.9l1.2-1.6l4.7,0.5l-0.2,1.9l4.3,1.4l2.9-0.8l5.9,2.6l5.4,0.8l2.2,1.1l3.7-1.3
		l4.2,2.5l3.1,1.1l0,27.6l0,35.4l2.8,0.2l2.7,1.6l2,2.4l2.5,3.6l2.7-3l2.8-1.8l1.5,2.9l1.9,2.2l2.6,2.4l1.8,3.8l2.9,5.9l4.8,3.2
		l0.1,3.1L155.1,304.3z M331,338.8l-1.2-1.2l-1.9,0.7l-0.9-1.1l-2.1,3.1l-0.9,3.1l-1,1.8l-1.2,0.6l-0.9,0.2l-0.3,1h-5.2l-4.3,0
		l-1.3,0.7l-2.9,2.7l0.3,0.5l0.2,1.5l-2.1,1.3l-2.3-0.3l-2.2-0.1l-1.3,0.4l0.2,1.1l0,0l0,0.4l-2.4,2.3l-2.1,1.1l-1.4,0.5l-1.7,1
		l-2,0.5l-1.4-0.2l-1.7-0.8l1-1.5l0.6-1.3l1.3-2.1l-0.1-1.6l-0.5-2.2l-1-0.4l-1.7,1.7l-0.6,0l-0.1-1l1.5-1.6l0.3-1.8l-0.2-1.8
		l-2.1-1.5l-2.4-0.8l-0.4,1.5l-0.6,0.4l-0.5,2l-0.3-1.3l-1.1,1l-0.7,1.3l-0.7,1.9l-0.1,1.6l0.9,2.4l-0.1,2.5l-1.1,1.8l-0.6,0.5
		l-0.8,0.4l-0.9,0l-0.3-0.2l-0.8-2l0-1l0.1-0.9l-0.4-1.9l0.5-2.2l0.6-2.7l1.5-3l-0.4,0l-2.1,2.5l-0.4-0.5l1.1-1.4l1.7-2.6l1.9-0.4
		l2.2-0.8l2.2,0.4l0.1,0l2.5-0.4l-1.4-1.6l-0.8-0.1l-0.9-0.2l-0.6-1.1l-2.8,0.4l-2.5,0.9l-2-1.5l-1.6-0.5l0.9-2.2l-2.5,1.4l-2.2,1.3
		l-2.2,1l-1.7-1.4l-2.8,0.9l0-0.6l1.9-1.7l2-1.6l2.9-1.4l-3.5-1.1l-2.3,0.5l-2.7-1.3l-2.9-0.7l-2-0.3l-0.9-0.7l-0.5-2.4l-0.9,0
		l0,1.6h-5.8h-9.6h-9.5h-8.4h-8.4h-8.3h-8.6h-2.8h-8.3h-8l0.9,3.5l0.4,3.4l-0.7,1.1l-1.5-3.9l-4.1-1.4l-0.3,0.8l0.8,1.9l0.9,3.5
		l0.5,5.4l-0.3,3.6l-0.3,3.5l-1.1,3.6l0.9,2.9l0.1,3.2l-0.6,3l1.5,2l0.4,3l2.2,3l1.2,1.2l-0.1,0.8l2.3,4.9l2.7,3.5l0.3,1.9l0.7,0.5
		l2.6,0.3l1,0.9l1.6,0.2l0.3,1l1.3,0.4l1.8,1.9l0.5,1.7l3.2-0.2l3.6-0.4l-0.3,0.6l4.2,1.6l6.4,2.3l5.6,0h2.2l0-1.4h4.9l1,1.2l1.4,1
		l1.7,1.4l0.9,1.7l0.7,1.8l1.4,1l2.3,1l1.8-2.5l2.3-0.1l2,1.3l1.4,2.2l1,1.9l1.6,1.8l0.6,2.2l0.8,1.5l2.2,1l2,0.7l1.1-0.1l-0.5-1.1
		l-0.1-1.5l0-2.2l0.6-1.4l1.5-1.5l2.8-1.4l2.6-2.4l2.4-0.8l1.7-0.2l2,0.7l2.4-0.4l2.1,1.7l2,0.1l1.1-0.6l1,0.5l0.5-0.4l-0.6-0.6
		l0.1-1.3l-0.5-0.9l1.2-0.5l2.1-0.2l2.5,0.4l3.2-0.4l1.8,0.8l1.4,1.5l0.5,0.2l2.8-1.5l1.1,0.5l2.2,2.7l0.8,1.8l-0.6,2.1l0.4,1.2
		l1.3,2.4l1.5,2.7l1.1,0.7l0.4,1.4l1.4,0.4l0.8-0.4l0.7-1.9l0.1-1.2l0.1-2.1l-1.3-3.6l0-1.4l-1.2-2.2l-0.9-2.8l-0.5-2.2l0.4-2.3
		l1.3-1.9l1.6-1.6l3.1-2.2l0.4-1.1l1.4-1.2l1.4-0.2l1.8-2l2.9-1l1.8-2.5l-0.4-3.5l-0.3-1.2l-0.8-0.2l-0.1-3.4l-1.9-1.1l1.9,0.6
		l-0.6-2.3l0.5-1.5l0.3,3l1.4,1.4l-0.9,2.4l0.3,0.1l1.6-2.8l0.9-1.4l0-1.4l-0.7-0.6l-0.6-1.9l0.9,0.9l0.6,0.2l0.2,0.9l2-2.8l0.6-2.6
		l-0.8-0.2l0.9-1l-0.1,0.5l1.8,0l3.9-1.1l-0.8-0.7l-4.1,0.7l2.3-1.1l1.6-0.2l1.2-0.2l2.1-0.6l1.4,0.1l1.9-0.6l0.2-1.1l-0.8-0.8
		l0.3,1.4l-1.2-0.1l-0.9-2l0-2l0.5-0.9l1.5-2.3l3-1.1l2.9-1.3l3-1.9l-0.5-1.3l-1.8-2.2L331,338.8z M91.4,288.3l-1.5,0.8l-2.5,1.9
		l0.4,2.4l1.4,1.3l2.8-2l2.4-2.5l-1.2-1.6L91.4,288.3z M45.8,259.7l2-1.3l0.2-0.7l-2.3-0.7V259.7z M54.3,275.1l-2.8,1l1.7,1.5l1.8,1
		l1.7-0.9l-0.3-2.1L54.3,275.1z M151.7,307.6L149,308l-1.3-0.6l-0.2,1.5l0.5,2.1l1.4,1.5l1,2.1l1.7,2.1l1.1,0l-2.4-3.7L151.7,307.6z
		 M83,428.3l-1-0.3l-0.3,0.3l0,0.2l0.3,0.2l0.5,0.6l0.9-0.2l0.2-0.4L83,428.3z M80,427.8l1.5,0.1l0.1-0.3l-1.4-0.1L80,427.8z
		 M85.9,431l-0.5-0.3l-1.1-0.5l-0.2-0.1l-0.2,0.3l0.2,0.6l-0.5,0.5l-0.1,0.3l0.5,1.1l-0.1,0.8l0.7,0.4l0.4-0.5l0.9-0.5l1.1-0.6
		l0.1-0.2l-0.7-1L85.9,431z M78,425.9l-0.8,0.4l0.1,0.1l0.4,0.7l1,0.1l0.2,0l0.2-0.2l-0.8-1L78,425.9z M73.6,424.3l-0.4,0.3
		l-0.1,0.2l0.9,0.5l0.3-0.3l-0.1-0.7L73.6,424.3z"/>
	<path id="UY" class="st0" d="M359.5,576.3l1.8-0.3l2.8,2.5l1-0.1l2.9,2.1l2.2,1.8l1.6,2.2l-1.2,1.6l0.8,1.9l-1.2,2.1L367,592
		l-2.1-0.7l-1.5,0.4l-2.6-1.5l-1.9,0.1l-1.7-1.9l0.2-2.2l0.6-0.7l0-3.3l0.8-3.4L359.5,576.3z"/>
	<path id="UZ" class="st0" d="M707.6,375.5l0.1-2.2l-3.7-1.5L701,370l-1.8-1.7l-3.2-2.5l-1.4-3.8l-0.9-0.7l-3,0.2l-1.1-0.8l-0.3-3
		l-3.8-2l-2.4,2.2l-2.4,1.3l0.5,1.9l-3.2,0.1l-0.1-14.1l7.2-2.4l0.5,0.4l4.3,2.8l2.3,1.5l2.7,3.5l3.3-0.6l4.8-0.3l3.4,2.8l-0.2,3.8
		l1.4,0l0.6,3.1l3.6,0.1l0.8,1.8l1,0l1.2-2.6l3.7-2.6l1.6-0.7l0.8,0.4l-2.3,2.4l2.1,1.4l2-0.9l3.3,2l-3.6,2.6l-2.1-0.4l-1.2,0.1
		l-0.4-1l0.6-1.7l-3.8,0.9l-0.9,2.4l-1.3,2l-2.3-0.2l-0.7,1.6l2.1,0.9l0.6,2.7l-1.6,3.6l-2.1-0.7L707.6,375.5z"/>
	<path id="VE" class="st0" d="M321.1,454.9l-0.1,0.7l-1.7,0.3l0.9,1.3l0,1.5l-1.2,1.6l1.1,2.2l1.2-0.2l0.6-2l-0.9-1l-0.1-2.1
		l3.5-1.2l-0.4-1.3l1-0.9l1,2l2,0l1.8,1.6l0.1,0.9l2.5,0l3-0.3l1.6,1.3l2.1,0.4l1.6-0.9l0-0.7l3.5-0.2l3.4,0l-2.4,0.8l1,1.3l2.2,0.2
		l2.1,1.4l0.5,2.3l1.5-0.1l1.1,0.7l-2.2,1.6l-0.2,1l1,1l-0.7,0.5l-1.7,0.5l0.1,1.3l-0.8,0.8l1.9,2.1l0.4,0.8l-1,1.1l-3.1,1l-2,0.4
		l-0.8,0.7l-2.2-0.7l-2.1-0.4l-0.5,0.3l1.2,0.7l-0.1,1.9l0.4,1.8l2.4,0.2l0.2,0.6l-2,0.8l-0.3,1.2l-1.2,0.4l-2.1,0.6l-0.5,0.9
		l-2.2,0.2l-1.6-1.5l-0.8-2.8l-0.8-1l-1-0.6l1.4-1.4l-0.1-0.6l-0.8-0.8l-0.6-1.9l0.2-2l0.6-0.9l0.5-1.5l-1-0.5l-1.6,0.3l-2-0.1
		l-1.1,0.3l-2-2.4l-1.6-0.4l-3.6,0.3l-0.7-1l-0.7-0.2l-0.1-0.6l0.3-1l-0.2-1.1l-0.6-0.6l-0.4-1.3l-1.4-0.2l0.8-1.7l0.4-2l0.8-1.1
		l1.1-0.8l0.7-1.4L321.1,454.9z"/>
	<path id="VN" class="st0" d="M824,426.4l-3.7,2.6l-2.3,2.8l-0.6,2.1l2.1,3.1l2.6,3.8l2.5,1.8l1.7,2.3l1.3,5.3l-0.4,5l-2.3,1.9
		l-3.2,1.8l-2.3,2.4l-3.5,2.6l-1-1.8l0.8-1.9l-2.1-1.6l2.4-1.1l2.9-0.2l-1.2-1.7l4.7-2.2l0.3-3.4l-0.6-1.9l0.5-2.9l-0.7-2l-2.1-2
		l-1.8-2.6l-2.3-3.5l-3.4-1.8l0.8-1.1l1.8-0.8l-1.1-2.6l-3.5,0l-1.3-2.7l-1.6-2.4l1.5-0.7l2.2,0l2.7-0.4l2.4-1.6l1.3,1.1l2.6,0.6
		l-0.5,1.7l1.3,1.2L824,426.4z"/>
	<path id="VU" class="st0" d="M991.7,534.4l-0.9,0.4l-0.9-1.3l0.1-0.8L991.7,534.4z M989.6,530l0.5,2.3l-0.8-0.4l-0.6,0.2l-0.4-0.8
		l-0.1-2.2L989.6,530z"/>
	<path id="YE" class="st0" d="M670,440.9l-2,0.8l-0.5,1.3l-0.1,1l-2.8,1.2l-4.5,1.4l-2.5,2l-1.2,0.2l-0.8-0.2l-1.6,1.2l-1.8,0.5
		l-2.3,0.1l-0.7,0.2l-0.6,0.8l-0.7,0.2l-0.4,0.7l-1.4-0.1l-0.9,0.4l-1.9-0.1l-0.7-1.7l0.1-1.6l-0.5-0.9l-0.5-2.1l-0.8-1.2l0.6-0.1
		l-0.3-1.3l0.3-0.6l-0.1-1.3l1.2-0.9l-0.3-1.2l0.8-1.4l1.1,0.8l0.8-0.3l3.2-0.1l0.5,0.3l2.7,0.3l1.1-0.2l0.7,1l1.3-0.5l2-3.1
		l2.6-1.3l8.1-1.1l2.2,4.8L670,440.9z"/>
	<path id="ZA" class="st0" d="M609.5,573.2l-0.5,0.5l-1.2,1.6l-0.8,1.7l-1.6,2.3l-3.2,3.4l-2,2l-2.1,1.5l-2.9,1.3l-1.4,0.2l-0.4,0.9
		l-1.7-0.5l-1.4,0.6l-3-0.7l-1.7,0.4l-1.2-0.2l-2.9,1.3l-2.4,0.5l-1.7,1.3l-1.3,0.1l-1.2-1.2l-1-0.1l-1.2-1.5l-0.1,0.5l-0.4-0.9l0-2
		l-0.9-2.2l0.9-0.6l-0.1-2.5l-1.8-3l-1.4-2.7v0l-2-4.2l1.3-1.6l1.1,0.9l0.5,1.4l1.3,0.2l1.8,0.6l1.5-0.2l2.5-1.6v-11.5l0.8,0.5
		l1.7,2.9l-0.3,1.9l0.6,1.1l2-0.3l1.4-1.4l1.3-0.9l0.7-1.5l1.4-0.7l1.2,0.4l1.3,0.9l2.3,0.2l1.8-0.7l0.3-1l0.5-1.5l1.5-0.2l0.8-1.2
		l0.9-2l2.5-2.3l4-2.2l1.1,0l1.4,0.5l0.9-0.4l1.5,0.3l1.3,4.3l0.7,2.2l-0.5,3.4l0.2,1.1l-1.4-0.6l-0.8,0.2l-0.3,0.9l-0.8,1.2l0,1.1
		l1.7,1.7l1.6-0.3l0.6-1.4l2.1,0l-0.7,2.3l-0.3,2.6l-0.7,1.4L609.5,573.2z M602.3,572.3l-1.2-1l-1.3,0.7l-1.5,1.2l-1.5,2l2.1,2.5
		l1-0.3l0.5-1l1.6-0.5l0.5-1l0.9-1.6L602.3,572.3z"/>
	<path id="ZM" class="st0" d="M612.9,513.7l1.3,1.3l0.7,2.4l-0.5,0.8l-0.6,2.3l0.5,2.4l-0.9,1l-0.9,2.7l1.5,0.7l-8.5,2.4l0.3,2
		l-2.1,0.4l-1.6,1.2l-0.3,1l-1,0.2l-2.4,2.4l-1.5,1.9l-1,0.1l-0.9-0.3l-3.1-0.3l-0.5-0.2l0-0.2l-1.1-0.7l-1.8-0.2l-2.3,0.7l-1.8-1.8
		l-1.9-2.4l0.1-9.2l5.8,0l-0.2-1l0.4-1.1l-0.5-1.3l0.3-1.4l-0.3-0.9l1,0.1l0.2,0.9l1.3-0.1l1.8,0.3l0.9,1.3l2.2,0.4l1.7-0.9l0.6,1.5
		l2.2,0.4l1,1.2l1.2,1.6l2.2,0l-0.2-3.1l-0.8,0.5l-2-1.1l-0.8-0.5l0.4-2.8l0.5-3.4l-0.6-1.2l0.8-1.8l0.8-0.3l3.8-0.5l1.1,0.3
		l1.2,0.7l1.1,0.5l1.8,0.5L612.9,513.7z"/>
	<path id="ZW" class="st0" d="M608.5,551.5l-1.5-0.3l-0.9,0.4l-1.4-0.5l-1.1,0l-1.8-1.4l-2.2-0.5l-0.8-1.9l0-1l-1.2-0.3l-3.2-3.2
		l-0.9-1.7l-0.6-0.5l-1.1-2.4l3.1,0.3l0.9,0.3l1-0.1l1.5-1.9l2.4-2.4l1-0.2l0.3-1l1.6-1.2l2.1-0.4l0.2,1.1l2.3-0.1l1.3,0.6l0.6,0.7
		l1.3,0.2l1.4,0.9l0,3.7l-0.5,2l-0.1,2.2l0.5,0.9l-0.3,1.7l-0.4,0.3l-0.7,2.2L608.5,551.5z"/>
</g>
</svg>
